G04 EAGLE Gerber RS-274X export*
G75*
%MOMM*%
%FSLAX34Y34*%
%LPD*%
%INCopper Layer 2*%
%IPPOS*%
%AMOC8*
5,1,8,0,0,1.08239X$1,22.5*%
G01*
%ADD10C,1.244600*%
%ADD11C,4.191000*%
%ADD12C,1.400000*%
%ADD13C,1.960000*%
%ADD14C,0.609600*%
%ADD15C,0.254000*%


D10*
X109900Y536200D03*
X109900Y510800D03*
X135300Y536200D03*
X135300Y510800D03*
X160700Y536200D03*
X160700Y510800D03*
X186100Y536200D03*
X186100Y510800D03*
X211500Y536200D03*
X211500Y510800D03*
X236900Y536200D03*
X236900Y510800D03*
X262300Y536200D03*
X262300Y510800D03*
X287700Y536200D03*
X287700Y510800D03*
X313100Y536200D03*
X313100Y510800D03*
X338500Y536200D03*
X338500Y510800D03*
X363900Y536200D03*
X363900Y510800D03*
X389300Y536200D03*
X389300Y510800D03*
X414700Y536200D03*
X414700Y510800D03*
X440100Y536200D03*
X440100Y510800D03*
X465500Y536200D03*
X465500Y510800D03*
X490900Y536200D03*
X490900Y510800D03*
X516300Y536200D03*
X516300Y510800D03*
X541700Y536200D03*
X541700Y510800D03*
X109900Y282200D03*
X109900Y256800D03*
X135300Y282200D03*
X135300Y256800D03*
X160700Y282200D03*
X160700Y256800D03*
X186100Y282200D03*
X186100Y256800D03*
X211500Y282200D03*
X211500Y256800D03*
X236900Y282200D03*
X236900Y256800D03*
X262300Y282200D03*
X262300Y256800D03*
X287700Y282200D03*
X287700Y256800D03*
X313100Y282200D03*
X313100Y256800D03*
X338500Y282200D03*
X338500Y256800D03*
X363900Y282200D03*
X363900Y256800D03*
X389300Y282200D03*
X389300Y256800D03*
X414700Y282200D03*
X414700Y256800D03*
X440100Y282200D03*
X440100Y256800D03*
X465500Y282200D03*
X465500Y256800D03*
X490900Y282200D03*
X490900Y256800D03*
X516300Y282200D03*
X516300Y256800D03*
X541700Y282200D03*
X541700Y256800D03*
D11*
X38100Y723900D03*
X977900Y723900D03*
X38100Y38100D03*
X977900Y38100D03*
D12*
X258280Y701260D03*
X233280Y701260D03*
X208280Y701260D03*
X183280Y701260D03*
X158280Y701260D03*
X258280Y411260D03*
X233280Y411260D03*
X208280Y411260D03*
X183280Y411260D03*
X158280Y411260D03*
D11*
X309880Y683260D03*
X309880Y429260D03*
X106680Y683260D03*
X106680Y429260D03*
D12*
X203200Y342900D03*
X228600Y342900D03*
X254000Y342900D03*
X279400Y342900D03*
X304800Y342900D03*
X330200Y342900D03*
X355600Y342900D03*
X381000Y342900D03*
X406400Y342900D03*
X431800Y342900D03*
X457200Y342900D03*
X482600Y342900D03*
X508000Y342900D03*
X533400Y342900D03*
X558800Y342900D03*
X584200Y342900D03*
X416960Y589280D03*
X441960Y589280D03*
X466960Y589280D03*
D10*
X607060Y662940D03*
X607060Y637540D03*
X607060Y612140D03*
D13*
X570500Y482200D03*
X570500Y432200D03*
X445500Y432200D03*
X445500Y482200D03*
X740680Y482200D03*
X740680Y432200D03*
X615680Y432200D03*
X615680Y482200D03*
X913400Y482200D03*
X913400Y432200D03*
X788400Y432200D03*
X788400Y482200D03*
D14*
X298450Y298450D03*
X368300Y298450D03*
X939800Y190500D03*
X609600Y349250D03*
X311150Y374142D03*
X469900Y419100D03*
X546100Y419100D03*
X641350Y419100D03*
X717550Y419100D03*
X812800Y419100D03*
X889000Y419100D03*
X355600Y495300D03*
X298450Y495300D03*
X298450Y558800D03*
X241300Y673100D03*
X469900Y571500D03*
X641350Y603250D03*
X254000Y298450D03*
X565150Y381000D03*
X234950Y374650D03*
X603250Y450850D03*
X781050Y450850D03*
X946150Y457200D03*
X381000Y495300D03*
X266700Y673100D03*
X412750Y571500D03*
X641350Y628650D03*
D15*
X158280Y701260D02*
X158280Y551980D01*
X147320Y541020D01*
X147320Y497840D01*
X152400Y492760D02*
X180340Y492760D01*
X186100Y498520D01*
X186100Y510800D01*
X152400Y492760D02*
X147320Y497840D01*
X183280Y549545D02*
X183280Y701260D01*
X174670Y524770D02*
X160700Y510800D01*
X174670Y540935D02*
X183280Y549545D01*
X174670Y540935D02*
X174670Y524770D01*
X208280Y563880D02*
X208280Y701260D01*
X208280Y563880D02*
X223520Y548640D01*
X223520Y518160D01*
X230880Y510800D01*
X236900Y510800D01*
X485140Y492760D02*
X533400Y492760D01*
X541700Y501060D01*
X541700Y510800D01*
X541020Y662940D02*
X607060Y662940D01*
X541020Y662940D02*
X510540Y632460D01*
X510540Y586740D01*
X477520Y553720D01*
X477520Y500380D01*
X485140Y492760D01*
X905780Y474580D02*
X913400Y482200D01*
X796020Y474580D02*
X788400Y482200D01*
X858520Y474580D02*
X905780Y474580D01*
X858520Y474580D02*
X796020Y474580D01*
X788400Y482200D02*
X770220Y500380D01*
X645160Y500380D02*
X635000Y510540D01*
X635000Y551180D01*
X619760Y566420D01*
X490900Y536200D02*
X490220Y536880D01*
X645160Y500380D02*
X770220Y500380D01*
X619760Y566420D02*
X508000Y566420D01*
X490220Y548640D01*
X490220Y536880D01*
X858520Y474580D02*
X870820Y462280D01*
X922020Y462280D01*
D14*
X922020Y462280D03*
D15*
X453120Y474580D02*
X445500Y482200D01*
X508000Y474580D02*
X562880Y474580D01*
X508000Y474580D02*
X453120Y474580D01*
X562880Y474580D02*
X570500Y482200D01*
X570500Y529320D01*
X563620Y536200D02*
X541700Y536200D01*
X563620Y536200D02*
X570500Y529320D01*
X508000Y474580D02*
X508000Y457200D01*
X579120Y457200D01*
D14*
X579120Y457200D03*
D15*
X733060Y474580D02*
X740680Y482200D01*
X623300Y474580D02*
X615680Y482200D01*
X680720Y474580D02*
X733060Y474580D01*
X680720Y474580D02*
X623300Y474580D01*
X615680Y482200D02*
X615680Y537480D01*
X604520Y548640D02*
X520700Y548640D01*
X516300Y544240D01*
X516300Y536200D01*
X604520Y548640D02*
X615680Y537480D01*
X680720Y474580D02*
X708260Y447040D01*
X753872Y447040D01*
D14*
X753872Y447040D03*
D15*
X254000Y368300D02*
X254000Y342900D01*
X254000Y368300D02*
X266700Y381000D01*
X381000Y381000D01*
X393700Y393700D01*
X393700Y499036D02*
X400730Y506066D01*
X393700Y499036D02*
X393700Y393700D01*
X408940Y551180D02*
X436880Y551180D01*
X441960Y556260D01*
X441960Y589280D01*
X400730Y542970D02*
X400730Y506066D01*
X400730Y542970D02*
X408940Y551180D01*
X279400Y342900D02*
X279400Y317500D01*
X287020Y309880D02*
X322580Y309880D01*
X325120Y307340D01*
X325120Y243840D02*
X332740Y236220D01*
X287020Y309880D02*
X279400Y317500D01*
X325120Y307340D02*
X325120Y243840D01*
X553720Y236220D02*
X561340Y243840D01*
X561340Y292100D01*
X553720Y299720D01*
X525780Y299720D01*
X516300Y290240D02*
X516300Y282200D01*
X553720Y236220D02*
X332740Y236220D01*
X516300Y290240D02*
X525780Y299720D01*
X330200Y317500D02*
X330200Y342900D01*
X401320Y271780D02*
X403860Y269240D01*
X530860Y269240D01*
X541700Y280080D01*
X541700Y282200D01*
X337820Y309880D02*
X330200Y317500D01*
X337820Y309880D02*
X393700Y309880D01*
X401320Y302260D01*
X401320Y271780D01*
X457200Y324700D02*
X457200Y342900D01*
X457200Y324700D02*
X414700Y282200D01*
X482600Y324700D02*
X482600Y342900D01*
X482600Y324700D02*
X440100Y282200D01*
X508000Y324700D02*
X508000Y342900D01*
X508000Y324700D02*
X465500Y282200D01*
X533400Y324700D02*
X533400Y342900D01*
X533400Y324700D02*
X490900Y282200D01*
M02*
