G04 EAGLE Gerber RS-274X export*
G75*
%MOMM*%
%FSLAX34Y34*%
%LPD*%
%INTop Copper*%
%IPPOS*%
%AMOC8*
5,1,8,0,0,1.08239X$1,22.5*%
G01*
%ADD10R,1.524000X1.524000*%
%ADD11P,1.649562X8X22.500000*%
%ADD12C,4.445000*%
%ADD13C,1.016000*%
%ADD14R,1.143000X1.270000*%
%ADD15C,1.676400*%
%ADD16R,1.676400X1.676400*%
%ADD17C,1.930400*%
%ADD18C,1.400000*%
%ADD19R,0.609600X0.508000*%
%ADD20R,1.651000X1.651000*%
%ADD21C,1.651000*%
%ADD22C,1.960000*%
%ADD23C,0.609600*%
%ADD24C,0.381000*%
%ADD25C,0.254000*%

G36*
X1012308Y2556D02*
X1012308Y2556D01*
X1012427Y2563D01*
X1012465Y2576D01*
X1012506Y2581D01*
X1012616Y2624D01*
X1012729Y2661D01*
X1012764Y2683D01*
X1012801Y2698D01*
X1012897Y2767D01*
X1012998Y2831D01*
X1013026Y2861D01*
X1013059Y2884D01*
X1013135Y2976D01*
X1013216Y3063D01*
X1013236Y3098D01*
X1013261Y3129D01*
X1013312Y3237D01*
X1013370Y3341D01*
X1013380Y3381D01*
X1013397Y3417D01*
X1013419Y3534D01*
X1013449Y3649D01*
X1013453Y3709D01*
X1013457Y3729D01*
X1013455Y3750D01*
X1013459Y3810D01*
X1013459Y758190D01*
X1013444Y758308D01*
X1013437Y758427D01*
X1013424Y758465D01*
X1013419Y758506D01*
X1013376Y758616D01*
X1013339Y758729D01*
X1013317Y758764D01*
X1013302Y758801D01*
X1013233Y758897D01*
X1013169Y758998D01*
X1013139Y759026D01*
X1013116Y759059D01*
X1013024Y759135D01*
X1012937Y759216D01*
X1012902Y759236D01*
X1012871Y759261D01*
X1012763Y759312D01*
X1012659Y759370D01*
X1012619Y759380D01*
X1012583Y759397D01*
X1012466Y759419D01*
X1012351Y759449D01*
X1012291Y759453D01*
X1012271Y759457D01*
X1012250Y759455D01*
X1012190Y759459D01*
X3810Y759459D01*
X3692Y759444D01*
X3573Y759437D01*
X3535Y759424D01*
X3494Y759419D01*
X3384Y759376D01*
X3271Y759339D01*
X3236Y759317D01*
X3199Y759302D01*
X3103Y759233D01*
X3002Y759169D01*
X2974Y759139D01*
X2941Y759116D01*
X2865Y759024D01*
X2784Y758937D01*
X2764Y758902D01*
X2739Y758871D01*
X2688Y758763D01*
X2630Y758659D01*
X2620Y758619D01*
X2603Y758583D01*
X2581Y758466D01*
X2551Y758351D01*
X2547Y758291D01*
X2543Y758271D01*
X2545Y758250D01*
X2541Y758190D01*
X2541Y3810D01*
X2556Y3692D01*
X2563Y3573D01*
X2576Y3535D01*
X2581Y3494D01*
X2624Y3384D01*
X2661Y3271D01*
X2683Y3236D01*
X2698Y3199D01*
X2767Y3103D01*
X2831Y3002D01*
X2861Y2974D01*
X2884Y2941D01*
X2976Y2865D01*
X3063Y2784D01*
X3098Y2764D01*
X3129Y2739D01*
X3237Y2688D01*
X3341Y2630D01*
X3381Y2620D01*
X3417Y2603D01*
X3534Y2581D01*
X3649Y2551D01*
X3709Y2547D01*
X3729Y2543D01*
X3750Y2545D01*
X3810Y2541D01*
X1012190Y2541D01*
X1012308Y2556D01*
G37*
%LPC*%
G36*
X76726Y52069D02*
X76726Y52069D01*
X52069Y76726D01*
X52069Y685274D01*
X76726Y709931D01*
X146088Y709931D01*
X146206Y709946D01*
X146325Y709953D01*
X146363Y709966D01*
X146404Y709971D01*
X146514Y710014D01*
X146627Y710051D01*
X146662Y710073D01*
X146699Y710088D01*
X146795Y710158D01*
X146896Y710221D01*
X146924Y710251D01*
X146957Y710274D01*
X147033Y710366D01*
X147088Y710425D01*
X148846Y712183D01*
X167714Y712183D01*
X169472Y710425D01*
X169493Y710392D01*
X169523Y710364D01*
X169546Y710331D01*
X169638Y710256D01*
X169725Y710174D01*
X169760Y710154D01*
X169791Y710129D01*
X169899Y710078D01*
X170003Y710020D01*
X170043Y710010D01*
X170079Y709993D01*
X170196Y709971D01*
X170311Y709941D01*
X170371Y709937D01*
X170391Y709933D01*
X170412Y709935D01*
X170472Y709931D01*
X175978Y709931D01*
X176076Y709943D01*
X176175Y709946D01*
X176233Y709963D01*
X176293Y709971D01*
X176386Y710007D01*
X176481Y710035D01*
X176533Y710065D01*
X176589Y710088D01*
X176669Y710146D01*
X176755Y710196D01*
X176830Y710262D01*
X176847Y710274D01*
X176854Y710284D01*
X176875Y710303D01*
X177093Y710520D01*
X181107Y712183D01*
X185453Y712183D01*
X189467Y710520D01*
X189685Y710303D01*
X189763Y710242D01*
X189835Y710174D01*
X189888Y710145D01*
X189936Y710108D01*
X190027Y710068D01*
X190113Y710020D01*
X190172Y710005D01*
X190228Y709981D01*
X190326Y709966D01*
X190421Y709941D01*
X190521Y709935D01*
X190542Y709931D01*
X190554Y709933D01*
X190582Y709931D01*
X200978Y709931D01*
X201076Y709943D01*
X201175Y709946D01*
X201233Y709963D01*
X201293Y709971D01*
X201386Y710007D01*
X201481Y710035D01*
X201533Y710065D01*
X201589Y710088D01*
X201669Y710146D01*
X201755Y710196D01*
X201830Y710262D01*
X201847Y710274D01*
X201854Y710284D01*
X201875Y710303D01*
X202093Y710520D01*
X206107Y712183D01*
X210453Y712183D01*
X214467Y710520D01*
X214685Y710303D01*
X214763Y710242D01*
X214835Y710174D01*
X214888Y710145D01*
X214936Y710108D01*
X215027Y710068D01*
X215113Y710020D01*
X215172Y710005D01*
X215228Y709981D01*
X215326Y709966D01*
X215421Y709941D01*
X215521Y709935D01*
X215542Y709931D01*
X215554Y709933D01*
X215582Y709931D01*
X225978Y709931D01*
X226076Y709943D01*
X226175Y709946D01*
X226233Y709963D01*
X226293Y709971D01*
X226386Y710007D01*
X226481Y710035D01*
X226533Y710065D01*
X226589Y710088D01*
X226669Y710146D01*
X226755Y710196D01*
X226830Y710262D01*
X226847Y710274D01*
X226854Y710284D01*
X226875Y710303D01*
X227093Y710520D01*
X231107Y712183D01*
X235453Y712183D01*
X239467Y710520D01*
X239685Y710303D01*
X239763Y710242D01*
X239835Y710174D01*
X239888Y710145D01*
X239936Y710108D01*
X240027Y710068D01*
X240113Y710020D01*
X240172Y710005D01*
X240228Y709981D01*
X240326Y709966D01*
X240421Y709941D01*
X240521Y709935D01*
X240542Y709931D01*
X240554Y709933D01*
X240582Y709931D01*
X250978Y709931D01*
X251076Y709943D01*
X251175Y709946D01*
X251233Y709963D01*
X251293Y709971D01*
X251386Y710007D01*
X251481Y710035D01*
X251533Y710065D01*
X251589Y710088D01*
X251669Y710146D01*
X251755Y710196D01*
X251830Y710262D01*
X251847Y710274D01*
X251854Y710284D01*
X251875Y710303D01*
X252093Y710520D01*
X256107Y712183D01*
X260453Y712183D01*
X264467Y710520D01*
X264685Y710303D01*
X264763Y710242D01*
X264835Y710174D01*
X264888Y710145D01*
X264936Y710108D01*
X265027Y710068D01*
X265113Y710020D01*
X265172Y710005D01*
X265228Y709981D01*
X265326Y709966D01*
X265421Y709941D01*
X265521Y709935D01*
X265542Y709931D01*
X265554Y709933D01*
X265582Y709931D01*
X939274Y709931D01*
X963931Y685274D01*
X963931Y162560D01*
X963946Y162442D01*
X963953Y162323D01*
X963966Y162285D01*
X963971Y162244D01*
X964014Y162134D01*
X964051Y162021D01*
X964073Y161986D01*
X964088Y161949D01*
X964158Y161853D01*
X964221Y161752D01*
X964251Y161724D01*
X964274Y161691D01*
X964366Y161615D01*
X964453Y161534D01*
X964488Y161514D01*
X964519Y161489D01*
X964627Y161438D01*
X964731Y161380D01*
X964771Y161370D01*
X964807Y161353D01*
X964924Y161331D01*
X965039Y161301D01*
X965100Y161297D01*
X965120Y161293D01*
X965140Y161295D01*
X965200Y161291D01*
X966471Y161291D01*
X966471Y153670D01*
X966486Y153552D01*
X966493Y153433D01*
X966506Y153395D01*
X966511Y153355D01*
X966554Y153244D01*
X966591Y153131D01*
X966613Y153096D01*
X966628Y153059D01*
X966698Y152963D01*
X966761Y152862D01*
X966791Y152834D01*
X966815Y152802D01*
X966906Y152726D01*
X966993Y152644D01*
X967028Y152625D01*
X967059Y152599D01*
X967167Y152548D01*
X967271Y152491D01*
X967311Y152480D01*
X967347Y152463D01*
X967464Y152441D01*
X967579Y152411D01*
X967640Y152407D01*
X967660Y152403D01*
X967680Y152405D01*
X967740Y152401D01*
X969011Y152401D01*
X969011Y152399D01*
X967740Y152399D01*
X967622Y152384D01*
X967503Y152377D01*
X967465Y152364D01*
X967425Y152359D01*
X967314Y152315D01*
X967201Y152279D01*
X967166Y152257D01*
X967129Y152242D01*
X967033Y152172D01*
X966932Y152109D01*
X966904Y152079D01*
X966871Y152055D01*
X966796Y151964D01*
X966714Y151877D01*
X966694Y151842D01*
X966669Y151810D01*
X966618Y151703D01*
X966560Y151599D01*
X966550Y151559D01*
X966533Y151523D01*
X966511Y151406D01*
X966481Y151291D01*
X966477Y151230D01*
X966473Y151210D01*
X966475Y151190D01*
X966471Y151130D01*
X966471Y143509D01*
X965200Y143509D01*
X965082Y143494D01*
X964963Y143487D01*
X964925Y143474D01*
X964884Y143469D01*
X964774Y143426D01*
X964661Y143389D01*
X964626Y143367D01*
X964589Y143352D01*
X964493Y143283D01*
X964392Y143219D01*
X964364Y143189D01*
X964331Y143166D01*
X964256Y143074D01*
X964174Y142987D01*
X964154Y142952D01*
X964129Y142921D01*
X964078Y142813D01*
X964020Y142709D01*
X964010Y142669D01*
X963993Y142633D01*
X963971Y142516D01*
X963941Y142401D01*
X963937Y142341D01*
X963933Y142321D01*
X963935Y142300D01*
X963931Y142240D01*
X963931Y76726D01*
X939274Y52069D01*
X76726Y52069D01*
G37*
%LPD*%
G36*
X937996Y54625D02*
X937996Y54625D01*
X938087Y54633D01*
X938117Y54645D01*
X938149Y54650D01*
X938230Y54693D01*
X938314Y54729D01*
X938346Y54755D01*
X938366Y54766D01*
X938389Y54789D01*
X938444Y54834D01*
X961166Y77556D01*
X961219Y77629D01*
X961279Y77699D01*
X961291Y77729D01*
X961310Y77755D01*
X961337Y77842D01*
X961371Y77927D01*
X961375Y77968D01*
X961382Y77990D01*
X961381Y78023D01*
X961389Y78094D01*
X961389Y144047D01*
X961375Y144137D01*
X961367Y144228D01*
X961355Y144258D01*
X961350Y144290D01*
X961307Y144371D01*
X961271Y144455D01*
X961245Y144487D01*
X961234Y144507D01*
X961211Y144530D01*
X961166Y144586D01*
X960658Y145094D01*
X960642Y145105D01*
X960630Y145121D01*
X960543Y145177D01*
X960459Y145237D01*
X960439Y145243D01*
X960423Y145254D01*
X960322Y145279D01*
X960223Y145309D01*
X960204Y145309D01*
X960184Y145314D01*
X960081Y145306D01*
X959978Y145303D01*
X959959Y145296D01*
X959939Y145295D01*
X959844Y145254D01*
X959747Y145219D01*
X959731Y145206D01*
X959713Y145198D01*
X959582Y145094D01*
X957997Y143509D01*
X944463Y143509D01*
X942974Y144998D01*
X942974Y159802D01*
X944463Y161291D01*
X946023Y161291D01*
X946043Y161294D01*
X946062Y161292D01*
X946164Y161314D01*
X946266Y161330D01*
X946283Y161340D01*
X946303Y161344D01*
X946392Y161397D01*
X946483Y161446D01*
X946497Y161460D01*
X946514Y161470D01*
X946581Y161549D01*
X946653Y161624D01*
X946661Y161642D01*
X946674Y161657D01*
X946713Y161753D01*
X946756Y161847D01*
X946758Y161867D01*
X946766Y161885D01*
X946784Y162052D01*
X946784Y176913D01*
X946770Y177003D01*
X946762Y177094D01*
X946750Y177124D01*
X946745Y177156D01*
X946702Y177237D01*
X946666Y177320D01*
X946640Y177353D01*
X946629Y177373D01*
X946606Y177395D01*
X946561Y177451D01*
X939324Y184688D01*
X939251Y184741D01*
X939181Y184801D01*
X939151Y184813D01*
X939125Y184832D01*
X939038Y184859D01*
X938953Y184893D01*
X938912Y184897D01*
X938890Y184904D01*
X938857Y184903D01*
X938786Y184911D01*
X938688Y184911D01*
X936634Y185762D01*
X935062Y187334D01*
X934211Y189388D01*
X934211Y191612D01*
X935062Y193666D01*
X936634Y195238D01*
X938688Y196089D01*
X940912Y196089D01*
X942966Y195238D01*
X944538Y193666D01*
X945389Y191612D01*
X945389Y191514D01*
X945403Y191424D01*
X945411Y191333D01*
X945423Y191303D01*
X945428Y191271D01*
X945471Y191190D01*
X945507Y191107D01*
X945533Y191074D01*
X945544Y191054D01*
X945567Y191032D01*
X945612Y190976D01*
X955676Y180912D01*
X955676Y162052D01*
X955679Y162032D01*
X955677Y162013D01*
X955699Y161911D01*
X955715Y161809D01*
X955725Y161792D01*
X955729Y161772D01*
X955782Y161683D01*
X955831Y161592D01*
X955845Y161578D01*
X955855Y161561D01*
X955934Y161494D01*
X956009Y161422D01*
X956027Y161414D01*
X956042Y161401D01*
X956138Y161362D01*
X956232Y161319D01*
X956252Y161317D01*
X956270Y161309D01*
X956437Y161291D01*
X957997Y161291D01*
X959582Y159706D01*
X959598Y159695D01*
X959610Y159679D01*
X959697Y159623D01*
X959781Y159563D01*
X959801Y159557D01*
X959817Y159546D01*
X959917Y159521D01*
X960017Y159491D01*
X960036Y159491D01*
X960056Y159486D01*
X960159Y159494D01*
X960262Y159497D01*
X960281Y159504D01*
X960301Y159505D01*
X960396Y159546D01*
X960493Y159581D01*
X960509Y159594D01*
X960527Y159602D01*
X960658Y159706D01*
X961166Y160214D01*
X961220Y160289D01*
X961279Y160358D01*
X961291Y160388D01*
X961310Y160414D01*
X961337Y160501D01*
X961371Y160586D01*
X961375Y160627D01*
X961382Y160649D01*
X961381Y160681D01*
X961389Y160753D01*
X961389Y683906D01*
X961375Y683996D01*
X961367Y684087D01*
X961355Y684117D01*
X961350Y684149D01*
X961307Y684230D01*
X961271Y684314D01*
X961245Y684346D01*
X961234Y684366D01*
X961211Y684389D01*
X961166Y684444D01*
X938444Y707166D01*
X938371Y707219D01*
X938301Y707279D01*
X938271Y707291D01*
X938245Y707310D01*
X938158Y707337D01*
X938073Y707371D01*
X938032Y707375D01*
X938010Y707382D01*
X937977Y707381D01*
X937906Y707389D01*
X320459Y707389D01*
X320412Y707382D01*
X320364Y707383D01*
X320291Y707362D01*
X320217Y707350D01*
X320174Y707327D01*
X320128Y707313D01*
X320066Y707270D01*
X319999Y707234D01*
X319966Y707200D01*
X319927Y707172D01*
X319882Y707111D01*
X319830Y707056D01*
X319810Y707013D01*
X319781Y706974D01*
X319758Y706902D01*
X319726Y706833D01*
X319721Y706785D01*
X319706Y706740D01*
X319707Y706664D01*
X319699Y706589D01*
X319709Y706542D01*
X319710Y706494D01*
X319735Y706422D01*
X319751Y706348D01*
X319776Y706307D01*
X319792Y706262D01*
X319839Y706202D01*
X319878Y706137D01*
X319914Y706106D01*
X319944Y706068D01*
X320047Y705992D01*
X320064Y705977D01*
X320071Y705975D01*
X320079Y705969D01*
X325087Y703078D01*
X329698Y698467D01*
X332958Y692819D01*
X334646Y686520D01*
X334646Y680000D01*
X332958Y673701D01*
X329698Y668053D01*
X325087Y663442D01*
X319439Y660182D01*
X313140Y658494D01*
X306620Y658494D01*
X300321Y660182D01*
X294673Y663442D01*
X290062Y668053D01*
X286802Y673701D01*
X285114Y680000D01*
X285114Y686520D01*
X286802Y692819D01*
X290062Y698467D01*
X294673Y703078D01*
X299681Y705969D01*
X299718Y705999D01*
X299761Y706022D01*
X299813Y706077D01*
X299872Y706125D01*
X299897Y706165D01*
X299930Y706200D01*
X299962Y706269D01*
X300002Y706333D01*
X300014Y706380D01*
X300034Y706423D01*
X300042Y706498D01*
X300060Y706572D01*
X300056Y706620D01*
X300061Y706667D01*
X300045Y706742D01*
X300038Y706817D01*
X300019Y706861D01*
X300009Y706908D01*
X299970Y706973D01*
X299939Y707042D01*
X299907Y707078D01*
X299882Y707119D01*
X299825Y707168D01*
X299774Y707224D01*
X299732Y707248D01*
X299696Y707279D01*
X299625Y707307D01*
X299559Y707344D01*
X299512Y707353D01*
X299467Y707371D01*
X299339Y707385D01*
X299317Y707389D01*
X299311Y707388D01*
X299301Y707389D01*
X268658Y707389D01*
X268583Y707377D01*
X268508Y707374D01*
X268463Y707357D01*
X268415Y707350D01*
X268349Y707314D01*
X268278Y707287D01*
X268240Y707257D01*
X268198Y707234D01*
X268146Y707180D01*
X268087Y707132D01*
X268062Y707091D01*
X268029Y707056D01*
X267997Y706987D01*
X267957Y706923D01*
X267945Y706877D01*
X267925Y706833D01*
X267917Y706758D01*
X267899Y706684D01*
X267903Y706636D01*
X267898Y706589D01*
X267914Y706515D01*
X267921Y706439D01*
X267943Y706379D01*
X267950Y706348D01*
X267963Y706326D01*
X267980Y706282D01*
X268402Y705453D01*
X268934Y703818D01*
X269098Y702783D01*
X259042Y702783D01*
X259022Y702780D01*
X259003Y702782D01*
X258901Y702760D01*
X258799Y702743D01*
X258782Y702734D01*
X258762Y702730D01*
X258673Y702677D01*
X258582Y702628D01*
X258568Y702614D01*
X258551Y702604D01*
X258484Y702525D01*
X258413Y702450D01*
X258404Y702432D01*
X258391Y702417D01*
X258353Y702321D01*
X258309Y702227D01*
X258307Y702207D01*
X258299Y702189D01*
X258281Y702022D01*
X258281Y701259D01*
X258279Y701259D01*
X258279Y702022D01*
X258276Y702042D01*
X258278Y702061D01*
X258256Y702163D01*
X258239Y702265D01*
X258230Y702282D01*
X258226Y702302D01*
X258173Y702391D01*
X258124Y702482D01*
X258110Y702496D01*
X258100Y702513D01*
X258021Y702580D01*
X257946Y702651D01*
X257928Y702660D01*
X257913Y702673D01*
X257817Y702712D01*
X257723Y702755D01*
X257703Y702757D01*
X257685Y702765D01*
X257518Y702783D01*
X247462Y702783D01*
X247626Y703818D01*
X248158Y705453D01*
X248580Y706282D01*
X248603Y706354D01*
X248635Y706423D01*
X248640Y706471D01*
X248655Y706517D01*
X248654Y706592D01*
X248662Y706667D01*
X248652Y706715D01*
X248651Y706763D01*
X248626Y706834D01*
X248610Y706908D01*
X248585Y706949D01*
X248569Y706995D01*
X248523Y707054D01*
X248484Y707119D01*
X248447Y707150D01*
X248417Y707188D01*
X248354Y707230D01*
X248297Y707279D01*
X248252Y707297D01*
X248212Y707323D01*
X248139Y707343D01*
X248069Y707371D01*
X248004Y707378D01*
X247974Y707386D01*
X247949Y707384D01*
X247902Y707389D01*
X243703Y707389D01*
X243658Y707382D01*
X243612Y707384D01*
X243537Y707362D01*
X243460Y707350D01*
X243420Y707328D01*
X243376Y707315D01*
X243312Y707271D01*
X243243Y707234D01*
X243211Y707201D01*
X243174Y707175D01*
X243127Y707112D01*
X243074Y707056D01*
X243054Y707014D01*
X243027Y706978D01*
X243003Y706904D01*
X242970Y706833D01*
X242965Y706787D01*
X242951Y706744D01*
X242951Y706666D01*
X242943Y706589D01*
X242953Y706544D01*
X242953Y706498D01*
X242991Y706366D01*
X242995Y706348D01*
X242998Y706344D01*
X243000Y706337D01*
X244203Y703433D01*
X244203Y699087D01*
X242540Y695073D01*
X239467Y692000D01*
X235453Y690337D01*
X231107Y690337D01*
X227093Y692000D01*
X224020Y695073D01*
X222357Y699087D01*
X222357Y703433D01*
X223560Y706337D01*
X223571Y706381D01*
X223590Y706423D01*
X223599Y706500D01*
X223616Y706576D01*
X223612Y706622D01*
X223617Y706667D01*
X223601Y706744D01*
X223593Y706821D01*
X223575Y706863D01*
X223565Y706908D01*
X223525Y706975D01*
X223493Y707046D01*
X223462Y707080D01*
X223439Y707119D01*
X223380Y707170D01*
X223327Y707227D01*
X223287Y707249D01*
X223252Y707279D01*
X223180Y707308D01*
X223111Y707345D01*
X223066Y707354D01*
X223024Y707371D01*
X222888Y707386D01*
X222869Y707389D01*
X222864Y707388D01*
X222857Y707389D01*
X218703Y707389D01*
X218658Y707382D01*
X218612Y707384D01*
X218537Y707362D01*
X218460Y707350D01*
X218420Y707328D01*
X218376Y707315D01*
X218312Y707271D01*
X218243Y707234D01*
X218211Y707201D01*
X218174Y707175D01*
X218127Y707112D01*
X218074Y707056D01*
X218054Y707014D01*
X218027Y706978D01*
X218003Y706904D01*
X217970Y706833D01*
X217965Y706787D01*
X217951Y706744D01*
X217951Y706666D01*
X217943Y706589D01*
X217953Y706544D01*
X217953Y706498D01*
X217991Y706366D01*
X217995Y706348D01*
X217998Y706344D01*
X218000Y706337D01*
X219203Y703433D01*
X219203Y699087D01*
X217540Y695073D01*
X214467Y692000D01*
X210453Y690337D01*
X206107Y690337D01*
X202093Y692000D01*
X199020Y695073D01*
X197357Y699087D01*
X197357Y703433D01*
X198560Y706337D01*
X198571Y706381D01*
X198590Y706423D01*
X198599Y706500D01*
X198616Y706576D01*
X198612Y706622D01*
X198617Y706667D01*
X198601Y706744D01*
X198593Y706821D01*
X198575Y706863D01*
X198565Y706908D01*
X198525Y706975D01*
X198493Y707046D01*
X198462Y707080D01*
X198439Y707119D01*
X198380Y707170D01*
X198327Y707227D01*
X198287Y707249D01*
X198252Y707279D01*
X198180Y707308D01*
X198111Y707345D01*
X198066Y707354D01*
X198024Y707371D01*
X197888Y707386D01*
X197869Y707389D01*
X197864Y707388D01*
X197857Y707389D01*
X193703Y707389D01*
X193658Y707382D01*
X193612Y707384D01*
X193537Y707362D01*
X193460Y707350D01*
X193420Y707328D01*
X193376Y707315D01*
X193312Y707271D01*
X193243Y707234D01*
X193211Y707201D01*
X193174Y707175D01*
X193127Y707112D01*
X193074Y707056D01*
X193054Y707014D01*
X193027Y706978D01*
X193003Y706904D01*
X192970Y706833D01*
X192965Y706787D01*
X192951Y706744D01*
X192951Y706666D01*
X192943Y706589D01*
X192953Y706544D01*
X192953Y706498D01*
X192991Y706366D01*
X192995Y706348D01*
X192998Y706344D01*
X193000Y706337D01*
X194203Y703433D01*
X194203Y699087D01*
X192540Y695073D01*
X189467Y692000D01*
X185453Y690337D01*
X181107Y690337D01*
X177093Y692000D01*
X174020Y695073D01*
X172357Y699087D01*
X172357Y703433D01*
X173560Y706337D01*
X173571Y706381D01*
X173590Y706423D01*
X173599Y706500D01*
X173616Y706576D01*
X173612Y706622D01*
X173617Y706667D01*
X173601Y706744D01*
X173593Y706821D01*
X173575Y706863D01*
X173565Y706908D01*
X173525Y706975D01*
X173493Y707046D01*
X173462Y707080D01*
X173439Y707119D01*
X173380Y707170D01*
X173327Y707227D01*
X173287Y707249D01*
X173252Y707279D01*
X173180Y707308D01*
X173111Y707345D01*
X173066Y707354D01*
X173024Y707371D01*
X172888Y707386D01*
X172869Y707389D01*
X172864Y707388D01*
X172857Y707389D01*
X169964Y707389D01*
X169944Y707386D01*
X169925Y707388D01*
X169823Y707366D01*
X169721Y707350D01*
X169704Y707340D01*
X169684Y707336D01*
X169595Y707283D01*
X169504Y707234D01*
X169490Y707220D01*
X169473Y707210D01*
X169406Y707131D01*
X169334Y707056D01*
X169326Y707038D01*
X169313Y707023D01*
X169274Y706927D01*
X169231Y706833D01*
X169229Y706813D01*
X169221Y706795D01*
X169203Y706628D01*
X169203Y691826D01*
X167714Y690337D01*
X148846Y690337D01*
X147357Y691826D01*
X147357Y706628D01*
X147354Y706648D01*
X147356Y706667D01*
X147334Y706769D01*
X147318Y706871D01*
X147308Y706888D01*
X147304Y706908D01*
X147251Y706997D01*
X147202Y707088D01*
X147188Y707102D01*
X147178Y707119D01*
X147099Y707186D01*
X147024Y707258D01*
X147006Y707266D01*
X146991Y707279D01*
X146895Y707318D01*
X146801Y707361D01*
X146781Y707363D01*
X146763Y707371D01*
X146596Y707389D01*
X117259Y707389D01*
X117212Y707382D01*
X117164Y707383D01*
X117091Y707362D01*
X117017Y707350D01*
X116974Y707327D01*
X116928Y707313D01*
X116866Y707270D01*
X116799Y707234D01*
X116766Y707200D01*
X116727Y707172D01*
X116682Y707111D01*
X116630Y707056D01*
X116610Y707013D01*
X116581Y706974D01*
X116558Y706902D01*
X116526Y706833D01*
X116521Y706785D01*
X116506Y706740D01*
X116507Y706664D01*
X116499Y706589D01*
X116509Y706542D01*
X116510Y706494D01*
X116535Y706422D01*
X116551Y706348D01*
X116576Y706307D01*
X116592Y706262D01*
X116639Y706202D01*
X116678Y706137D01*
X116714Y706106D01*
X116744Y706068D01*
X116847Y705992D01*
X116864Y705977D01*
X116871Y705975D01*
X116879Y705969D01*
X121887Y703078D01*
X126498Y698467D01*
X129758Y692819D01*
X131446Y686520D01*
X131446Y680000D01*
X129758Y673701D01*
X126498Y668053D01*
X121887Y663442D01*
X116239Y660182D01*
X109940Y658494D01*
X103420Y658494D01*
X97121Y660182D01*
X91473Y663442D01*
X86862Y668053D01*
X83602Y673701D01*
X81914Y680000D01*
X81914Y686520D01*
X83602Y692819D01*
X86862Y698467D01*
X91473Y703078D01*
X96481Y705969D01*
X96518Y705999D01*
X96561Y706022D01*
X96613Y706076D01*
X96672Y706125D01*
X96697Y706165D01*
X96730Y706200D01*
X96762Y706269D01*
X96802Y706333D01*
X96814Y706380D01*
X96834Y706423D01*
X96842Y706498D01*
X96860Y706572D01*
X96856Y706620D01*
X96861Y706667D01*
X96845Y706742D01*
X96838Y706817D01*
X96819Y706861D01*
X96809Y706908D01*
X96770Y706973D01*
X96739Y707042D01*
X96707Y707078D01*
X96682Y707119D01*
X96625Y707168D01*
X96574Y707224D01*
X96532Y707248D01*
X96496Y707279D01*
X96425Y707307D01*
X96359Y707344D01*
X96312Y707353D01*
X96267Y707371D01*
X96139Y707385D01*
X96117Y707389D01*
X96111Y707388D01*
X96101Y707389D01*
X78094Y707389D01*
X78004Y707375D01*
X77913Y707367D01*
X77883Y707355D01*
X77851Y707350D01*
X77770Y707307D01*
X77686Y707271D01*
X77654Y707245D01*
X77634Y707234D01*
X77611Y707211D01*
X77556Y707166D01*
X54834Y684444D01*
X54781Y684371D01*
X54721Y684301D01*
X54709Y684271D01*
X54690Y684245D01*
X54663Y684158D01*
X54629Y684073D01*
X54625Y684032D01*
X54618Y684010D01*
X54619Y683977D01*
X54611Y683906D01*
X54611Y78094D01*
X54625Y78004D01*
X54633Y77913D01*
X54645Y77883D01*
X54650Y77851D01*
X54693Y77770D01*
X54729Y77686D01*
X54755Y77654D01*
X54766Y77634D01*
X54789Y77611D01*
X54834Y77556D01*
X77556Y54834D01*
X77629Y54781D01*
X77699Y54721D01*
X77729Y54709D01*
X77755Y54690D01*
X77842Y54663D01*
X77927Y54629D01*
X77968Y54625D01*
X77990Y54618D01*
X78023Y54619D01*
X78094Y54611D01*
X937906Y54611D01*
X937996Y54625D01*
G37*
%LPC*%
G36*
X200775Y321055D02*
X200775Y321055D01*
X196293Y322912D01*
X192864Y326341D01*
X191007Y330823D01*
X191007Y354977D01*
X192864Y359459D01*
X196293Y362888D01*
X200775Y364745D01*
X205625Y364745D01*
X210107Y362888D01*
X213536Y359459D01*
X215262Y355294D01*
X215295Y355240D01*
X215319Y355182D01*
X215345Y355152D01*
X215363Y355119D01*
X215379Y355104D01*
X215391Y355085D01*
X215440Y355044D01*
X215482Y354997D01*
X215516Y354977D01*
X215543Y354952D01*
X215563Y354943D01*
X215581Y354928D01*
X215640Y354905D01*
X215694Y354874D01*
X215734Y354866D01*
X215768Y354850D01*
X215788Y354848D01*
X215810Y354840D01*
X215873Y354837D01*
X215935Y354824D01*
X215975Y354829D01*
X216012Y354826D01*
X216033Y354830D01*
X216056Y354829D01*
X216117Y354847D01*
X216180Y354855D01*
X216216Y354872D01*
X216252Y354880D01*
X216270Y354891D01*
X216292Y354898D01*
X216344Y354934D01*
X216401Y354961D01*
X216430Y354989D01*
X216462Y355009D01*
X216476Y355025D01*
X216494Y355038D01*
X216532Y355089D01*
X216577Y355133D01*
X216595Y355168D01*
X216620Y355197D01*
X216631Y355222D01*
X216641Y355235D01*
X216652Y355267D01*
X216689Y355350D01*
X216689Y355351D01*
X216690Y355352D01*
X217301Y357232D01*
X218172Y358942D01*
X219300Y360495D01*
X220657Y361852D01*
X222210Y362980D01*
X223920Y363851D01*
X225745Y364445D01*
X227077Y364655D01*
X227077Y343662D01*
X227080Y343642D01*
X227078Y343623D01*
X227100Y343521D01*
X227117Y343419D01*
X227126Y343402D01*
X227130Y343382D01*
X227183Y343293D01*
X227232Y343202D01*
X227246Y343188D01*
X227256Y343171D01*
X227335Y343104D01*
X227410Y343033D01*
X227428Y343024D01*
X227443Y343011D01*
X227539Y342973D01*
X227633Y342929D01*
X227653Y342927D01*
X227671Y342919D01*
X227838Y342901D01*
X229362Y342901D01*
X229382Y342904D01*
X229401Y342902D01*
X229503Y342924D01*
X229605Y342941D01*
X229622Y342950D01*
X229642Y342954D01*
X229731Y343007D01*
X229822Y343056D01*
X229836Y343070D01*
X229853Y343080D01*
X229920Y343159D01*
X229991Y343234D01*
X230000Y343252D01*
X230013Y343267D01*
X230052Y343363D01*
X230095Y343457D01*
X230097Y343477D01*
X230105Y343495D01*
X230123Y343662D01*
X230123Y364655D01*
X231455Y364445D01*
X233280Y363851D01*
X234990Y362980D01*
X236543Y361852D01*
X237900Y360495D01*
X239028Y358942D01*
X239899Y357232D01*
X240511Y355350D01*
X240529Y355316D01*
X240538Y355278D01*
X240573Y355225D01*
X240599Y355167D01*
X240614Y355151D01*
X240624Y355132D01*
X240651Y355105D01*
X240673Y355072D01*
X240722Y355033D01*
X240765Y354986D01*
X240785Y354975D01*
X240800Y354960D01*
X240834Y354944D01*
X240866Y354919D01*
X240925Y354898D01*
X240981Y354868D01*
X241004Y354863D01*
X241022Y354854D01*
X241059Y354850D01*
X241097Y354836D01*
X241160Y354835D01*
X241223Y354824D01*
X241246Y354827D01*
X241267Y354825D01*
X241303Y354832D01*
X241343Y354832D01*
X241403Y354851D01*
X241466Y354860D01*
X241487Y354870D01*
X241507Y354875D01*
X241540Y354893D01*
X241578Y354905D01*
X241629Y354943D01*
X241685Y354971D01*
X241702Y354988D01*
X241720Y354999D01*
X241745Y355027D01*
X241777Y355050D01*
X241813Y355102D01*
X241857Y355147D01*
X241871Y355172D01*
X241882Y355184D01*
X241894Y355212D01*
X241900Y355224D01*
X241919Y355251D01*
X241924Y355268D01*
X241938Y355294D01*
X243664Y359459D01*
X247093Y362888D01*
X251575Y364745D01*
X256425Y364745D01*
X260907Y362888D01*
X264336Y359459D01*
X265997Y355451D01*
X266034Y355390D01*
X266064Y355324D01*
X266099Y355286D01*
X266126Y355241D01*
X266181Y355196D01*
X266230Y355143D01*
X266276Y355118D01*
X266316Y355085D01*
X266383Y355059D01*
X266446Y355024D01*
X266497Y355015D01*
X266545Y354996D01*
X266617Y354993D01*
X266688Y354981D01*
X266739Y354988D01*
X266791Y354986D01*
X266860Y355006D01*
X266931Y355016D01*
X266977Y355040D01*
X267027Y355055D01*
X267086Y355095D01*
X267150Y355128D01*
X267187Y355165D01*
X267229Y355195D01*
X267272Y355252D01*
X267322Y355304D01*
X267357Y355366D01*
X267376Y355392D01*
X267383Y355414D01*
X267403Y355451D01*
X269064Y359459D01*
X272493Y362888D01*
X276975Y364745D01*
X281825Y364745D01*
X286307Y362888D01*
X289736Y359459D01*
X291397Y355451D01*
X291434Y355390D01*
X291464Y355324D01*
X291499Y355286D01*
X291526Y355241D01*
X291581Y355196D01*
X291630Y355143D01*
X291676Y355118D01*
X291716Y355085D01*
X291783Y355059D01*
X291846Y355024D01*
X291897Y355015D01*
X291945Y354996D01*
X292017Y354993D01*
X292088Y354981D01*
X292139Y354988D01*
X292191Y354986D01*
X292260Y355006D01*
X292331Y355016D01*
X292377Y355040D01*
X292427Y355055D01*
X292486Y355095D01*
X292550Y355128D01*
X292587Y355165D01*
X292629Y355195D01*
X292672Y355252D01*
X292722Y355304D01*
X292757Y355366D01*
X292776Y355392D01*
X292783Y355414D01*
X292803Y355451D01*
X294464Y359459D01*
X297893Y362888D01*
X302375Y364745D01*
X307225Y364745D01*
X311707Y362888D01*
X315136Y359459D01*
X316797Y355451D01*
X316834Y355390D01*
X316864Y355324D01*
X316899Y355286D01*
X316926Y355241D01*
X316981Y355196D01*
X317030Y355143D01*
X317076Y355118D01*
X317116Y355085D01*
X317183Y355059D01*
X317246Y355024D01*
X317297Y355015D01*
X317345Y354996D01*
X317417Y354993D01*
X317488Y354981D01*
X317539Y354988D01*
X317591Y354986D01*
X317660Y355006D01*
X317731Y355016D01*
X317777Y355040D01*
X317827Y355055D01*
X317886Y355095D01*
X317950Y355128D01*
X317987Y355165D01*
X318029Y355195D01*
X318072Y355252D01*
X318122Y355304D01*
X318157Y355366D01*
X318176Y355392D01*
X318183Y355414D01*
X318203Y355451D01*
X319864Y359459D01*
X323293Y362888D01*
X327775Y364745D01*
X332625Y364745D01*
X337107Y362888D01*
X340536Y359459D01*
X342197Y355451D01*
X342234Y355390D01*
X342264Y355324D01*
X342299Y355286D01*
X342326Y355241D01*
X342381Y355196D01*
X342430Y355143D01*
X342476Y355118D01*
X342516Y355085D01*
X342583Y355059D01*
X342646Y355024D01*
X342697Y355015D01*
X342745Y354996D01*
X342817Y354993D01*
X342888Y354981D01*
X342939Y354988D01*
X342991Y354986D01*
X343060Y355006D01*
X343131Y355016D01*
X343177Y355040D01*
X343227Y355055D01*
X343286Y355095D01*
X343350Y355128D01*
X343387Y355165D01*
X343429Y355195D01*
X343472Y355252D01*
X343522Y355304D01*
X343557Y355366D01*
X343576Y355392D01*
X343583Y355414D01*
X343603Y355451D01*
X345264Y359459D01*
X348693Y362888D01*
X353175Y364745D01*
X358025Y364745D01*
X362507Y362888D01*
X365936Y359459D01*
X367597Y355451D01*
X367634Y355390D01*
X367664Y355324D01*
X367699Y355286D01*
X367726Y355241D01*
X367781Y355196D01*
X367830Y355143D01*
X367876Y355118D01*
X367916Y355085D01*
X367983Y355059D01*
X368046Y355024D01*
X368097Y355015D01*
X368145Y354996D01*
X368217Y354993D01*
X368288Y354981D01*
X368339Y354988D01*
X368391Y354986D01*
X368460Y355006D01*
X368531Y355016D01*
X368577Y355040D01*
X368627Y355055D01*
X368686Y355095D01*
X368750Y355128D01*
X368787Y355165D01*
X368829Y355195D01*
X368872Y355252D01*
X368922Y355304D01*
X368957Y355366D01*
X368976Y355392D01*
X368983Y355414D01*
X369003Y355451D01*
X370664Y359459D01*
X374093Y362888D01*
X378575Y364745D01*
X383425Y364745D01*
X387907Y362888D01*
X391336Y359459D01*
X392997Y355451D01*
X393034Y355390D01*
X393064Y355324D01*
X393099Y355286D01*
X393126Y355241D01*
X393181Y355196D01*
X393230Y355143D01*
X393276Y355118D01*
X393316Y355085D01*
X393383Y355059D01*
X393446Y355024D01*
X393497Y355015D01*
X393545Y354996D01*
X393617Y354993D01*
X393688Y354981D01*
X393739Y354988D01*
X393791Y354986D01*
X393860Y355006D01*
X393931Y355016D01*
X393977Y355040D01*
X394027Y355055D01*
X394086Y355095D01*
X394150Y355128D01*
X394187Y355165D01*
X394229Y355195D01*
X394272Y355252D01*
X394322Y355304D01*
X394357Y355366D01*
X394376Y355392D01*
X394383Y355414D01*
X394403Y355451D01*
X396064Y359459D01*
X399493Y362888D01*
X403975Y364745D01*
X408825Y364745D01*
X413307Y362888D01*
X416736Y359459D01*
X418397Y355451D01*
X418434Y355390D01*
X418464Y355324D01*
X418499Y355286D01*
X418526Y355241D01*
X418581Y355196D01*
X418630Y355143D01*
X418676Y355118D01*
X418716Y355085D01*
X418783Y355059D01*
X418846Y355024D01*
X418897Y355015D01*
X418945Y354996D01*
X419017Y354993D01*
X419088Y354981D01*
X419139Y354988D01*
X419191Y354986D01*
X419260Y355006D01*
X419331Y355016D01*
X419377Y355040D01*
X419427Y355055D01*
X419486Y355095D01*
X419550Y355128D01*
X419587Y355165D01*
X419629Y355195D01*
X419672Y355252D01*
X419722Y355304D01*
X419757Y355366D01*
X419776Y355392D01*
X419783Y355414D01*
X419803Y355451D01*
X421464Y359459D01*
X424893Y362888D01*
X429375Y364745D01*
X434225Y364745D01*
X438707Y362888D01*
X442136Y359459D01*
X443797Y355451D01*
X443834Y355390D01*
X443864Y355324D01*
X443899Y355286D01*
X443926Y355241D01*
X443981Y355196D01*
X444030Y355143D01*
X444076Y355118D01*
X444116Y355085D01*
X444183Y355059D01*
X444246Y355024D01*
X444297Y355015D01*
X444345Y354996D01*
X444417Y354993D01*
X444488Y354981D01*
X444539Y354988D01*
X444591Y354986D01*
X444660Y355006D01*
X444731Y355016D01*
X444777Y355040D01*
X444827Y355055D01*
X444886Y355095D01*
X444950Y355128D01*
X444987Y355165D01*
X445029Y355195D01*
X445072Y355252D01*
X445122Y355304D01*
X445157Y355366D01*
X445176Y355392D01*
X445183Y355414D01*
X445203Y355451D01*
X446864Y359459D01*
X450293Y362888D01*
X454775Y364745D01*
X459625Y364745D01*
X464107Y362888D01*
X467536Y359459D01*
X469197Y355451D01*
X469234Y355390D01*
X469264Y355324D01*
X469299Y355286D01*
X469326Y355241D01*
X469381Y355196D01*
X469430Y355143D01*
X469476Y355118D01*
X469516Y355085D01*
X469583Y355059D01*
X469646Y355024D01*
X469697Y355015D01*
X469745Y354996D01*
X469817Y354993D01*
X469888Y354981D01*
X469939Y354988D01*
X469991Y354986D01*
X470060Y355006D01*
X470131Y355016D01*
X470177Y355040D01*
X470227Y355055D01*
X470286Y355095D01*
X470350Y355128D01*
X470387Y355165D01*
X470429Y355195D01*
X470472Y355252D01*
X470522Y355304D01*
X470557Y355366D01*
X470576Y355392D01*
X470583Y355414D01*
X470603Y355451D01*
X472264Y359459D01*
X475693Y362888D01*
X480175Y364745D01*
X485025Y364745D01*
X489507Y362888D01*
X492936Y359459D01*
X494597Y355451D01*
X494634Y355390D01*
X494664Y355324D01*
X494699Y355286D01*
X494726Y355241D01*
X494781Y355196D01*
X494830Y355143D01*
X494876Y355118D01*
X494916Y355085D01*
X494983Y355059D01*
X495046Y355024D01*
X495097Y355015D01*
X495145Y354996D01*
X495217Y354993D01*
X495288Y354981D01*
X495339Y354988D01*
X495391Y354986D01*
X495460Y355006D01*
X495531Y355016D01*
X495577Y355040D01*
X495627Y355055D01*
X495686Y355095D01*
X495750Y355128D01*
X495787Y355165D01*
X495829Y355195D01*
X495872Y355252D01*
X495922Y355304D01*
X495957Y355366D01*
X495976Y355392D01*
X495983Y355414D01*
X496003Y355451D01*
X497664Y359459D01*
X501093Y362888D01*
X505575Y364745D01*
X510425Y364745D01*
X514907Y362888D01*
X518336Y359459D01*
X519997Y355451D01*
X520034Y355390D01*
X520064Y355324D01*
X520099Y355286D01*
X520126Y355241D01*
X520181Y355196D01*
X520230Y355143D01*
X520276Y355118D01*
X520316Y355085D01*
X520383Y355059D01*
X520446Y355024D01*
X520497Y355015D01*
X520545Y354996D01*
X520617Y354993D01*
X520688Y354981D01*
X520739Y354988D01*
X520791Y354986D01*
X520860Y355006D01*
X520931Y355016D01*
X520977Y355040D01*
X521027Y355055D01*
X521086Y355095D01*
X521150Y355128D01*
X521187Y355165D01*
X521229Y355195D01*
X521272Y355252D01*
X521322Y355304D01*
X521357Y355366D01*
X521376Y355392D01*
X521383Y355414D01*
X521403Y355451D01*
X523064Y359459D01*
X526493Y362888D01*
X530975Y364745D01*
X535825Y364745D01*
X540307Y362888D01*
X543736Y359459D01*
X545462Y355294D01*
X545495Y355240D01*
X545519Y355182D01*
X545545Y355152D01*
X545563Y355119D01*
X545579Y355104D01*
X545591Y355085D01*
X545640Y355044D01*
X545682Y354997D01*
X545716Y354977D01*
X545743Y354952D01*
X545763Y354943D01*
X545781Y354928D01*
X545840Y354905D01*
X545894Y354874D01*
X545934Y354866D01*
X545968Y354850D01*
X545988Y354848D01*
X546010Y354840D01*
X546073Y354837D01*
X546135Y354824D01*
X546175Y354829D01*
X546212Y354826D01*
X546233Y354830D01*
X546256Y354829D01*
X546317Y354847D01*
X546380Y354855D01*
X546416Y354872D01*
X546452Y354880D01*
X546470Y354891D01*
X546492Y354898D01*
X546544Y354934D01*
X546601Y354961D01*
X546630Y354989D01*
X546662Y355009D01*
X546676Y355025D01*
X546694Y355038D01*
X546732Y355089D01*
X546777Y355133D01*
X546795Y355168D01*
X546820Y355197D01*
X546831Y355222D01*
X546841Y355235D01*
X546852Y355267D01*
X546889Y355350D01*
X546889Y355351D01*
X546890Y355352D01*
X547501Y357232D01*
X548372Y358942D01*
X549500Y360495D01*
X550857Y361852D01*
X552410Y362980D01*
X554120Y363851D01*
X555945Y364445D01*
X557277Y364655D01*
X557277Y343662D01*
X557280Y343642D01*
X557278Y343623D01*
X557300Y343521D01*
X557317Y343419D01*
X557326Y343402D01*
X557330Y343382D01*
X557383Y343293D01*
X557432Y343202D01*
X557446Y343188D01*
X557456Y343171D01*
X557535Y343104D01*
X557610Y343033D01*
X557628Y343024D01*
X557643Y343011D01*
X557739Y342973D01*
X557833Y342929D01*
X557853Y342927D01*
X557871Y342919D01*
X558038Y342901D01*
X559562Y342901D01*
X559582Y342904D01*
X559601Y342902D01*
X559703Y342924D01*
X559805Y342941D01*
X559822Y342950D01*
X559842Y342954D01*
X559931Y343007D01*
X560022Y343056D01*
X560036Y343070D01*
X560053Y343080D01*
X560120Y343159D01*
X560191Y343234D01*
X560200Y343252D01*
X560213Y343267D01*
X560252Y343363D01*
X560295Y343457D01*
X560297Y343477D01*
X560305Y343495D01*
X560323Y343662D01*
X560323Y364655D01*
X561655Y364445D01*
X563480Y363851D01*
X565190Y362980D01*
X566743Y361852D01*
X568100Y360495D01*
X569228Y358942D01*
X570099Y357232D01*
X570711Y355350D01*
X570729Y355316D01*
X570738Y355278D01*
X570773Y355225D01*
X570799Y355167D01*
X570814Y355151D01*
X570824Y355132D01*
X570851Y355105D01*
X570873Y355072D01*
X570922Y355033D01*
X570965Y354986D01*
X570985Y354975D01*
X571000Y354960D01*
X571034Y354944D01*
X571066Y354919D01*
X571125Y354898D01*
X571181Y354868D01*
X571204Y354863D01*
X571222Y354854D01*
X571259Y354850D01*
X571297Y354836D01*
X571360Y354835D01*
X571423Y354824D01*
X571446Y354827D01*
X571467Y354825D01*
X571503Y354832D01*
X571543Y354832D01*
X571603Y354851D01*
X571666Y354860D01*
X571687Y354870D01*
X571707Y354875D01*
X571740Y354893D01*
X571778Y354905D01*
X571829Y354943D01*
X571885Y354971D01*
X571902Y354988D01*
X571920Y354999D01*
X571945Y355027D01*
X571977Y355050D01*
X572013Y355102D01*
X572057Y355147D01*
X572071Y355172D01*
X572082Y355184D01*
X572094Y355212D01*
X572100Y355224D01*
X572119Y355251D01*
X572124Y355268D01*
X572138Y355294D01*
X573864Y359459D01*
X577293Y362888D01*
X581775Y364745D01*
X586625Y364745D01*
X591107Y362888D01*
X594536Y359459D01*
X596393Y354977D01*
X596393Y330823D01*
X594536Y326341D01*
X591107Y322912D01*
X586625Y321055D01*
X581775Y321055D01*
X577293Y322912D01*
X573864Y326341D01*
X572138Y330506D01*
X572105Y330560D01*
X572081Y330618D01*
X572055Y330648D01*
X572037Y330681D01*
X572021Y330696D01*
X572009Y330715D01*
X571960Y330756D01*
X571918Y330803D01*
X571884Y330823D01*
X571857Y330848D01*
X571837Y330857D01*
X571819Y330872D01*
X571760Y330895D01*
X571706Y330926D01*
X571666Y330934D01*
X571632Y330950D01*
X571612Y330952D01*
X571590Y330960D01*
X571527Y330963D01*
X571465Y330976D01*
X571425Y330971D01*
X571388Y330974D01*
X571367Y330970D01*
X571344Y330971D01*
X571283Y330953D01*
X571220Y330945D01*
X571184Y330928D01*
X571148Y330920D01*
X571130Y330909D01*
X571108Y330902D01*
X571056Y330866D01*
X570999Y330839D01*
X570970Y330811D01*
X570938Y330791D01*
X570924Y330775D01*
X570906Y330762D01*
X570868Y330711D01*
X570823Y330667D01*
X570805Y330632D01*
X570780Y330603D01*
X570769Y330578D01*
X570759Y330565D01*
X570748Y330533D01*
X570711Y330450D01*
X570711Y330449D01*
X570710Y330448D01*
X570099Y328568D01*
X569228Y326858D01*
X568100Y325305D01*
X566743Y323948D01*
X565190Y322820D01*
X563480Y321949D01*
X561655Y321355D01*
X560323Y321145D01*
X560323Y342138D01*
X560320Y342158D01*
X560322Y342177D01*
X560300Y342279D01*
X560283Y342381D01*
X560274Y342398D01*
X560270Y342418D01*
X560217Y342507D01*
X560168Y342598D01*
X560154Y342612D01*
X560144Y342629D01*
X560065Y342696D01*
X559990Y342767D01*
X559972Y342776D01*
X559957Y342789D01*
X559861Y342827D01*
X559767Y342871D01*
X559747Y342873D01*
X559729Y342881D01*
X559562Y342899D01*
X558038Y342899D01*
X558018Y342896D01*
X557999Y342898D01*
X557897Y342876D01*
X557795Y342859D01*
X557778Y342850D01*
X557758Y342846D01*
X557669Y342793D01*
X557578Y342744D01*
X557564Y342730D01*
X557547Y342720D01*
X557480Y342641D01*
X557409Y342566D01*
X557400Y342548D01*
X557387Y342533D01*
X557348Y342437D01*
X557305Y342343D01*
X557303Y342323D01*
X557295Y342305D01*
X557277Y342138D01*
X557277Y321145D01*
X555945Y321355D01*
X554120Y321949D01*
X552410Y322820D01*
X550857Y323948D01*
X549500Y325305D01*
X548372Y326858D01*
X547501Y328568D01*
X546889Y330450D01*
X546884Y330460D01*
X546883Y330463D01*
X546876Y330475D01*
X546871Y330484D01*
X546862Y330522D01*
X546827Y330575D01*
X546801Y330633D01*
X546786Y330649D01*
X546776Y330668D01*
X546749Y330695D01*
X546727Y330728D01*
X546678Y330767D01*
X546635Y330814D01*
X546615Y330825D01*
X546600Y330840D01*
X546566Y330856D01*
X546534Y330881D01*
X546475Y330902D01*
X546419Y330932D01*
X546396Y330937D01*
X546378Y330946D01*
X546341Y330950D01*
X546303Y330964D01*
X546240Y330965D01*
X546177Y330976D01*
X546154Y330973D01*
X546133Y330975D01*
X546097Y330968D01*
X546057Y330968D01*
X545997Y330949D01*
X545934Y330940D01*
X545913Y330930D01*
X545893Y330925D01*
X545860Y330907D01*
X545822Y330895D01*
X545771Y330857D01*
X545715Y330829D01*
X545698Y330812D01*
X545680Y330801D01*
X545655Y330773D01*
X545623Y330750D01*
X545587Y330698D01*
X545543Y330653D01*
X545529Y330628D01*
X545518Y330616D01*
X545506Y330588D01*
X545500Y330576D01*
X545481Y330549D01*
X545476Y330532D01*
X545462Y330506D01*
X543736Y326341D01*
X540307Y322912D01*
X535825Y321055D01*
X530975Y321055D01*
X526493Y322912D01*
X523064Y326341D01*
X521403Y330349D01*
X521365Y330410D01*
X521336Y330476D01*
X521301Y330514D01*
X521274Y330559D01*
X521218Y330604D01*
X521170Y330657D01*
X521124Y330682D01*
X521084Y330715D01*
X521017Y330741D01*
X520954Y330776D01*
X520903Y330785D01*
X520855Y330804D01*
X520783Y330807D01*
X520712Y330819D01*
X520661Y330812D01*
X520609Y330814D01*
X520540Y330794D01*
X520469Y330784D01*
X520423Y330760D01*
X520373Y330745D01*
X520314Y330705D01*
X520250Y330672D01*
X520213Y330635D01*
X520171Y330605D01*
X520128Y330548D01*
X520078Y330496D01*
X520043Y330434D01*
X520024Y330408D01*
X520017Y330386D01*
X519997Y330349D01*
X518336Y326341D01*
X514907Y322912D01*
X510425Y321055D01*
X505575Y321055D01*
X501093Y322912D01*
X497664Y326341D01*
X496003Y330349D01*
X495965Y330410D01*
X495936Y330476D01*
X495901Y330514D01*
X495874Y330559D01*
X495818Y330604D01*
X495770Y330657D01*
X495724Y330682D01*
X495684Y330715D01*
X495617Y330741D01*
X495554Y330776D01*
X495503Y330785D01*
X495455Y330804D01*
X495383Y330807D01*
X495312Y330819D01*
X495261Y330812D01*
X495209Y330814D01*
X495140Y330794D01*
X495069Y330784D01*
X495023Y330760D01*
X494973Y330745D01*
X494914Y330705D01*
X494850Y330672D01*
X494813Y330635D01*
X494771Y330605D01*
X494728Y330548D01*
X494678Y330496D01*
X494643Y330434D01*
X494624Y330408D01*
X494617Y330386D01*
X494597Y330349D01*
X492936Y326341D01*
X489507Y322912D01*
X485025Y321055D01*
X480175Y321055D01*
X475693Y322912D01*
X472264Y326341D01*
X470603Y330349D01*
X470565Y330410D01*
X470536Y330476D01*
X470501Y330514D01*
X470474Y330559D01*
X470418Y330604D01*
X470370Y330657D01*
X470324Y330682D01*
X470284Y330715D01*
X470217Y330741D01*
X470154Y330776D01*
X470103Y330785D01*
X470055Y330804D01*
X469983Y330807D01*
X469912Y330819D01*
X469861Y330812D01*
X469809Y330814D01*
X469740Y330794D01*
X469669Y330784D01*
X469623Y330760D01*
X469573Y330745D01*
X469514Y330705D01*
X469450Y330672D01*
X469413Y330635D01*
X469371Y330605D01*
X469328Y330548D01*
X469278Y330496D01*
X469243Y330434D01*
X469224Y330408D01*
X469217Y330386D01*
X469197Y330349D01*
X467536Y326341D01*
X464107Y322912D01*
X459625Y321055D01*
X454775Y321055D01*
X450293Y322912D01*
X446864Y326341D01*
X445203Y330349D01*
X445165Y330410D01*
X445136Y330476D01*
X445101Y330514D01*
X445074Y330559D01*
X445018Y330604D01*
X444970Y330657D01*
X444924Y330682D01*
X444884Y330715D01*
X444817Y330741D01*
X444754Y330776D01*
X444703Y330785D01*
X444655Y330804D01*
X444583Y330807D01*
X444512Y330819D01*
X444461Y330812D01*
X444409Y330814D01*
X444340Y330794D01*
X444269Y330784D01*
X444223Y330760D01*
X444173Y330745D01*
X444114Y330705D01*
X444050Y330672D01*
X444013Y330635D01*
X443971Y330605D01*
X443928Y330548D01*
X443878Y330496D01*
X443843Y330434D01*
X443824Y330408D01*
X443817Y330386D01*
X443797Y330349D01*
X442136Y326341D01*
X438707Y322912D01*
X434225Y321055D01*
X429375Y321055D01*
X424893Y322912D01*
X421464Y326341D01*
X419803Y330349D01*
X419765Y330410D01*
X419736Y330476D01*
X419701Y330514D01*
X419674Y330559D01*
X419618Y330604D01*
X419570Y330657D01*
X419524Y330682D01*
X419484Y330715D01*
X419417Y330741D01*
X419354Y330776D01*
X419303Y330785D01*
X419255Y330804D01*
X419183Y330807D01*
X419112Y330819D01*
X419061Y330812D01*
X419009Y330814D01*
X418940Y330794D01*
X418869Y330784D01*
X418823Y330760D01*
X418773Y330745D01*
X418714Y330705D01*
X418650Y330672D01*
X418613Y330635D01*
X418571Y330605D01*
X418528Y330548D01*
X418478Y330496D01*
X418443Y330434D01*
X418424Y330408D01*
X418417Y330386D01*
X418397Y330349D01*
X416736Y326341D01*
X413307Y322912D01*
X408825Y321055D01*
X403975Y321055D01*
X399493Y322912D01*
X396064Y326341D01*
X394403Y330349D01*
X394365Y330410D01*
X394336Y330476D01*
X394301Y330514D01*
X394274Y330559D01*
X394218Y330604D01*
X394170Y330657D01*
X394124Y330682D01*
X394084Y330715D01*
X394017Y330741D01*
X393954Y330776D01*
X393903Y330785D01*
X393855Y330804D01*
X393783Y330807D01*
X393712Y330819D01*
X393661Y330812D01*
X393609Y330814D01*
X393540Y330794D01*
X393469Y330784D01*
X393423Y330760D01*
X393373Y330745D01*
X393314Y330705D01*
X393250Y330672D01*
X393213Y330635D01*
X393171Y330605D01*
X393128Y330548D01*
X393078Y330496D01*
X393043Y330434D01*
X393024Y330408D01*
X393017Y330386D01*
X392997Y330349D01*
X391336Y326341D01*
X387907Y322912D01*
X383425Y321055D01*
X378575Y321055D01*
X374093Y322912D01*
X370664Y326341D01*
X369003Y330349D01*
X368965Y330410D01*
X368936Y330476D01*
X368901Y330514D01*
X368874Y330559D01*
X368818Y330604D01*
X368770Y330657D01*
X368724Y330682D01*
X368684Y330715D01*
X368617Y330741D01*
X368554Y330776D01*
X368503Y330785D01*
X368455Y330804D01*
X368383Y330807D01*
X368312Y330819D01*
X368261Y330812D01*
X368209Y330814D01*
X368140Y330794D01*
X368069Y330784D01*
X368023Y330760D01*
X367973Y330745D01*
X367914Y330705D01*
X367850Y330672D01*
X367813Y330635D01*
X367771Y330605D01*
X367728Y330548D01*
X367678Y330496D01*
X367643Y330434D01*
X367624Y330408D01*
X367617Y330386D01*
X367597Y330349D01*
X365936Y326341D01*
X362507Y322912D01*
X358025Y321055D01*
X353175Y321055D01*
X348693Y322912D01*
X345264Y326341D01*
X343603Y330349D01*
X343565Y330410D01*
X343536Y330476D01*
X343501Y330514D01*
X343474Y330559D01*
X343418Y330604D01*
X343370Y330657D01*
X343324Y330682D01*
X343284Y330715D01*
X343217Y330741D01*
X343154Y330776D01*
X343103Y330785D01*
X343055Y330804D01*
X342983Y330807D01*
X342912Y330819D01*
X342861Y330812D01*
X342809Y330814D01*
X342740Y330794D01*
X342669Y330784D01*
X342623Y330760D01*
X342573Y330745D01*
X342514Y330705D01*
X342450Y330672D01*
X342413Y330635D01*
X342371Y330605D01*
X342328Y330548D01*
X342278Y330496D01*
X342243Y330434D01*
X342224Y330408D01*
X342217Y330386D01*
X342197Y330349D01*
X340536Y326341D01*
X337107Y322912D01*
X332625Y321055D01*
X327775Y321055D01*
X323293Y322912D01*
X319864Y326341D01*
X318203Y330349D01*
X318165Y330410D01*
X318136Y330476D01*
X318101Y330514D01*
X318074Y330559D01*
X318018Y330604D01*
X317970Y330657D01*
X317924Y330682D01*
X317884Y330715D01*
X317817Y330741D01*
X317754Y330776D01*
X317703Y330785D01*
X317655Y330804D01*
X317583Y330807D01*
X317512Y330819D01*
X317461Y330812D01*
X317409Y330814D01*
X317340Y330794D01*
X317269Y330784D01*
X317223Y330760D01*
X317173Y330745D01*
X317114Y330705D01*
X317050Y330672D01*
X317013Y330635D01*
X316971Y330605D01*
X316928Y330548D01*
X316878Y330496D01*
X316843Y330434D01*
X316824Y330408D01*
X316817Y330386D01*
X316797Y330349D01*
X315136Y326341D01*
X311707Y322912D01*
X307225Y321055D01*
X302375Y321055D01*
X297893Y322912D01*
X294464Y326341D01*
X292803Y330349D01*
X292765Y330410D01*
X292736Y330476D01*
X292701Y330514D01*
X292674Y330559D01*
X292618Y330604D01*
X292570Y330657D01*
X292524Y330682D01*
X292484Y330715D01*
X292417Y330741D01*
X292354Y330776D01*
X292303Y330785D01*
X292255Y330804D01*
X292183Y330807D01*
X292112Y330819D01*
X292061Y330812D01*
X292009Y330814D01*
X291940Y330794D01*
X291869Y330784D01*
X291823Y330760D01*
X291773Y330745D01*
X291714Y330705D01*
X291650Y330672D01*
X291613Y330635D01*
X291571Y330605D01*
X291528Y330548D01*
X291478Y330496D01*
X291443Y330434D01*
X291424Y330408D01*
X291417Y330386D01*
X291397Y330349D01*
X289736Y326341D01*
X286307Y322912D01*
X281825Y321055D01*
X276975Y321055D01*
X272493Y322912D01*
X269064Y326341D01*
X267403Y330349D01*
X267365Y330410D01*
X267336Y330476D01*
X267301Y330514D01*
X267274Y330559D01*
X267218Y330604D01*
X267170Y330657D01*
X267124Y330682D01*
X267084Y330715D01*
X267017Y330741D01*
X266954Y330776D01*
X266903Y330785D01*
X266855Y330804D01*
X266783Y330807D01*
X266712Y330819D01*
X266661Y330812D01*
X266609Y330814D01*
X266540Y330794D01*
X266469Y330784D01*
X266423Y330760D01*
X266373Y330745D01*
X266314Y330705D01*
X266250Y330672D01*
X266213Y330635D01*
X266171Y330605D01*
X266128Y330548D01*
X266078Y330496D01*
X266043Y330434D01*
X266024Y330408D01*
X266017Y330386D01*
X265997Y330349D01*
X264336Y326341D01*
X260907Y322912D01*
X256425Y321055D01*
X251575Y321055D01*
X247093Y322912D01*
X243664Y326341D01*
X241938Y330506D01*
X241905Y330560D01*
X241881Y330618D01*
X241855Y330648D01*
X241837Y330681D01*
X241821Y330696D01*
X241809Y330715D01*
X241760Y330756D01*
X241718Y330803D01*
X241684Y330823D01*
X241657Y330848D01*
X241637Y330857D01*
X241619Y330872D01*
X241560Y330895D01*
X241506Y330926D01*
X241466Y330934D01*
X241432Y330950D01*
X241412Y330952D01*
X241390Y330960D01*
X241327Y330963D01*
X241265Y330976D01*
X241225Y330971D01*
X241188Y330974D01*
X241167Y330970D01*
X241144Y330971D01*
X241083Y330953D01*
X241020Y330945D01*
X240984Y330928D01*
X240948Y330920D01*
X240930Y330909D01*
X240908Y330902D01*
X240856Y330866D01*
X240799Y330839D01*
X240770Y330811D01*
X240738Y330791D01*
X240724Y330775D01*
X240706Y330762D01*
X240668Y330711D01*
X240623Y330667D01*
X240605Y330632D01*
X240580Y330603D01*
X240569Y330578D01*
X240559Y330565D01*
X240548Y330533D01*
X240511Y330450D01*
X240511Y330449D01*
X240510Y330448D01*
X239899Y328568D01*
X239028Y326858D01*
X237900Y325305D01*
X236543Y323948D01*
X234990Y322820D01*
X233280Y321949D01*
X231455Y321355D01*
X230123Y321145D01*
X230123Y342138D01*
X230120Y342158D01*
X230122Y342177D01*
X230100Y342279D01*
X230083Y342381D01*
X230074Y342398D01*
X230070Y342418D01*
X230017Y342507D01*
X229968Y342598D01*
X229954Y342612D01*
X229944Y342629D01*
X229865Y342696D01*
X229790Y342767D01*
X229772Y342776D01*
X229757Y342789D01*
X229661Y342827D01*
X229567Y342871D01*
X229547Y342873D01*
X229529Y342881D01*
X229362Y342899D01*
X227838Y342899D01*
X227818Y342896D01*
X227799Y342898D01*
X227697Y342876D01*
X227595Y342859D01*
X227578Y342850D01*
X227558Y342846D01*
X227469Y342793D01*
X227378Y342744D01*
X227364Y342730D01*
X227347Y342720D01*
X227280Y342641D01*
X227209Y342566D01*
X227200Y342548D01*
X227187Y342533D01*
X227148Y342437D01*
X227105Y342343D01*
X227103Y342323D01*
X227095Y342305D01*
X227077Y342138D01*
X227077Y321145D01*
X225745Y321355D01*
X223920Y321949D01*
X222210Y322820D01*
X220657Y323948D01*
X219300Y325305D01*
X218172Y326858D01*
X217301Y328568D01*
X216689Y330450D01*
X216684Y330460D01*
X216683Y330463D01*
X216676Y330475D01*
X216671Y330484D01*
X216662Y330522D01*
X216627Y330575D01*
X216601Y330633D01*
X216586Y330649D01*
X216576Y330668D01*
X216549Y330695D01*
X216527Y330728D01*
X216478Y330767D01*
X216435Y330814D01*
X216415Y330825D01*
X216400Y330840D01*
X216366Y330856D01*
X216334Y330881D01*
X216275Y330902D01*
X216219Y330932D01*
X216196Y330937D01*
X216178Y330946D01*
X216141Y330950D01*
X216103Y330964D01*
X216040Y330965D01*
X215977Y330976D01*
X215954Y330973D01*
X215933Y330975D01*
X215897Y330968D01*
X215857Y330968D01*
X215797Y330949D01*
X215734Y330940D01*
X215713Y330930D01*
X215693Y330925D01*
X215660Y330907D01*
X215622Y330895D01*
X215571Y330857D01*
X215515Y330829D01*
X215498Y330812D01*
X215480Y330801D01*
X215455Y330773D01*
X215423Y330750D01*
X215387Y330698D01*
X215343Y330653D01*
X215329Y330628D01*
X215318Y330616D01*
X215306Y330588D01*
X215300Y330576D01*
X215281Y330549D01*
X215276Y330532D01*
X215262Y330506D01*
X213536Y326341D01*
X210107Y322912D01*
X205625Y321055D01*
X200775Y321055D01*
G37*
%LPD*%
%LPC*%
G36*
X306620Y404494D02*
X306620Y404494D01*
X300321Y406182D01*
X294673Y409442D01*
X290062Y414053D01*
X286802Y419701D01*
X285114Y426000D01*
X285114Y432520D01*
X286802Y438819D01*
X290062Y444467D01*
X294673Y449078D01*
X300321Y452338D01*
X306620Y454026D01*
X313140Y454026D01*
X319439Y452338D01*
X325087Y449078D01*
X329698Y444467D01*
X332958Y438819D01*
X334646Y432520D01*
X334646Y426000D01*
X332958Y419701D01*
X329698Y414053D01*
X325087Y409442D01*
X319439Y406182D01*
X313140Y404494D01*
X306620Y404494D01*
G37*
%LPD*%
%LPC*%
G36*
X103420Y404494D02*
X103420Y404494D01*
X97121Y406182D01*
X91473Y409442D01*
X86862Y414053D01*
X83602Y419701D01*
X81914Y426000D01*
X81914Y432520D01*
X83602Y438819D01*
X86862Y444467D01*
X91473Y449078D01*
X97121Y452338D01*
X103420Y454026D01*
X109940Y454026D01*
X116239Y452338D01*
X121887Y449078D01*
X126498Y444467D01*
X129758Y438819D01*
X131446Y432520D01*
X131446Y426000D01*
X129758Y419701D01*
X126498Y414053D01*
X121887Y409442D01*
X116239Y406182D01*
X109940Y404494D01*
X103420Y404494D01*
G37*
%LPD*%
%LPC*%
G36*
X919952Y401319D02*
X919952Y401319D01*
X918463Y402808D01*
X918463Y409992D01*
X920018Y411547D01*
X920071Y411621D01*
X920131Y411691D01*
X920143Y411721D01*
X920162Y411747D01*
X920189Y411834D01*
X920223Y411919D01*
X920227Y411960D01*
X920234Y411982D01*
X920233Y412014D01*
X920241Y412086D01*
X920241Y420537D01*
X920234Y420582D01*
X920236Y420628D01*
X920214Y420703D01*
X920202Y420780D01*
X920180Y420820D01*
X920167Y420864D01*
X920123Y420928D01*
X920086Y420997D01*
X920053Y421029D01*
X920027Y421066D01*
X919964Y421113D01*
X919908Y421166D01*
X919866Y421186D01*
X919830Y421213D01*
X919756Y421237D01*
X919685Y421270D01*
X919639Y421275D01*
X919596Y421289D01*
X919518Y421289D01*
X919441Y421297D01*
X919396Y421287D01*
X919350Y421287D01*
X919218Y421249D01*
X919200Y421245D01*
X919196Y421242D01*
X919189Y421240D01*
X915855Y419859D01*
X910945Y419859D01*
X906410Y421738D01*
X902938Y425210D01*
X901059Y429745D01*
X901059Y434655D01*
X902938Y439190D01*
X906410Y442662D01*
X910945Y444541D01*
X915855Y444541D01*
X920390Y442662D01*
X923869Y439184D01*
X923908Y439120D01*
X923954Y439034D01*
X923972Y439016D01*
X923986Y438994D01*
X924061Y438932D01*
X924132Y438865D01*
X924156Y438854D01*
X924176Y438837D01*
X924267Y438802D01*
X924355Y438761D01*
X924381Y438758D01*
X924405Y438749D01*
X924503Y438745D01*
X924599Y438734D01*
X924625Y438740D01*
X924651Y438739D01*
X924744Y438766D01*
X924840Y438786D01*
X924862Y438800D01*
X924887Y438807D01*
X924967Y438863D01*
X925051Y438913D01*
X925068Y438932D01*
X925089Y438947D01*
X925147Y439025D01*
X925211Y439100D01*
X925221Y439124D01*
X925236Y439145D01*
X925266Y439237D01*
X925303Y439328D01*
X925306Y439360D01*
X925312Y439378D01*
X925312Y439411D01*
X925321Y439494D01*
X925321Y453274D01*
X925307Y453364D01*
X925299Y453455D01*
X925287Y453485D01*
X925282Y453517D01*
X925239Y453598D01*
X925203Y453682D01*
X925177Y453714D01*
X925166Y453734D01*
X925143Y453757D01*
X925098Y453812D01*
X922442Y456468D01*
X922369Y456521D01*
X922299Y456581D01*
X922269Y456593D01*
X922243Y456612D01*
X922156Y456639D01*
X922071Y456673D01*
X922030Y456677D01*
X922008Y456684D01*
X921975Y456683D01*
X921904Y456691D01*
X920908Y456691D01*
X918854Y457542D01*
X917282Y459114D01*
X916431Y461168D01*
X916431Y463392D01*
X917282Y465446D01*
X918854Y467018D01*
X920908Y467869D01*
X923132Y467869D01*
X925186Y467018D01*
X926758Y465446D01*
X927609Y463392D01*
X927609Y462396D01*
X927623Y462306D01*
X927631Y462215D01*
X927643Y462185D01*
X927648Y462153D01*
X927691Y462072D01*
X927727Y461988D01*
X927753Y461956D01*
X927764Y461936D01*
X927787Y461913D01*
X927832Y461858D01*
X932943Y456746D01*
X932943Y425142D01*
X928086Y420284D01*
X928033Y420211D01*
X927973Y420141D01*
X927961Y420111D01*
X927942Y420085D01*
X927915Y419998D01*
X927881Y419913D01*
X927877Y419872D01*
X927870Y419850D01*
X927871Y419817D01*
X927863Y419746D01*
X927863Y412086D01*
X927877Y411996D01*
X927885Y411905D01*
X927897Y411875D01*
X927902Y411843D01*
X927945Y411763D01*
X927981Y411678D01*
X928007Y411646D01*
X928018Y411626D01*
X928041Y411603D01*
X928086Y411547D01*
X929102Y410531D01*
X929118Y410520D01*
X929130Y410504D01*
X929218Y410448D01*
X929301Y410388D01*
X929320Y410382D01*
X929337Y410371D01*
X929438Y410346D01*
X929537Y410316D01*
X929556Y410316D01*
X929576Y410311D01*
X929679Y410319D01*
X929782Y410322D01*
X929801Y410329D01*
X929821Y410330D01*
X929916Y410371D01*
X930013Y410406D01*
X930029Y410419D01*
X930047Y410427D01*
X930178Y410531D01*
X930620Y410973D01*
X931199Y411308D01*
X931846Y411481D01*
X933959Y411481D01*
X933959Y406908D01*
X933962Y406889D01*
X933960Y406869D01*
X933982Y406767D01*
X933998Y406665D01*
X934008Y406648D01*
X934012Y406628D01*
X934065Y406539D01*
X934114Y406448D01*
X934128Y406434D01*
X934138Y406417D01*
X934163Y406396D01*
X934162Y406395D01*
X934090Y406320D01*
X934082Y406302D01*
X934069Y406287D01*
X934030Y406190D01*
X933987Y406097D01*
X933985Y406077D01*
X933977Y406059D01*
X933959Y405892D01*
X933959Y401319D01*
X931846Y401319D01*
X931199Y401492D01*
X930620Y401827D01*
X930178Y402269D01*
X930162Y402280D01*
X930150Y402296D01*
X930062Y402352D01*
X929979Y402412D01*
X929960Y402418D01*
X929943Y402429D01*
X929842Y402454D01*
X929743Y402484D01*
X929724Y402484D01*
X929704Y402489D01*
X929601Y402481D01*
X929498Y402478D01*
X929479Y402471D01*
X929459Y402470D01*
X929364Y402429D01*
X929267Y402394D01*
X929251Y402381D01*
X929233Y402373D01*
X929102Y402269D01*
X928152Y401319D01*
X919952Y401319D01*
G37*
%LPD*%
%LPC*%
G36*
X582132Y398779D02*
X582132Y398779D01*
X580643Y400268D01*
X580643Y407452D01*
X582198Y409007D01*
X582251Y409081D01*
X582311Y409151D01*
X582323Y409181D01*
X582342Y409207D01*
X582369Y409294D01*
X582403Y409379D01*
X582407Y409420D01*
X582414Y409442D01*
X582413Y409474D01*
X582421Y409546D01*
X582421Y424906D01*
X582406Y425002D01*
X582396Y425099D01*
X582386Y425123D01*
X582382Y425148D01*
X582336Y425234D01*
X582296Y425323D01*
X582279Y425343D01*
X582266Y425366D01*
X582196Y425433D01*
X582130Y425505D01*
X582107Y425517D01*
X582088Y425535D01*
X582000Y425576D01*
X581914Y425623D01*
X581889Y425628D01*
X581865Y425639D01*
X581768Y425649D01*
X581672Y425667D01*
X581646Y425663D01*
X581621Y425666D01*
X581525Y425645D01*
X581429Y425631D01*
X581406Y425619D01*
X581380Y425614D01*
X581297Y425564D01*
X581210Y425519D01*
X581191Y425501D01*
X581169Y425487D01*
X581106Y425413D01*
X581038Y425344D01*
X581022Y425315D01*
X581009Y425300D01*
X580997Y425270D01*
X580966Y425213D01*
X577490Y421738D01*
X572955Y419859D01*
X568045Y419859D01*
X563510Y421738D01*
X560038Y425210D01*
X558159Y429745D01*
X558159Y434655D01*
X560038Y439190D01*
X563510Y442662D01*
X568045Y444541D01*
X572955Y444541D01*
X577490Y442662D01*
X580969Y439184D01*
X581008Y439120D01*
X581054Y439034D01*
X581072Y439016D01*
X581086Y438994D01*
X581161Y438932D01*
X581232Y438865D01*
X581256Y438854D01*
X581276Y438837D01*
X581367Y438802D01*
X581455Y438761D01*
X581481Y438758D01*
X581505Y438749D01*
X581603Y438745D01*
X581699Y438734D01*
X581725Y438740D01*
X581751Y438739D01*
X581845Y438766D01*
X581940Y438786D01*
X581962Y438800D01*
X581987Y438807D01*
X582067Y438863D01*
X582151Y438913D01*
X582168Y438932D01*
X582189Y438947D01*
X582248Y439026D01*
X582311Y439100D01*
X582321Y439124D01*
X582336Y439145D01*
X582366Y439237D01*
X582403Y439328D01*
X582406Y439360D01*
X582412Y439379D01*
X582412Y439412D01*
X582421Y439494D01*
X582421Y448194D01*
X582419Y448207D01*
X582420Y448216D01*
X582410Y448265D01*
X582407Y448284D01*
X582399Y448375D01*
X582387Y448405D01*
X582382Y448437D01*
X582339Y448518D01*
X582303Y448602D01*
X582277Y448634D01*
X582266Y448654D01*
X582243Y448677D01*
X582198Y448732D01*
X579542Y451388D01*
X579469Y451441D01*
X579399Y451501D01*
X579369Y451513D01*
X579343Y451532D01*
X579256Y451559D01*
X579171Y451593D01*
X579130Y451597D01*
X579108Y451604D01*
X579075Y451603D01*
X579004Y451611D01*
X578008Y451611D01*
X575954Y452462D01*
X574382Y454034D01*
X573531Y456088D01*
X573531Y458312D01*
X574382Y460366D01*
X575954Y461938D01*
X578008Y462789D01*
X580232Y462789D01*
X582286Y461938D01*
X583858Y460366D01*
X584709Y458312D01*
X584709Y457316D01*
X584714Y457281D01*
X584714Y457273D01*
X584723Y457231D01*
X584723Y457226D01*
X584731Y457135D01*
X584743Y457105D01*
X584748Y457073D01*
X584763Y457046D01*
X584766Y457032D01*
X584795Y456983D01*
X584827Y456908D01*
X584853Y456876D01*
X584864Y456856D01*
X584882Y456839D01*
X584892Y456821D01*
X584907Y456808D01*
X584932Y456778D01*
X590043Y451666D01*
X590043Y409546D01*
X590057Y409456D01*
X590065Y409365D01*
X590077Y409335D01*
X590082Y409303D01*
X590125Y409222D01*
X590161Y409138D01*
X590187Y409106D01*
X590198Y409086D01*
X590221Y409063D01*
X590266Y409007D01*
X591282Y407991D01*
X591298Y407980D01*
X591310Y407964D01*
X591398Y407908D01*
X591481Y407848D01*
X591500Y407842D01*
X591517Y407831D01*
X591618Y407806D01*
X591717Y407776D01*
X591736Y407776D01*
X591756Y407771D01*
X591859Y407779D01*
X591962Y407782D01*
X591981Y407789D01*
X592001Y407790D01*
X592096Y407831D01*
X592193Y407866D01*
X592209Y407879D01*
X592227Y407887D01*
X592358Y407991D01*
X592800Y408433D01*
X593379Y408768D01*
X594026Y408941D01*
X596139Y408941D01*
X596139Y404368D01*
X596142Y404349D01*
X596140Y404329D01*
X596162Y404227D01*
X596178Y404125D01*
X596188Y404108D01*
X596192Y404088D01*
X596245Y403999D01*
X596294Y403908D01*
X596308Y403894D01*
X596318Y403877D01*
X596343Y403856D01*
X596342Y403855D01*
X596270Y403780D01*
X596262Y403762D01*
X596249Y403747D01*
X596210Y403650D01*
X596167Y403557D01*
X596165Y403537D01*
X596157Y403519D01*
X596139Y403352D01*
X596139Y398779D01*
X594026Y398779D01*
X593379Y398952D01*
X592800Y399287D01*
X592358Y399729D01*
X592342Y399740D01*
X592330Y399756D01*
X592242Y399812D01*
X592159Y399872D01*
X592140Y399878D01*
X592123Y399889D01*
X592022Y399914D01*
X591923Y399944D01*
X591904Y399944D01*
X591884Y399949D01*
X591781Y399941D01*
X591678Y399938D01*
X591659Y399931D01*
X591639Y399930D01*
X591544Y399889D01*
X591447Y399854D01*
X591431Y399841D01*
X591413Y399833D01*
X591282Y399729D01*
X590332Y398779D01*
X582132Y398779D01*
G37*
%LPD*%
%LPC*%
G36*
X145208Y17859D02*
X145208Y17859D01*
X139680Y20149D01*
X135449Y24380D01*
X133159Y29908D01*
X133159Y35892D01*
X135449Y41420D01*
X139680Y45651D01*
X145208Y47941D01*
X151192Y47941D01*
X156720Y45651D01*
X160951Y41420D01*
X163241Y35892D01*
X163241Y29908D01*
X160951Y24380D01*
X156720Y20149D01*
X151192Y17859D01*
X145208Y17859D01*
G37*
%LPD*%
%LPC*%
G36*
X895208Y17859D02*
X895208Y17859D01*
X889680Y20149D01*
X885449Y24380D01*
X883159Y29908D01*
X883159Y35892D01*
X885449Y41420D01*
X889680Y45651D01*
X895208Y47941D01*
X901192Y47941D01*
X906720Y45651D01*
X910951Y41420D01*
X913241Y35892D01*
X913241Y29908D01*
X910951Y24380D01*
X906720Y20149D01*
X901192Y17859D01*
X895208Y17859D01*
G37*
%LPD*%
%LPC*%
G36*
X488968Y644239D02*
X488968Y644239D01*
X483440Y646529D01*
X479209Y650760D01*
X476919Y656288D01*
X476919Y662272D01*
X479209Y667800D01*
X483440Y672031D01*
X488968Y674321D01*
X494952Y674321D01*
X500480Y672031D01*
X504711Y667800D01*
X507001Y662272D01*
X507001Y656288D01*
X504711Y650760D01*
X500480Y646529D01*
X494952Y644239D01*
X488968Y644239D01*
G37*
%LPD*%
%LPC*%
G36*
X388968Y644239D02*
X388968Y644239D01*
X383440Y646529D01*
X379209Y650760D01*
X376919Y656288D01*
X376919Y662272D01*
X379209Y667800D01*
X383440Y672031D01*
X388968Y674321D01*
X394952Y674321D01*
X400480Y672031D01*
X404711Y667800D01*
X407001Y662272D01*
X407001Y656288D01*
X404711Y650760D01*
X400480Y646529D01*
X394952Y644239D01*
X388968Y644239D01*
G37*
%LPD*%
%LPC*%
G36*
X895208Y327859D02*
X895208Y327859D01*
X889680Y330149D01*
X885449Y334380D01*
X883159Y339908D01*
X883159Y345892D01*
X885449Y351420D01*
X889680Y355651D01*
X895208Y357941D01*
X901192Y357941D01*
X906720Y355651D01*
X910951Y351420D01*
X913241Y345892D01*
X913241Y339908D01*
X910951Y334380D01*
X906720Y330149D01*
X901192Y327859D01*
X895208Y327859D01*
G37*
%LPD*%
%LPC*%
G36*
X145208Y327859D02*
X145208Y327859D01*
X139680Y330149D01*
X135449Y334380D01*
X133159Y339908D01*
X133159Y345892D01*
X135449Y351420D01*
X139680Y355651D01*
X145208Y357941D01*
X151192Y357941D01*
X156720Y355651D01*
X160951Y351420D01*
X163241Y345892D01*
X163241Y339908D01*
X160951Y334380D01*
X156720Y330149D01*
X151192Y327859D01*
X145208Y327859D01*
G37*
%LPD*%
%LPC*%
G36*
X757392Y396239D02*
X757392Y396239D01*
X755903Y397728D01*
X755903Y404912D01*
X757458Y406467D01*
X757511Y406541D01*
X757571Y406611D01*
X757583Y406641D01*
X757602Y406667D01*
X757629Y406754D01*
X757663Y406839D01*
X757667Y406880D01*
X757674Y406902D01*
X757673Y406934D01*
X757681Y407006D01*
X757681Y437526D01*
X757678Y437543D01*
X757680Y437559D01*
X757666Y437625D01*
X757659Y437707D01*
X757647Y437737D01*
X757642Y437769D01*
X757630Y437791D01*
X757628Y437799D01*
X757606Y437836D01*
X757599Y437850D01*
X757563Y437934D01*
X757537Y437966D01*
X757526Y437986D01*
X757503Y438009D01*
X757502Y438009D01*
X757502Y438010D01*
X757501Y438011D01*
X757458Y438064D01*
X754294Y441228D01*
X754221Y441281D01*
X754151Y441341D01*
X754121Y441353D01*
X754095Y441372D01*
X754008Y441399D01*
X753923Y441433D01*
X753882Y441437D01*
X753860Y441444D01*
X753827Y441443D01*
X753756Y441451D01*
X752760Y441451D01*
X750706Y442302D01*
X749134Y443874D01*
X748283Y445928D01*
X748283Y448152D01*
X749134Y450206D01*
X750706Y451778D01*
X752760Y452629D01*
X754984Y452629D01*
X757038Y451778D01*
X758610Y450206D01*
X759461Y448152D01*
X759461Y447156D01*
X759475Y447066D01*
X759483Y446975D01*
X759495Y446945D01*
X759500Y446913D01*
X759543Y446832D01*
X759579Y446748D01*
X759605Y446716D01*
X759616Y446696D01*
X759639Y446673D01*
X759684Y446618D01*
X765303Y440998D01*
X765303Y407006D01*
X765317Y406916D01*
X765325Y406825D01*
X765337Y406795D01*
X765342Y406763D01*
X765385Y406683D01*
X765421Y406598D01*
X765447Y406566D01*
X765458Y406546D01*
X765481Y406523D01*
X765526Y406467D01*
X766542Y405451D01*
X766558Y405440D01*
X766570Y405424D01*
X766658Y405368D01*
X766741Y405308D01*
X766760Y405302D01*
X766777Y405291D01*
X766878Y405266D01*
X766977Y405236D01*
X766996Y405236D01*
X767016Y405231D01*
X767119Y405239D01*
X767222Y405242D01*
X767241Y405249D01*
X767261Y405250D01*
X767356Y405291D01*
X767453Y405326D01*
X767469Y405339D01*
X767487Y405347D01*
X767618Y405451D01*
X768060Y405893D01*
X768639Y406228D01*
X769286Y406401D01*
X771399Y406401D01*
X771399Y401828D01*
X771402Y401809D01*
X771400Y401789D01*
X771422Y401687D01*
X771438Y401585D01*
X771448Y401568D01*
X771452Y401548D01*
X771505Y401459D01*
X771554Y401368D01*
X771568Y401354D01*
X771578Y401337D01*
X771603Y401316D01*
X771602Y401315D01*
X771530Y401240D01*
X771522Y401222D01*
X771509Y401207D01*
X771470Y401110D01*
X771427Y401017D01*
X771425Y400997D01*
X771417Y400979D01*
X771399Y400812D01*
X771399Y396239D01*
X769286Y396239D01*
X768639Y396412D01*
X768060Y396747D01*
X767618Y397189D01*
X767602Y397200D01*
X767590Y397216D01*
X767502Y397272D01*
X767419Y397332D01*
X767400Y397338D01*
X767383Y397349D01*
X767282Y397374D01*
X767183Y397404D01*
X767164Y397404D01*
X767144Y397409D01*
X767041Y397401D01*
X766938Y397398D01*
X766919Y397391D01*
X766899Y397390D01*
X766804Y397349D01*
X766707Y397314D01*
X766691Y397301D01*
X766673Y397293D01*
X766542Y397189D01*
X765592Y396239D01*
X757392Y396239D01*
G37*
%LPD*%
%LPC*%
G36*
X738225Y469859D02*
X738225Y469859D01*
X733690Y471738D01*
X730218Y475210D01*
X728339Y479745D01*
X728339Y484655D01*
X730218Y489190D01*
X733690Y492662D01*
X738225Y494541D01*
X743135Y494541D01*
X747670Y492662D01*
X751142Y489190D01*
X753021Y484655D01*
X753021Y479745D01*
X751142Y475210D01*
X747670Y471738D01*
X743135Y469859D01*
X738225Y469859D01*
G37*
%LPD*%
%LPC*%
G36*
X613225Y469859D02*
X613225Y469859D01*
X608690Y471738D01*
X605218Y475210D01*
X603339Y479745D01*
X603339Y484655D01*
X605218Y489190D01*
X608690Y492662D01*
X613225Y494541D01*
X618135Y494541D01*
X622670Y492662D01*
X626142Y489190D01*
X628021Y484655D01*
X628021Y479745D01*
X626142Y475210D01*
X622670Y471738D01*
X618135Y469859D01*
X613225Y469859D01*
G37*
%LPD*%
%LPC*%
G36*
X738225Y419859D02*
X738225Y419859D01*
X733690Y421738D01*
X730218Y425210D01*
X728339Y429745D01*
X728339Y434655D01*
X730218Y439190D01*
X733690Y442662D01*
X738225Y444541D01*
X743135Y444541D01*
X747670Y442662D01*
X751142Y439190D01*
X753021Y434655D01*
X753021Y429745D01*
X751142Y425210D01*
X747670Y421738D01*
X743135Y419859D01*
X738225Y419859D01*
G37*
%LPD*%
%LPC*%
G36*
X785945Y419859D02*
X785945Y419859D01*
X781410Y421738D01*
X777938Y425210D01*
X776059Y429745D01*
X776059Y434655D01*
X777938Y439190D01*
X781410Y442662D01*
X785945Y444541D01*
X790855Y444541D01*
X795390Y442662D01*
X798862Y439190D01*
X800741Y434655D01*
X800741Y429745D01*
X798862Y425210D01*
X795390Y421738D01*
X790855Y419859D01*
X785945Y419859D01*
G37*
%LPD*%
%LPC*%
G36*
X785945Y469859D02*
X785945Y469859D01*
X781410Y471738D01*
X777938Y475210D01*
X776059Y479745D01*
X776059Y484655D01*
X777938Y489190D01*
X781410Y492662D01*
X785945Y494541D01*
X790855Y494541D01*
X795390Y492662D01*
X798862Y489190D01*
X800741Y484655D01*
X800741Y479745D01*
X798862Y475210D01*
X795390Y471738D01*
X790855Y469859D01*
X785945Y469859D01*
G37*
%LPD*%
%LPC*%
G36*
X443045Y419859D02*
X443045Y419859D01*
X438510Y421738D01*
X435038Y425210D01*
X433159Y429745D01*
X433159Y434655D01*
X435038Y439190D01*
X438510Y442662D01*
X443045Y444541D01*
X447955Y444541D01*
X452490Y442662D01*
X455962Y439190D01*
X457841Y434655D01*
X457841Y429745D01*
X455962Y425210D01*
X452490Y421738D01*
X447955Y419859D01*
X443045Y419859D01*
G37*
%LPD*%
%LPC*%
G36*
X910945Y469859D02*
X910945Y469859D01*
X906410Y471738D01*
X902938Y475210D01*
X901059Y479745D01*
X901059Y484655D01*
X902938Y489190D01*
X906410Y492662D01*
X910945Y494541D01*
X915855Y494541D01*
X920390Y492662D01*
X923862Y489190D01*
X925741Y484655D01*
X925741Y479745D01*
X923862Y475210D01*
X920390Y471738D01*
X915855Y469859D01*
X910945Y469859D01*
G37*
%LPD*%
%LPC*%
G36*
X443045Y469859D02*
X443045Y469859D01*
X438510Y471738D01*
X435038Y475210D01*
X433159Y479745D01*
X433159Y484655D01*
X435038Y489190D01*
X438510Y492662D01*
X443045Y494541D01*
X447955Y494541D01*
X452490Y492662D01*
X455962Y489190D01*
X457841Y484655D01*
X457841Y479745D01*
X455962Y475210D01*
X452490Y471738D01*
X447955Y469859D01*
X443045Y469859D01*
G37*
%LPD*%
%LPC*%
G36*
X568045Y469859D02*
X568045Y469859D01*
X563510Y471738D01*
X560038Y475210D01*
X558159Y479745D01*
X558159Y484655D01*
X560038Y489190D01*
X563510Y492662D01*
X568045Y494541D01*
X572955Y494541D01*
X577490Y492662D01*
X580962Y489190D01*
X582841Y484655D01*
X582841Y479745D01*
X580962Y475210D01*
X577490Y471738D01*
X572955Y469859D01*
X568045Y469859D01*
G37*
%LPD*%
%LPC*%
G36*
X613225Y419859D02*
X613225Y419859D01*
X608690Y421738D01*
X605218Y425210D01*
X603339Y429745D01*
X603339Y434655D01*
X605218Y439190D01*
X608690Y442662D01*
X613225Y444541D01*
X618135Y444541D01*
X622670Y442662D01*
X626142Y439190D01*
X628021Y434655D01*
X628021Y429745D01*
X626142Y425210D01*
X622670Y421738D01*
X618135Y419859D01*
X613225Y419859D01*
G37*
%LPD*%
%LPC*%
G36*
X148846Y400337D02*
X148846Y400337D01*
X147357Y401826D01*
X147357Y420694D01*
X148846Y422183D01*
X167714Y422183D01*
X169203Y420694D01*
X169203Y401826D01*
X167714Y400337D01*
X148846Y400337D01*
G37*
%LPD*%
%LPC*%
G36*
X597753Y652144D02*
X597753Y652144D01*
X596264Y653633D01*
X596264Y672247D01*
X597753Y673736D01*
X616367Y673736D01*
X617856Y672247D01*
X617856Y653633D01*
X616367Y652144D01*
X597753Y652144D01*
G37*
%LPD*%
%LPC*%
G36*
X359691Y272039D02*
X359691Y272039D01*
X353739Y277991D01*
X353739Y286409D01*
X359691Y292361D01*
X364648Y292361D01*
X364719Y292372D01*
X364790Y292374D01*
X364839Y292392D01*
X364891Y292400D01*
X364954Y292434D01*
X365021Y292459D01*
X365062Y292491D01*
X365108Y292516D01*
X365157Y292568D01*
X365213Y292612D01*
X365241Y292656D01*
X365277Y292694D01*
X365307Y292759D01*
X365346Y292819D01*
X365359Y292870D01*
X365381Y292917D01*
X365389Y292988D01*
X365406Y293058D01*
X365402Y293110D01*
X365408Y293161D01*
X365393Y293232D01*
X365387Y293303D01*
X365367Y293351D01*
X365356Y293402D01*
X365319Y293463D01*
X365291Y293529D01*
X365246Y293585D01*
X365230Y293613D01*
X365212Y293628D01*
X365186Y293660D01*
X363562Y295284D01*
X362711Y297338D01*
X362711Y299562D01*
X363562Y301616D01*
X365134Y303188D01*
X367188Y304039D01*
X369412Y304039D01*
X371466Y303188D01*
X373038Y301616D01*
X373889Y299562D01*
X373889Y297338D01*
X373038Y295284D01*
X371466Y293712D01*
X369389Y292852D01*
X369375Y292850D01*
X369304Y292848D01*
X369255Y292830D01*
X369203Y292822D01*
X369140Y292788D01*
X369073Y292763D01*
X369032Y292731D01*
X368986Y292706D01*
X368936Y292654D01*
X368880Y292610D01*
X368852Y292566D01*
X368816Y292528D01*
X368786Y292463D01*
X368747Y292403D01*
X368735Y292352D01*
X368713Y292305D01*
X368705Y292234D01*
X368687Y292164D01*
X368691Y292112D01*
X368686Y292061D01*
X368701Y291990D01*
X368707Y291919D01*
X368727Y291871D01*
X368738Y291820D01*
X368775Y291759D01*
X368803Y291693D01*
X368848Y291637D01*
X368864Y291609D01*
X368882Y291594D01*
X368908Y291562D01*
X374061Y286409D01*
X374061Y277991D01*
X368109Y272039D01*
X359691Y272039D01*
G37*
%LPD*%
%LPC*%
G36*
X354488Y489711D02*
X354488Y489711D01*
X352434Y490562D01*
X350862Y492134D01*
X350011Y494188D01*
X350011Y496412D01*
X350862Y498466D01*
X352434Y500038D01*
X354488Y500889D01*
X356712Y500889D01*
X357837Y500423D01*
X357932Y500400D01*
X358025Y500372D01*
X358051Y500373D01*
X358076Y500367D01*
X358173Y500376D01*
X358270Y500378D01*
X358295Y500387D01*
X358321Y500390D01*
X358410Y500429D01*
X358501Y500463D01*
X358522Y500479D01*
X358546Y500490D01*
X358617Y500556D01*
X358693Y500616D01*
X358708Y500638D01*
X358727Y500656D01*
X358774Y500741D01*
X358826Y500823D01*
X358833Y500849D01*
X358845Y500872D01*
X358863Y500968D01*
X358887Y501062D01*
X358884Y501088D01*
X358889Y501114D01*
X358875Y501210D01*
X358867Y501307D01*
X358857Y501331D01*
X358853Y501357D01*
X358809Y501444D01*
X358771Y501533D01*
X358751Y501559D01*
X358742Y501576D01*
X358718Y501599D01*
X358666Y501664D01*
X353739Y506591D01*
X353739Y515009D01*
X359691Y520961D01*
X368109Y520961D01*
X374061Y515009D01*
X374061Y506591D01*
X368109Y500639D01*
X360002Y500639D01*
X359931Y500628D01*
X359860Y500626D01*
X359811Y500608D01*
X359759Y500600D01*
X359696Y500566D01*
X359629Y500541D01*
X359588Y500509D01*
X359542Y500484D01*
X359493Y500432D01*
X359437Y500388D01*
X359409Y500344D01*
X359373Y500306D01*
X359342Y500241D01*
X359304Y500181D01*
X359291Y500130D01*
X359269Y500083D01*
X359261Y500012D01*
X359244Y499942D01*
X359248Y499890D01*
X359242Y499839D01*
X359257Y499768D01*
X359263Y499697D01*
X359283Y499649D01*
X359294Y499598D01*
X359331Y499537D01*
X359359Y499471D01*
X359404Y499415D01*
X359420Y499387D01*
X359438Y499372D01*
X359464Y499340D01*
X360338Y498466D01*
X361189Y496412D01*
X361189Y494188D01*
X360338Y492134D01*
X358766Y490562D01*
X356712Y489711D01*
X354488Y489711D01*
G37*
%LPD*%
%LPC*%
G36*
X101228Y526039D02*
X101228Y526039D01*
X99739Y527528D01*
X99739Y544872D01*
X101228Y546361D01*
X118572Y546361D01*
X120061Y544872D01*
X120061Y527528D01*
X118572Y526039D01*
X101228Y526039D01*
G37*
%LPD*%
%LPC*%
G36*
X101228Y272039D02*
X101228Y272039D01*
X99739Y273528D01*
X99739Y290872D01*
X101228Y292361D01*
X118572Y292361D01*
X120061Y290872D01*
X120061Y273528D01*
X118572Y272039D01*
X101228Y272039D01*
G37*
%LPD*%
%LPC*%
G36*
X231107Y400337D02*
X231107Y400337D01*
X227093Y402000D01*
X224020Y405073D01*
X222357Y409087D01*
X222357Y413433D01*
X224020Y417447D01*
X227093Y420520D01*
X231107Y422183D01*
X235453Y422183D01*
X239467Y420520D01*
X242540Y417447D01*
X244203Y413433D01*
X244203Y409087D01*
X242540Y405073D01*
X239467Y402000D01*
X235453Y400337D01*
X231107Y400337D01*
G37*
%LPD*%
%LPC*%
G36*
X256107Y400337D02*
X256107Y400337D01*
X252093Y402000D01*
X249020Y405073D01*
X247357Y409087D01*
X247357Y413433D01*
X249020Y417447D01*
X252093Y420520D01*
X256107Y422183D01*
X260453Y422183D01*
X264467Y420520D01*
X267540Y417447D01*
X269203Y413433D01*
X269203Y409087D01*
X267540Y405073D01*
X264467Y402000D01*
X260453Y400337D01*
X256107Y400337D01*
G37*
%LPD*%
%LPC*%
G36*
X181107Y400337D02*
X181107Y400337D01*
X177093Y402000D01*
X174020Y405073D01*
X172357Y409087D01*
X172357Y413433D01*
X174020Y417447D01*
X177093Y420520D01*
X181107Y422183D01*
X185453Y422183D01*
X189467Y420520D01*
X192540Y417447D01*
X194203Y413433D01*
X194203Y409087D01*
X192540Y405073D01*
X189467Y402000D01*
X185453Y400337D01*
X181107Y400337D01*
G37*
%LPD*%
%LPC*%
G36*
X206107Y400337D02*
X206107Y400337D01*
X202093Y402000D01*
X199020Y405073D01*
X197357Y409087D01*
X197357Y413433D01*
X199020Y417447D01*
X202093Y420520D01*
X206107Y422183D01*
X210453Y422183D01*
X214467Y420520D01*
X217540Y417447D01*
X219203Y413433D01*
X219203Y409087D01*
X217540Y405073D01*
X214467Y402000D01*
X210453Y400337D01*
X206107Y400337D01*
G37*
%LPD*%
%LPC*%
G36*
X604913Y601344D02*
X604913Y601344D01*
X600945Y602988D01*
X597908Y606025D01*
X596264Y609993D01*
X596264Y614287D01*
X597908Y618255D01*
X600945Y621292D01*
X604913Y622936D01*
X609207Y622936D01*
X613175Y621292D01*
X616212Y618255D01*
X617856Y614287D01*
X617856Y609993D01*
X616212Y606025D01*
X613175Y602988D01*
X609207Y601344D01*
X604913Y601344D01*
G37*
%LPD*%
%LPC*%
G36*
X70668Y714319D02*
X70668Y714319D01*
X66619Y718368D01*
X65136Y723900D01*
X66619Y729432D01*
X70668Y733481D01*
X76200Y734964D01*
X81732Y733481D01*
X85781Y729432D01*
X87264Y723900D01*
X85781Y718368D01*
X81732Y714319D01*
X76200Y712836D01*
X70668Y714319D01*
G37*
%LPD*%
%LPC*%
G36*
X934268Y28519D02*
X934268Y28519D01*
X930219Y32568D01*
X928736Y38100D01*
X930219Y43632D01*
X934268Y47681D01*
X939800Y49164D01*
X945332Y47681D01*
X949381Y43632D01*
X950864Y38100D01*
X949381Y32568D01*
X945332Y28519D01*
X939800Y27036D01*
X934268Y28519D01*
G37*
%LPD*%
%LPC*%
G36*
X934268Y714319D02*
X934268Y714319D01*
X930219Y718368D01*
X928736Y723900D01*
X930219Y729432D01*
X934268Y733481D01*
X939800Y734964D01*
X945332Y733481D01*
X949381Y729432D01*
X950864Y723900D01*
X949381Y718368D01*
X945332Y714319D01*
X939800Y712836D01*
X934268Y714319D01*
G37*
%LPD*%
%LPC*%
G36*
X980439Y726439D02*
X980439Y726439D01*
X980439Y748536D01*
X982055Y748354D01*
X984767Y747735D01*
X987392Y746817D01*
X989899Y745610D01*
X992254Y744130D01*
X994429Y742395D01*
X996395Y740429D01*
X998130Y738254D01*
X999610Y735899D01*
X1000817Y733392D01*
X1001735Y730767D01*
X1002354Y728055D01*
X1002536Y726439D01*
X980439Y726439D01*
G37*
%LPD*%
%LPC*%
G36*
X980439Y40639D02*
X980439Y40639D01*
X980439Y62736D01*
X982055Y62554D01*
X984767Y61935D01*
X987392Y61017D01*
X989899Y59810D01*
X992254Y58330D01*
X994429Y56595D01*
X996395Y54629D01*
X998130Y52454D01*
X999610Y50099D01*
X1000817Y47592D01*
X1001735Y44967D01*
X1002354Y42255D01*
X1002536Y40639D01*
X980439Y40639D01*
G37*
%LPD*%
%LPC*%
G36*
X40639Y726439D02*
X40639Y726439D01*
X40639Y748536D01*
X42255Y748354D01*
X44967Y747735D01*
X47592Y746817D01*
X50099Y745610D01*
X52454Y744130D01*
X54629Y742395D01*
X56595Y740429D01*
X58330Y738254D01*
X59810Y735899D01*
X61017Y733392D01*
X61935Y730767D01*
X62554Y728055D01*
X62736Y726439D01*
X40639Y726439D01*
G37*
%LPD*%
%LPC*%
G36*
X40639Y40639D02*
X40639Y40639D01*
X40639Y62736D01*
X42255Y62554D01*
X44967Y61935D01*
X47592Y61017D01*
X50099Y59810D01*
X52454Y58330D01*
X54629Y56595D01*
X56595Y54629D01*
X58330Y52454D01*
X59810Y50099D01*
X61017Y47592D01*
X61935Y44967D01*
X62554Y42255D01*
X62736Y40639D01*
X40639Y40639D01*
G37*
%LPD*%
%LPC*%
G36*
X980439Y35561D02*
X980439Y35561D01*
X1002536Y35561D01*
X1002354Y33945D01*
X1001735Y31233D01*
X1000817Y28608D01*
X999610Y26101D01*
X998130Y23746D01*
X996395Y21571D01*
X994429Y19605D01*
X992254Y17870D01*
X989899Y16390D01*
X987392Y15183D01*
X984767Y14265D01*
X982055Y13646D01*
X980439Y13464D01*
X980439Y35561D01*
G37*
%LPD*%
%LPC*%
G36*
X13464Y40639D02*
X13464Y40639D01*
X13646Y42255D01*
X14265Y44967D01*
X15183Y47592D01*
X16390Y50099D01*
X17870Y52454D01*
X19605Y54629D01*
X21571Y56595D01*
X23746Y58330D01*
X26101Y59810D01*
X28608Y61017D01*
X31233Y61935D01*
X33945Y62554D01*
X35561Y62736D01*
X35561Y40639D01*
X13464Y40639D01*
G37*
%LPD*%
%LPC*%
G36*
X953264Y40639D02*
X953264Y40639D01*
X953446Y42255D01*
X954065Y44967D01*
X954983Y47592D01*
X956190Y50099D01*
X957670Y52454D01*
X959405Y54629D01*
X961371Y56595D01*
X963546Y58330D01*
X965901Y59810D01*
X968408Y61017D01*
X971033Y61935D01*
X973745Y62554D01*
X975361Y62736D01*
X975361Y40639D01*
X953264Y40639D01*
G37*
%LPD*%
%LPC*%
G36*
X980439Y721361D02*
X980439Y721361D01*
X1002536Y721361D01*
X1002354Y719745D01*
X1001735Y717033D01*
X1000817Y714408D01*
X999610Y711901D01*
X998130Y709546D01*
X996395Y707371D01*
X994429Y705405D01*
X992254Y703670D01*
X989899Y702190D01*
X987392Y700983D01*
X984767Y700065D01*
X982055Y699446D01*
X980439Y699264D01*
X980439Y721361D01*
G37*
%LPD*%
%LPC*%
G36*
X13464Y726439D02*
X13464Y726439D01*
X13646Y728055D01*
X14265Y730767D01*
X15183Y733392D01*
X16390Y735899D01*
X17870Y738254D01*
X19605Y740429D01*
X21571Y742395D01*
X23746Y744130D01*
X26101Y745610D01*
X28608Y746817D01*
X31233Y747735D01*
X33945Y748354D01*
X35561Y748536D01*
X35561Y726439D01*
X13464Y726439D01*
G37*
%LPD*%
%LPC*%
G36*
X40639Y35561D02*
X40639Y35561D01*
X62736Y35561D01*
X62554Y33945D01*
X61935Y31233D01*
X61017Y28608D01*
X59810Y26101D01*
X58330Y23746D01*
X56595Y21571D01*
X54629Y19605D01*
X52454Y17870D01*
X50099Y16390D01*
X47592Y15183D01*
X44967Y14265D01*
X42255Y13646D01*
X40639Y13464D01*
X40639Y35561D01*
G37*
%LPD*%
%LPC*%
G36*
X40639Y721361D02*
X40639Y721361D01*
X62736Y721361D01*
X62554Y719745D01*
X61935Y717033D01*
X61017Y714408D01*
X59810Y711901D01*
X58330Y709546D01*
X56595Y707371D01*
X54629Y705405D01*
X52454Y703670D01*
X50099Y702190D01*
X47592Y700983D01*
X44967Y700065D01*
X42255Y699446D01*
X40639Y699264D01*
X40639Y721361D01*
G37*
%LPD*%
%LPC*%
G36*
X953264Y726439D02*
X953264Y726439D01*
X953446Y728055D01*
X954065Y730767D01*
X954983Y733392D01*
X956190Y735899D01*
X957670Y738254D01*
X959405Y740429D01*
X961371Y742395D01*
X963546Y744130D01*
X965901Y745610D01*
X968408Y746817D01*
X971033Y747735D01*
X973745Y748354D01*
X975361Y748536D01*
X975361Y726439D01*
X953264Y726439D01*
G37*
%LPD*%
%LPC*%
G36*
X33945Y13646D02*
X33945Y13646D01*
X31233Y14265D01*
X28608Y15183D01*
X26101Y16390D01*
X23746Y17870D01*
X21571Y19605D01*
X19605Y21571D01*
X17870Y23746D01*
X16390Y26101D01*
X15183Y28608D01*
X14265Y31233D01*
X13646Y33945D01*
X13464Y35561D01*
X35561Y35561D01*
X35561Y13464D01*
X33945Y13646D01*
G37*
%LPD*%
%LPC*%
G36*
X33945Y699446D02*
X33945Y699446D01*
X31233Y700065D01*
X28608Y700983D01*
X26101Y702190D01*
X23746Y703670D01*
X21571Y705405D01*
X19605Y707371D01*
X17870Y709546D01*
X16390Y711901D01*
X15183Y714408D01*
X14265Y717033D01*
X13646Y719745D01*
X13464Y721361D01*
X35561Y721361D01*
X35561Y699264D01*
X33945Y699446D01*
G37*
%LPD*%
%LPC*%
G36*
X973745Y699446D02*
X973745Y699446D01*
X971033Y700065D01*
X968408Y700983D01*
X965901Y702190D01*
X963546Y703670D01*
X961371Y705405D01*
X959405Y707371D01*
X957670Y709546D01*
X956190Y711901D01*
X954983Y714408D01*
X954065Y717033D01*
X953446Y719745D01*
X953264Y721361D01*
X975361Y721361D01*
X975361Y699264D01*
X973745Y699446D01*
G37*
%LPD*%
%LPC*%
G36*
X973745Y13646D02*
X973745Y13646D01*
X971033Y14265D01*
X968408Y15183D01*
X965901Y16390D01*
X963546Y17870D01*
X961371Y19605D01*
X959405Y21571D01*
X957670Y23746D01*
X956190Y26101D01*
X954983Y28608D01*
X954065Y31233D01*
X953446Y33945D01*
X953264Y35561D01*
X975361Y35561D01*
X975361Y13464D01*
X973745Y13646D01*
G37*
%LPD*%
%LPC*%
G36*
X207291Y500639D02*
X207291Y500639D01*
X201339Y506591D01*
X201339Y515009D01*
X207291Y520961D01*
X215709Y520961D01*
X221661Y515009D01*
X221661Y506591D01*
X215709Y500639D01*
X207291Y500639D01*
G37*
%LPD*%
%LPC*%
G36*
X156491Y500639D02*
X156491Y500639D01*
X150539Y506591D01*
X150539Y515009D01*
X156491Y520961D01*
X164909Y520961D01*
X170861Y515009D01*
X170861Y506591D01*
X164909Y500639D01*
X156491Y500639D01*
G37*
%LPD*%
%LPC*%
G36*
X181891Y500639D02*
X181891Y500639D01*
X175939Y506591D01*
X175939Y515009D01*
X181891Y520961D01*
X190309Y520961D01*
X196261Y515009D01*
X196261Y506591D01*
X190309Y500639D01*
X181891Y500639D01*
G37*
%LPD*%
%LPC*%
G36*
X232691Y500639D02*
X232691Y500639D01*
X226739Y506591D01*
X226739Y515009D01*
X232691Y520961D01*
X241109Y520961D01*
X247061Y515009D01*
X247061Y506591D01*
X241109Y500639D01*
X232691Y500639D01*
G37*
%LPD*%
%LPC*%
G36*
X258091Y500639D02*
X258091Y500639D01*
X252139Y506591D01*
X252139Y515009D01*
X258091Y520961D01*
X266509Y520961D01*
X272461Y515009D01*
X272461Y506591D01*
X266509Y500639D01*
X258091Y500639D01*
G37*
%LPD*%
%LPC*%
G36*
X283491Y500639D02*
X283491Y500639D01*
X277539Y506591D01*
X277539Y515009D01*
X283491Y520961D01*
X291909Y520961D01*
X297861Y515009D01*
X297861Y506591D01*
X291909Y500639D01*
X283491Y500639D01*
G37*
%LPD*%
%LPC*%
G36*
X486691Y526039D02*
X486691Y526039D01*
X480739Y531991D01*
X480739Y540409D01*
X486691Y546361D01*
X495109Y546361D01*
X501061Y540409D01*
X501061Y531991D01*
X495109Y526039D01*
X486691Y526039D01*
G37*
%LPD*%
%LPC*%
G36*
X105691Y500639D02*
X105691Y500639D01*
X99739Y506591D01*
X99739Y515009D01*
X105691Y520961D01*
X114109Y520961D01*
X120061Y515009D01*
X120061Y506591D01*
X114109Y500639D01*
X105691Y500639D01*
G37*
%LPD*%
%LPC*%
G36*
X131091Y500639D02*
X131091Y500639D01*
X125139Y506591D01*
X125139Y515009D01*
X131091Y520961D01*
X139509Y520961D01*
X145461Y515009D01*
X145461Y506591D01*
X139509Y500639D01*
X131091Y500639D01*
G37*
%LPD*%
%LPC*%
G36*
X461291Y500639D02*
X461291Y500639D01*
X455339Y506591D01*
X455339Y515009D01*
X461291Y520961D01*
X469709Y520961D01*
X475661Y515009D01*
X475661Y506591D01*
X469709Y500639D01*
X461291Y500639D01*
G37*
%LPD*%
%LPC*%
G36*
X537491Y500639D02*
X537491Y500639D01*
X531539Y506591D01*
X531539Y515009D01*
X537491Y520961D01*
X545909Y520961D01*
X551861Y515009D01*
X551861Y506591D01*
X545909Y500639D01*
X537491Y500639D01*
G37*
%LPD*%
%LPC*%
G36*
X512091Y500639D02*
X512091Y500639D01*
X506139Y506591D01*
X506139Y515009D01*
X512091Y520961D01*
X520509Y520961D01*
X526461Y515009D01*
X526461Y506591D01*
X520509Y500639D01*
X512091Y500639D01*
G37*
%LPD*%
%LPC*%
G36*
X486691Y500639D02*
X486691Y500639D01*
X480739Y506591D01*
X480739Y515009D01*
X486691Y520961D01*
X495109Y520961D01*
X501061Y515009D01*
X501061Y506591D01*
X495109Y500639D01*
X486691Y500639D01*
G37*
%LPD*%
%LPC*%
G36*
X334291Y500639D02*
X334291Y500639D01*
X328339Y506591D01*
X328339Y515009D01*
X334291Y520961D01*
X342709Y520961D01*
X348661Y515009D01*
X348661Y506591D01*
X342709Y500639D01*
X334291Y500639D01*
G37*
%LPD*%
%LPC*%
G36*
X105691Y246639D02*
X105691Y246639D01*
X99739Y252591D01*
X99739Y261009D01*
X105691Y266961D01*
X114109Y266961D01*
X120061Y261009D01*
X120061Y252591D01*
X114109Y246639D01*
X105691Y246639D01*
G37*
%LPD*%
%LPC*%
G36*
X410491Y500639D02*
X410491Y500639D01*
X404539Y506591D01*
X404539Y515009D01*
X410491Y520961D01*
X418909Y520961D01*
X424861Y515009D01*
X424861Y506591D01*
X418909Y500639D01*
X410491Y500639D01*
G37*
%LPD*%
%LPC*%
G36*
X410491Y526039D02*
X410491Y526039D01*
X404539Y531991D01*
X404539Y540409D01*
X410491Y546361D01*
X418909Y546361D01*
X424861Y540409D01*
X424861Y531991D01*
X418909Y526039D01*
X410491Y526039D01*
G37*
%LPD*%
%LPC*%
G36*
X435891Y500639D02*
X435891Y500639D01*
X429939Y506591D01*
X429939Y515009D01*
X435891Y520961D01*
X444309Y520961D01*
X450261Y515009D01*
X450261Y506591D01*
X444309Y500639D01*
X435891Y500639D01*
G37*
%LPD*%
%LPC*%
G36*
X308891Y500639D02*
X308891Y500639D01*
X302939Y506591D01*
X302939Y515009D01*
X308891Y520961D01*
X317309Y520961D01*
X323261Y515009D01*
X323261Y506591D01*
X317309Y500639D01*
X308891Y500639D01*
G37*
%LPD*%
%LPC*%
G36*
X181891Y526039D02*
X181891Y526039D01*
X175939Y531991D01*
X175939Y540409D01*
X181891Y546361D01*
X190309Y546361D01*
X196261Y540409D01*
X196261Y531991D01*
X190309Y526039D01*
X181891Y526039D01*
G37*
%LPD*%
%LPC*%
G36*
X537491Y246639D02*
X537491Y246639D01*
X531539Y252591D01*
X531539Y261009D01*
X537491Y266961D01*
X545909Y266961D01*
X551861Y261009D01*
X551861Y252591D01*
X545909Y246639D01*
X537491Y246639D01*
G37*
%LPD*%
%LPC*%
G36*
X512091Y246639D02*
X512091Y246639D01*
X506139Y252591D01*
X506139Y261009D01*
X512091Y266961D01*
X520509Y266961D01*
X526461Y261009D01*
X526461Y252591D01*
X520509Y246639D01*
X512091Y246639D01*
G37*
%LPD*%
%LPC*%
G36*
X486691Y246639D02*
X486691Y246639D01*
X480739Y252591D01*
X480739Y261009D01*
X486691Y266961D01*
X495109Y266961D01*
X501061Y261009D01*
X501061Y252591D01*
X495109Y246639D01*
X486691Y246639D01*
G37*
%LPD*%
%LPC*%
G36*
X385091Y526039D02*
X385091Y526039D01*
X379139Y531991D01*
X379139Y540409D01*
X385091Y546361D01*
X393509Y546361D01*
X399461Y540409D01*
X399461Y531991D01*
X393509Y526039D01*
X385091Y526039D01*
G37*
%LPD*%
%LPC*%
G36*
X359691Y526039D02*
X359691Y526039D01*
X353739Y531991D01*
X353739Y540409D01*
X359691Y546361D01*
X368109Y546361D01*
X374061Y540409D01*
X374061Y531991D01*
X368109Y526039D01*
X359691Y526039D01*
G37*
%LPD*%
%LPC*%
G36*
X334291Y526039D02*
X334291Y526039D01*
X328339Y531991D01*
X328339Y540409D01*
X334291Y546361D01*
X342709Y546361D01*
X348661Y540409D01*
X348661Y531991D01*
X342709Y526039D01*
X334291Y526039D01*
G37*
%LPD*%
%LPC*%
G36*
X308891Y526039D02*
X308891Y526039D01*
X302939Y531991D01*
X302939Y540409D01*
X308891Y546361D01*
X317309Y546361D01*
X323261Y540409D01*
X323261Y531991D01*
X317309Y526039D01*
X308891Y526039D01*
G37*
%LPD*%
%LPC*%
G36*
X461291Y246639D02*
X461291Y246639D01*
X455339Y252591D01*
X455339Y261009D01*
X461291Y266961D01*
X469709Y266961D01*
X475661Y261009D01*
X475661Y252591D01*
X469709Y246639D01*
X461291Y246639D01*
G37*
%LPD*%
%LPC*%
G36*
X435891Y246639D02*
X435891Y246639D01*
X429939Y252591D01*
X429939Y261009D01*
X435891Y266961D01*
X444309Y266961D01*
X450261Y261009D01*
X450261Y252591D01*
X444309Y246639D01*
X435891Y246639D01*
G37*
%LPD*%
%LPC*%
G36*
X156491Y526039D02*
X156491Y526039D01*
X150539Y531991D01*
X150539Y540409D01*
X156491Y546361D01*
X164909Y546361D01*
X170861Y540409D01*
X170861Y531991D01*
X164909Y526039D01*
X156491Y526039D01*
G37*
%LPD*%
%LPC*%
G36*
X435891Y526039D02*
X435891Y526039D01*
X429939Y531991D01*
X429939Y540409D01*
X435891Y546361D01*
X444309Y546361D01*
X450261Y540409D01*
X450261Y531991D01*
X444309Y526039D01*
X435891Y526039D01*
G37*
%LPD*%
%LPC*%
G36*
X410491Y246639D02*
X410491Y246639D01*
X404539Y252591D01*
X404539Y261009D01*
X410491Y266961D01*
X418909Y266961D01*
X424861Y261009D01*
X424861Y252591D01*
X418909Y246639D01*
X410491Y246639D01*
G37*
%LPD*%
%LPC*%
G36*
X131091Y526039D02*
X131091Y526039D01*
X125139Y531991D01*
X125139Y540409D01*
X131091Y546361D01*
X139509Y546361D01*
X145461Y540409D01*
X145461Y531991D01*
X139509Y526039D01*
X131091Y526039D01*
G37*
%LPD*%
%LPC*%
G36*
X385091Y246639D02*
X385091Y246639D01*
X379139Y252591D01*
X379139Y261009D01*
X385091Y266961D01*
X393509Y266961D01*
X399461Y261009D01*
X399461Y252591D01*
X393509Y246639D01*
X385091Y246639D01*
G37*
%LPD*%
%LPC*%
G36*
X283491Y526039D02*
X283491Y526039D01*
X277539Y531991D01*
X277539Y540409D01*
X283491Y546361D01*
X291909Y546361D01*
X297861Y540409D01*
X297861Y531991D01*
X291909Y526039D01*
X283491Y526039D01*
G37*
%LPD*%
%LPC*%
G36*
X207291Y526039D02*
X207291Y526039D01*
X201339Y531991D01*
X201339Y540409D01*
X207291Y546361D01*
X215709Y546361D01*
X221661Y540409D01*
X221661Y531991D01*
X215709Y526039D01*
X207291Y526039D01*
G37*
%LPD*%
%LPC*%
G36*
X359691Y246639D02*
X359691Y246639D01*
X353739Y252591D01*
X353739Y261009D01*
X359691Y266961D01*
X368109Y266961D01*
X374061Y261009D01*
X374061Y252591D01*
X368109Y246639D01*
X359691Y246639D01*
G37*
%LPD*%
%LPC*%
G36*
X334291Y246639D02*
X334291Y246639D01*
X328339Y252591D01*
X328339Y261009D01*
X334291Y266961D01*
X342709Y266961D01*
X348661Y261009D01*
X348661Y252591D01*
X342709Y246639D01*
X334291Y246639D01*
G37*
%LPD*%
%LPC*%
G36*
X308891Y246639D02*
X308891Y246639D01*
X302939Y252591D01*
X302939Y261009D01*
X308891Y266961D01*
X317309Y266961D01*
X323261Y261009D01*
X323261Y252591D01*
X317309Y246639D01*
X308891Y246639D01*
G37*
%LPD*%
%LPC*%
G36*
X283491Y246639D02*
X283491Y246639D01*
X277539Y252591D01*
X277539Y261009D01*
X283491Y266961D01*
X291909Y266961D01*
X297861Y261009D01*
X297861Y252591D01*
X291909Y246639D01*
X283491Y246639D01*
G37*
%LPD*%
%LPC*%
G36*
X258091Y246639D02*
X258091Y246639D01*
X252139Y252591D01*
X252139Y261009D01*
X258091Y266961D01*
X266509Y266961D01*
X272461Y261009D01*
X272461Y252591D01*
X266509Y246639D01*
X258091Y246639D01*
G37*
%LPD*%
%LPC*%
G36*
X232691Y246639D02*
X232691Y246639D01*
X226739Y252591D01*
X226739Y261009D01*
X232691Y266961D01*
X241109Y266961D01*
X247061Y261009D01*
X247061Y252591D01*
X241109Y246639D01*
X232691Y246639D01*
G37*
%LPD*%
%LPC*%
G36*
X207291Y246639D02*
X207291Y246639D01*
X201339Y252591D01*
X201339Y261009D01*
X207291Y266961D01*
X215709Y266961D01*
X221661Y261009D01*
X221661Y252591D01*
X215709Y246639D01*
X207291Y246639D01*
G37*
%LPD*%
%LPC*%
G36*
X181891Y246639D02*
X181891Y246639D01*
X175939Y252591D01*
X175939Y261009D01*
X181891Y266961D01*
X190309Y266961D01*
X196261Y261009D01*
X196261Y252591D01*
X190309Y246639D01*
X181891Y246639D01*
G37*
%LPD*%
%LPC*%
G36*
X156491Y246639D02*
X156491Y246639D01*
X150539Y252591D01*
X150539Y261009D01*
X156491Y266961D01*
X164909Y266961D01*
X170861Y261009D01*
X170861Y252591D01*
X164909Y246639D01*
X156491Y246639D01*
G37*
%LPD*%
%LPC*%
G36*
X131091Y246639D02*
X131091Y246639D01*
X125139Y252591D01*
X125139Y261009D01*
X131091Y266961D01*
X139509Y266961D01*
X145461Y261009D01*
X145461Y252591D01*
X139509Y246639D01*
X131091Y246639D01*
G37*
%LPD*%
%LPC*%
G36*
X308891Y272039D02*
X308891Y272039D01*
X302939Y277991D01*
X302939Y286409D01*
X308891Y292361D01*
X317309Y292361D01*
X323261Y286409D01*
X323261Y277991D01*
X317309Y272039D01*
X308891Y272039D01*
G37*
%LPD*%
%LPC*%
G36*
X461291Y526039D02*
X461291Y526039D01*
X455339Y531991D01*
X455339Y540409D01*
X461291Y546361D01*
X469709Y546361D01*
X475661Y540409D01*
X475661Y531991D01*
X469709Y526039D01*
X461291Y526039D01*
G37*
%LPD*%
%LPC*%
G36*
X385091Y272039D02*
X385091Y272039D01*
X379139Y277991D01*
X379139Y286409D01*
X385091Y292361D01*
X393509Y292361D01*
X399461Y286409D01*
X399461Y277991D01*
X393509Y272039D01*
X385091Y272039D01*
G37*
%LPD*%
%LPC*%
G36*
X283491Y272039D02*
X283491Y272039D01*
X277539Y277991D01*
X277539Y286409D01*
X283491Y292361D01*
X291909Y292361D01*
X297861Y286409D01*
X297861Y277991D01*
X291909Y272039D01*
X283491Y272039D01*
G37*
%LPD*%
%LPC*%
G36*
X410491Y272039D02*
X410491Y272039D01*
X404539Y277991D01*
X404539Y286409D01*
X410491Y292361D01*
X418909Y292361D01*
X424861Y286409D01*
X424861Y277991D01*
X418909Y272039D01*
X410491Y272039D01*
G37*
%LPD*%
%LPC*%
G36*
X435891Y272039D02*
X435891Y272039D01*
X429939Y277991D01*
X429939Y286409D01*
X435891Y292361D01*
X444309Y292361D01*
X450261Y286409D01*
X450261Y277991D01*
X444309Y272039D01*
X435891Y272039D01*
G37*
%LPD*%
%LPC*%
G36*
X232691Y526039D02*
X232691Y526039D01*
X226739Y531991D01*
X226739Y540409D01*
X232691Y546361D01*
X241109Y546361D01*
X247061Y540409D01*
X247061Y531991D01*
X241109Y526039D01*
X232691Y526039D01*
G37*
%LPD*%
%LPC*%
G36*
X258091Y526039D02*
X258091Y526039D01*
X252139Y531991D01*
X252139Y540409D01*
X258091Y546361D01*
X266509Y546361D01*
X272461Y540409D01*
X272461Y531991D01*
X266509Y526039D01*
X258091Y526039D01*
G37*
%LPD*%
%LPC*%
G36*
X537491Y526039D02*
X537491Y526039D01*
X531539Y531991D01*
X531539Y540409D01*
X537491Y546361D01*
X545909Y546361D01*
X551861Y540409D01*
X551861Y531991D01*
X545909Y526039D01*
X537491Y526039D01*
G37*
%LPD*%
%LPC*%
G36*
X232691Y272039D02*
X232691Y272039D01*
X226739Y277991D01*
X226739Y286409D01*
X232691Y292361D01*
X241109Y292361D01*
X247061Y286409D01*
X247061Y277991D01*
X241109Y272039D01*
X232691Y272039D01*
G37*
%LPD*%
%LPC*%
G36*
X512091Y526039D02*
X512091Y526039D01*
X506139Y531991D01*
X506139Y540409D01*
X512091Y546361D01*
X520509Y546361D01*
X526461Y540409D01*
X526461Y531991D01*
X520509Y526039D01*
X512091Y526039D01*
G37*
%LPD*%
%LPC*%
G36*
X207291Y272039D02*
X207291Y272039D01*
X201339Y277991D01*
X201339Y286409D01*
X207291Y292361D01*
X215709Y292361D01*
X221661Y286409D01*
X221661Y277991D01*
X215709Y272039D01*
X207291Y272039D01*
G37*
%LPD*%
%LPC*%
G36*
X461291Y272039D02*
X461291Y272039D01*
X455339Y277991D01*
X455339Y286409D01*
X461291Y292361D01*
X469709Y292361D01*
X475661Y286409D01*
X475661Y277991D01*
X469709Y272039D01*
X461291Y272039D01*
G37*
%LPD*%
%LPC*%
G36*
X486691Y272039D02*
X486691Y272039D01*
X480739Y277991D01*
X480739Y286409D01*
X486691Y292361D01*
X495109Y292361D01*
X501061Y286409D01*
X501061Y277991D01*
X495109Y272039D01*
X486691Y272039D01*
G37*
%LPD*%
%LPC*%
G36*
X512091Y272039D02*
X512091Y272039D01*
X506139Y277991D01*
X506139Y286409D01*
X512091Y292361D01*
X520509Y292361D01*
X526461Y286409D01*
X526461Y277991D01*
X520509Y272039D01*
X512091Y272039D01*
G37*
%LPD*%
%LPC*%
G36*
X537491Y272039D02*
X537491Y272039D01*
X531539Y277991D01*
X531539Y286409D01*
X537491Y292361D01*
X545909Y292361D01*
X551861Y286409D01*
X551861Y277991D01*
X545909Y272039D01*
X537491Y272039D01*
G37*
%LPD*%
%LPC*%
G36*
X181891Y272039D02*
X181891Y272039D01*
X175939Y277991D01*
X175939Y286409D01*
X181891Y292361D01*
X190309Y292361D01*
X196261Y286409D01*
X196261Y277991D01*
X190309Y272039D01*
X181891Y272039D01*
G37*
%LPD*%
%LPC*%
G36*
X156491Y272039D02*
X156491Y272039D01*
X150539Y277991D01*
X150539Y286409D01*
X156491Y292361D01*
X164909Y292361D01*
X170861Y286409D01*
X170861Y277991D01*
X164909Y272039D01*
X156491Y272039D01*
G37*
%LPD*%
%LPC*%
G36*
X334291Y272039D02*
X334291Y272039D01*
X328339Y277991D01*
X328339Y286409D01*
X334291Y292361D01*
X342709Y292361D01*
X348661Y286409D01*
X348661Y277991D01*
X342709Y272039D01*
X334291Y272039D01*
G37*
%LPD*%
%LPC*%
G36*
X131091Y272039D02*
X131091Y272039D01*
X125139Y277991D01*
X125139Y286409D01*
X131091Y292361D01*
X139509Y292361D01*
X145461Y286409D01*
X145461Y277991D01*
X139509Y272039D01*
X131091Y272039D01*
G37*
%LPD*%
%LPC*%
G36*
X465062Y579739D02*
X465062Y579739D01*
X461556Y581192D01*
X458872Y583876D01*
X457419Y587382D01*
X457419Y591178D01*
X458872Y594684D01*
X461556Y597368D01*
X465062Y598821D01*
X468858Y598821D01*
X472364Y597368D01*
X475048Y594684D01*
X476501Y591178D01*
X476501Y587382D01*
X475048Y583876D01*
X472364Y581192D01*
X468858Y579739D01*
X465062Y579739D01*
G37*
%LPD*%
%LPC*%
G36*
X440062Y579739D02*
X440062Y579739D01*
X436556Y581192D01*
X433872Y583876D01*
X432419Y587382D01*
X432419Y591178D01*
X433872Y594684D01*
X436556Y597368D01*
X440062Y598821D01*
X443858Y598821D01*
X447364Y597368D01*
X450048Y594684D01*
X451501Y591178D01*
X451501Y587382D01*
X450048Y583876D01*
X447364Y581192D01*
X443858Y579739D01*
X440062Y579739D01*
G37*
%LPD*%
%LPC*%
G36*
X297338Y292861D02*
X297338Y292861D01*
X295284Y293712D01*
X293712Y295284D01*
X292861Y297338D01*
X292861Y299562D01*
X293712Y301616D01*
X295284Y303188D01*
X297338Y304039D01*
X299562Y304039D01*
X301616Y303188D01*
X303188Y301616D01*
X304039Y299562D01*
X304039Y297338D01*
X303188Y295284D01*
X301616Y293712D01*
X299562Y292861D01*
X297338Y292861D01*
G37*
%LPD*%
%LPC*%
G36*
X240188Y667511D02*
X240188Y667511D01*
X238134Y668362D01*
X236562Y669934D01*
X235711Y671988D01*
X235711Y674212D01*
X236562Y676266D01*
X238134Y677838D01*
X240188Y678689D01*
X242412Y678689D01*
X244466Y677838D01*
X246038Y676266D01*
X246889Y674212D01*
X246889Y671988D01*
X246038Y669934D01*
X244466Y668362D01*
X242412Y667511D01*
X240188Y667511D01*
G37*
%LPD*%
%LPC*%
G36*
X608488Y343661D02*
X608488Y343661D01*
X606434Y344512D01*
X604862Y346084D01*
X604011Y348138D01*
X604011Y350362D01*
X604862Y352416D01*
X606434Y353988D01*
X608488Y354839D01*
X610712Y354839D01*
X612766Y353988D01*
X614338Y352416D01*
X615189Y350362D01*
X615189Y348138D01*
X614338Y346084D01*
X612766Y344512D01*
X610712Y343661D01*
X608488Y343661D01*
G37*
%LPD*%
%LPC*%
G36*
X297338Y553211D02*
X297338Y553211D01*
X295284Y554062D01*
X293712Y555634D01*
X292861Y557688D01*
X292861Y559912D01*
X293712Y561966D01*
X295284Y563538D01*
X297338Y564389D01*
X299562Y564389D01*
X301616Y563538D01*
X303188Y561966D01*
X304039Y559912D01*
X304039Y557688D01*
X303188Y555634D01*
X301616Y554062D01*
X299562Y553211D01*
X297338Y553211D01*
G37*
%LPD*%
%LPC*%
G36*
X468788Y565911D02*
X468788Y565911D01*
X466734Y566762D01*
X465162Y568334D01*
X464311Y570388D01*
X464311Y572612D01*
X465162Y574666D01*
X466734Y576238D01*
X468788Y577089D01*
X471012Y577089D01*
X473066Y576238D01*
X474638Y574666D01*
X475489Y572612D01*
X475489Y570388D01*
X474638Y568334D01*
X473066Y566762D01*
X471012Y565911D01*
X468788Y565911D01*
G37*
%LPD*%
%LPC*%
G36*
X310038Y368553D02*
X310038Y368553D01*
X307984Y369404D01*
X306412Y370976D01*
X305561Y373030D01*
X305561Y375254D01*
X306412Y377308D01*
X307984Y378880D01*
X310038Y379731D01*
X312262Y379731D01*
X314316Y378880D01*
X315888Y377308D01*
X316739Y375254D01*
X316739Y373030D01*
X315888Y370976D01*
X314316Y369404D01*
X312262Y368553D01*
X310038Y368553D01*
G37*
%LPD*%
%LPC*%
G36*
X468788Y413511D02*
X468788Y413511D01*
X466734Y414362D01*
X465162Y415934D01*
X464311Y417988D01*
X464311Y420212D01*
X465162Y422266D01*
X466734Y423838D01*
X468788Y424689D01*
X471012Y424689D01*
X473066Y423838D01*
X474638Y422266D01*
X475489Y420212D01*
X475489Y417988D01*
X474638Y415934D01*
X473066Y414362D01*
X471012Y413511D01*
X468788Y413511D01*
G37*
%LPD*%
%LPC*%
G36*
X887888Y413511D02*
X887888Y413511D01*
X885834Y414362D01*
X884262Y415934D01*
X883411Y417988D01*
X883411Y420212D01*
X884262Y422266D01*
X885834Y423838D01*
X887888Y424689D01*
X890112Y424689D01*
X892166Y423838D01*
X893738Y422266D01*
X894589Y420212D01*
X894589Y417988D01*
X893738Y415934D01*
X892166Y414362D01*
X890112Y413511D01*
X887888Y413511D01*
G37*
%LPD*%
%LPC*%
G36*
X811688Y413511D02*
X811688Y413511D01*
X809634Y414362D01*
X808062Y415934D01*
X807211Y417988D01*
X807211Y420212D01*
X808062Y422266D01*
X809634Y423838D01*
X811688Y424689D01*
X813912Y424689D01*
X815966Y423838D01*
X817538Y422266D01*
X818389Y420212D01*
X818389Y417988D01*
X817538Y415934D01*
X815966Y414362D01*
X813912Y413511D01*
X811688Y413511D01*
G37*
%LPD*%
%LPC*%
G36*
X716438Y413511D02*
X716438Y413511D01*
X714384Y414362D01*
X712812Y415934D01*
X711961Y417988D01*
X711961Y420212D01*
X712812Y422266D01*
X714384Y423838D01*
X716438Y424689D01*
X718662Y424689D01*
X720716Y423838D01*
X722288Y422266D01*
X723139Y420212D01*
X723139Y417988D01*
X722288Y415934D01*
X720716Y414362D01*
X718662Y413511D01*
X716438Y413511D01*
G37*
%LPD*%
%LPC*%
G36*
X544988Y413511D02*
X544988Y413511D01*
X542934Y414362D01*
X541362Y415934D01*
X540511Y417988D01*
X540511Y420212D01*
X541362Y422266D01*
X542934Y423838D01*
X544988Y424689D01*
X547212Y424689D01*
X549266Y423838D01*
X550838Y422266D01*
X551689Y420212D01*
X551689Y417988D01*
X550838Y415934D01*
X549266Y414362D01*
X547212Y413511D01*
X544988Y413511D01*
G37*
%LPD*%
%LPC*%
G36*
X640238Y597661D02*
X640238Y597661D01*
X638184Y598512D01*
X636612Y600084D01*
X635761Y602138D01*
X635761Y604362D01*
X636612Y606416D01*
X638184Y607988D01*
X640238Y608839D01*
X642462Y608839D01*
X644516Y607988D01*
X646088Y606416D01*
X646939Y604362D01*
X646939Y602138D01*
X646088Y600084D01*
X644516Y598512D01*
X642462Y597661D01*
X640238Y597661D01*
G37*
%LPD*%
%LPC*%
G36*
X297338Y489711D02*
X297338Y489711D01*
X295284Y490562D01*
X293712Y492134D01*
X292861Y494188D01*
X292861Y496412D01*
X293712Y498466D01*
X295284Y500038D01*
X297338Y500889D01*
X299562Y500889D01*
X301616Y500038D01*
X303188Y498466D01*
X304039Y496412D01*
X304039Y494188D01*
X303188Y492134D01*
X301616Y490562D01*
X299562Y489711D01*
X297338Y489711D01*
G37*
%LPD*%
%LPC*%
G36*
X640238Y413511D02*
X640238Y413511D01*
X638184Y414362D01*
X636612Y415934D01*
X635761Y417988D01*
X635761Y420212D01*
X636612Y422266D01*
X638184Y423838D01*
X640238Y424689D01*
X642462Y424689D01*
X644516Y423838D01*
X646088Y422266D01*
X646939Y420212D01*
X646939Y417988D01*
X646088Y415934D01*
X644516Y414362D01*
X642462Y413511D01*
X640238Y413511D01*
G37*
%LPD*%
%LPC*%
G36*
X259803Y699737D02*
X259803Y699737D01*
X269098Y699737D01*
X268934Y698702D01*
X268402Y697067D01*
X267622Y695535D01*
X266611Y694144D01*
X265396Y692929D01*
X264005Y691918D01*
X262473Y691138D01*
X260838Y690606D01*
X259803Y690442D01*
X259803Y699737D01*
G37*
%LPD*%
%LPC*%
G36*
X255722Y690606D02*
X255722Y690606D01*
X254087Y691138D01*
X252555Y691918D01*
X251164Y692929D01*
X249949Y694144D01*
X248938Y695535D01*
X248158Y697067D01*
X247626Y698702D01*
X247462Y699737D01*
X256757Y699737D01*
X256757Y690442D01*
X255722Y690606D01*
G37*
%LPD*%
%LPC*%
G36*
X608583Y639063D02*
X608583Y639063D01*
X608583Y648229D01*
X609588Y648070D01*
X611204Y647545D01*
X612718Y646773D01*
X614093Y645774D01*
X615294Y644573D01*
X616293Y643198D01*
X617065Y641684D01*
X617590Y640068D01*
X617749Y639063D01*
X608583Y639063D01*
G37*
%LPD*%
%LPC*%
G36*
X596371Y639063D02*
X596371Y639063D01*
X596530Y640068D01*
X597055Y641684D01*
X597827Y643198D01*
X598826Y644573D01*
X600027Y645774D01*
X601402Y646773D01*
X602916Y647545D01*
X604532Y648070D01*
X605537Y648229D01*
X605537Y639063D01*
X596371Y639063D01*
G37*
%LPD*%
%LPC*%
G36*
X608583Y636017D02*
X608583Y636017D01*
X617749Y636017D01*
X617590Y635012D01*
X617065Y633396D01*
X616293Y631882D01*
X615294Y630507D01*
X614093Y629306D01*
X612718Y628307D01*
X611204Y627535D01*
X609588Y627010D01*
X608583Y626851D01*
X608583Y636017D01*
G37*
%LPD*%
%LPC*%
G36*
X604532Y627010D02*
X604532Y627010D01*
X602916Y627535D01*
X601402Y628307D01*
X600027Y629306D01*
X598826Y630507D01*
X597827Y631882D01*
X597055Y633396D01*
X596530Y635012D01*
X596371Y636017D01*
X605537Y636017D01*
X605537Y626851D01*
X604532Y627010D01*
G37*
%LPD*%
%LPC*%
G36*
X390823Y512323D02*
X390823Y512323D01*
X390823Y520961D01*
X393509Y520961D01*
X399461Y515009D01*
X399461Y512323D01*
X390823Y512323D01*
G37*
%LPD*%
%LPC*%
G36*
X263823Y283723D02*
X263823Y283723D01*
X263823Y292361D01*
X266509Y292361D01*
X272461Y286409D01*
X272461Y283723D01*
X263823Y283723D01*
G37*
%LPD*%
%LPC*%
G36*
X252139Y283723D02*
X252139Y283723D01*
X252139Y286409D01*
X258091Y292361D01*
X260777Y292361D01*
X260777Y283723D01*
X252139Y283723D01*
G37*
%LPD*%
%LPC*%
G36*
X379139Y512323D02*
X379139Y512323D01*
X379139Y515009D01*
X385091Y520961D01*
X387777Y520961D01*
X387777Y512323D01*
X379139Y512323D01*
G37*
%LPD*%
%LPC*%
G36*
X390823Y500639D02*
X390823Y500639D01*
X390823Y509277D01*
X399461Y509277D01*
X399461Y506591D01*
X393509Y500639D01*
X390823Y500639D01*
G37*
%LPD*%
%LPC*%
G36*
X263823Y272039D02*
X263823Y272039D01*
X263823Y280677D01*
X272461Y280677D01*
X272461Y277991D01*
X266509Y272039D01*
X263823Y272039D01*
G37*
%LPD*%
%LPC*%
G36*
X258091Y272039D02*
X258091Y272039D01*
X252139Y277991D01*
X252139Y280677D01*
X260777Y280677D01*
X260777Y272039D01*
X258091Y272039D01*
G37*
%LPD*%
%LPC*%
G36*
X385091Y500639D02*
X385091Y500639D01*
X379139Y506591D01*
X379139Y509277D01*
X387777Y509277D01*
X387777Y500639D01*
X385091Y500639D01*
G37*
%LPD*%
%LPC*%
G36*
X418483Y590803D02*
X418483Y590803D01*
X418483Y598705D01*
X419743Y598454D01*
X421479Y597735D01*
X423042Y596691D01*
X424371Y595362D01*
X425415Y593799D01*
X426134Y592063D01*
X426385Y590803D01*
X418483Y590803D01*
G37*
%LPD*%
%LPC*%
G36*
X418483Y587757D02*
X418483Y587757D01*
X426385Y587757D01*
X426134Y586497D01*
X425415Y584761D01*
X424371Y583198D01*
X423042Y581869D01*
X421479Y580825D01*
X419743Y580106D01*
X418483Y579855D01*
X418483Y587757D01*
G37*
%LPD*%
%LPC*%
G36*
X407535Y590803D02*
X407535Y590803D01*
X407786Y592063D01*
X408505Y593799D01*
X409549Y595362D01*
X410878Y596691D01*
X412441Y597735D01*
X414177Y598454D01*
X415437Y598705D01*
X415437Y590803D01*
X407535Y590803D01*
G37*
%LPD*%
%LPC*%
G36*
X414177Y580106D02*
X414177Y580106D01*
X412441Y580825D01*
X410878Y581869D01*
X409549Y583198D01*
X408505Y584761D01*
X407786Y586497D01*
X407535Y587757D01*
X415437Y587757D01*
X415437Y579855D01*
X414177Y580106D01*
G37*
%LPD*%
%LPC*%
G36*
X971549Y154939D02*
X971549Y154939D01*
X971549Y161291D01*
X975059Y161291D01*
X975706Y161118D01*
X976285Y160783D01*
X976758Y160310D01*
X977093Y159731D01*
X977266Y159084D01*
X977266Y154939D01*
X971549Y154939D01*
G37*
%LPD*%
%LPC*%
G36*
X971549Y143509D02*
X971549Y143509D01*
X971549Y149861D01*
X977266Y149861D01*
X977266Y145716D01*
X977093Y145069D01*
X976758Y144490D01*
X976285Y144017D01*
X975706Y143682D01*
X975059Y143509D01*
X971549Y143509D01*
G37*
%LPD*%
%LPC*%
G36*
X773937Y402589D02*
X773937Y402589D01*
X773937Y406401D01*
X776051Y406401D01*
X776697Y406228D01*
X777276Y405893D01*
X777749Y405420D01*
X778084Y404841D01*
X778257Y404194D01*
X778257Y402589D01*
X773937Y402589D01*
G37*
%LPD*%
%LPC*%
G36*
X936497Y407669D02*
X936497Y407669D01*
X936497Y411481D01*
X938611Y411481D01*
X939257Y411308D01*
X939836Y410973D01*
X940309Y410500D01*
X940644Y409921D01*
X940817Y409274D01*
X940817Y407669D01*
X936497Y407669D01*
G37*
%LPD*%
%LPC*%
G36*
X598677Y405129D02*
X598677Y405129D01*
X598677Y408941D01*
X600791Y408941D01*
X601437Y408768D01*
X602016Y408433D01*
X602489Y407960D01*
X602824Y407381D01*
X602997Y406734D01*
X602997Y405129D01*
X598677Y405129D01*
G37*
%LPD*%
%LPC*%
G36*
X936497Y401319D02*
X936497Y401319D01*
X936497Y405131D01*
X940817Y405131D01*
X940817Y403526D01*
X940644Y402879D01*
X940309Y402300D01*
X939836Y401827D01*
X939257Y401492D01*
X938610Y401319D01*
X936497Y401319D01*
G37*
%LPD*%
%LPC*%
G36*
X598677Y398779D02*
X598677Y398779D01*
X598677Y402591D01*
X602997Y402591D01*
X602997Y400986D01*
X602824Y400339D01*
X602489Y399760D01*
X602016Y399287D01*
X601437Y398952D01*
X600790Y398779D01*
X598677Y398779D01*
G37*
%LPD*%
%LPC*%
G36*
X773937Y396239D02*
X773937Y396239D01*
X773937Y400051D01*
X778257Y400051D01*
X778257Y398446D01*
X778084Y397799D01*
X777749Y397220D01*
X777276Y396747D01*
X776697Y396412D01*
X776050Y396239D01*
X773937Y396239D01*
G37*
%LPD*%
%LPC*%
G36*
X607059Y637539D02*
X607059Y637539D01*
X607059Y637541D01*
X607061Y637541D01*
X607061Y637539D01*
X607059Y637539D01*
G37*
%LPD*%
%LPC*%
G36*
X262299Y282199D02*
X262299Y282199D01*
X262299Y282201D01*
X262301Y282201D01*
X262301Y282199D01*
X262299Y282199D01*
G37*
%LPD*%
%LPC*%
G36*
X38099Y38099D02*
X38099Y38099D01*
X38099Y38101D01*
X38101Y38101D01*
X38101Y38099D01*
X38099Y38099D01*
G37*
%LPD*%
%LPC*%
G36*
X977899Y38099D02*
X977899Y38099D01*
X977899Y38101D01*
X977901Y38101D01*
X977901Y38099D01*
X977899Y38099D01*
G37*
%LPD*%
%LPC*%
G36*
X416959Y589279D02*
X416959Y589279D01*
X416959Y589281D01*
X416961Y589281D01*
X416961Y589279D01*
X416959Y589279D01*
G37*
%LPD*%
%LPC*%
G36*
X38099Y723899D02*
X38099Y723899D01*
X38099Y723901D01*
X38101Y723901D01*
X38101Y723899D01*
X38099Y723899D01*
G37*
%LPD*%
%LPC*%
G36*
X389299Y510799D02*
X389299Y510799D01*
X389299Y510801D01*
X389301Y510801D01*
X389301Y510799D01*
X389299Y510799D01*
G37*
%LPD*%
%LPC*%
G36*
X977899Y723899D02*
X977899Y723899D01*
X977899Y723901D01*
X977901Y723901D01*
X977901Y723899D01*
X977899Y723899D01*
G37*
%LPD*%
D10*
X109900Y536200D03*
D11*
X109900Y510800D03*
X135300Y536200D03*
X135300Y510800D03*
X160700Y536200D03*
X160700Y510800D03*
X186100Y536200D03*
X186100Y510800D03*
X211500Y536200D03*
X211500Y510800D03*
X236900Y536200D03*
X236900Y510800D03*
X262300Y536200D03*
X262300Y510800D03*
X287700Y536200D03*
X287700Y510800D03*
X313100Y536200D03*
X313100Y510800D03*
X338500Y536200D03*
X338500Y510800D03*
X363900Y536200D03*
X363900Y510800D03*
X389300Y536200D03*
X389300Y510800D03*
X414700Y536200D03*
X414700Y510800D03*
X440100Y536200D03*
X440100Y510800D03*
X465500Y536200D03*
X465500Y510800D03*
X490900Y536200D03*
X490900Y510800D03*
X516300Y536200D03*
X516300Y510800D03*
X541700Y536200D03*
X541700Y510800D03*
D10*
X109900Y282200D03*
D11*
X109900Y256800D03*
X135300Y282200D03*
X135300Y256800D03*
X160700Y282200D03*
X160700Y256800D03*
X186100Y282200D03*
X186100Y256800D03*
X211500Y282200D03*
X211500Y256800D03*
X236900Y282200D03*
X236900Y256800D03*
X262300Y282200D03*
X262300Y256800D03*
X287700Y282200D03*
X287700Y256800D03*
X313100Y282200D03*
X313100Y256800D03*
X338500Y282200D03*
X338500Y256800D03*
X363900Y282200D03*
X363900Y256800D03*
X389300Y282200D03*
X389300Y256800D03*
X414700Y282200D03*
X414700Y256800D03*
X440100Y282200D03*
X440100Y256800D03*
X465500Y282200D03*
X465500Y256800D03*
X490900Y282200D03*
X490900Y256800D03*
X516300Y282200D03*
X516300Y256800D03*
X541700Y282200D03*
X541700Y256800D03*
D12*
X38100Y723900D03*
X977900Y723900D03*
X38100Y38100D03*
X977900Y38100D03*
D13*
X76200Y723900D03*
X939800Y723900D03*
X939800Y38100D03*
D14*
X951230Y152400D03*
X969010Y152400D03*
D15*
X258280Y701260D03*
X233280Y701260D03*
X208280Y701260D03*
X183280Y701260D03*
D16*
X158280Y701260D03*
D15*
X258280Y411260D03*
X233280Y411260D03*
X208280Y411260D03*
X183280Y411260D03*
D16*
X158280Y411260D03*
D12*
X309880Y683260D03*
X309880Y429260D03*
X106680Y683260D03*
X106680Y429260D03*
D17*
X203200Y352552D02*
X203200Y333248D01*
X228600Y333248D02*
X228600Y352552D01*
X254000Y352552D02*
X254000Y333248D01*
X279400Y333248D02*
X279400Y352552D01*
X304800Y352552D02*
X304800Y333248D01*
X330200Y333248D02*
X330200Y352552D01*
X355600Y352552D02*
X355600Y333248D01*
X381000Y333248D02*
X381000Y352552D01*
X406400Y352552D02*
X406400Y333248D01*
X431800Y333248D02*
X431800Y352552D01*
X457200Y352552D02*
X457200Y333248D01*
X482600Y333248D02*
X482600Y352552D01*
X508000Y352552D02*
X508000Y333248D01*
X533400Y333248D02*
X533400Y352552D01*
X558800Y352552D02*
X558800Y333248D01*
X584200Y333248D02*
X584200Y352552D01*
D18*
X416960Y589280D03*
X441960Y589280D03*
X466960Y589280D03*
D19*
X586232Y403860D03*
X597408Y403860D03*
D20*
X607060Y662940D03*
D21*
X607060Y637540D03*
X607060Y612140D03*
D22*
X570500Y482200D03*
X570500Y432200D03*
X445500Y432200D03*
X445500Y482200D03*
D19*
X761492Y401320D03*
X772668Y401320D03*
D22*
X740680Y482200D03*
X740680Y432200D03*
X615680Y432200D03*
X615680Y482200D03*
D19*
X924052Y406400D03*
X935228Y406400D03*
D22*
X913400Y482200D03*
X913400Y432200D03*
X788400Y432200D03*
X788400Y482200D03*
D23*
X298450Y298450D03*
X368300Y298450D03*
D24*
X951230Y179070D02*
X951230Y152400D01*
X951230Y179070D02*
X939800Y190500D01*
D23*
X939800Y190500D03*
X609600Y349250D03*
X311150Y374142D03*
X469900Y419100D03*
X546100Y419100D03*
X641350Y419100D03*
X717550Y419100D03*
X812800Y419100D03*
X889000Y419100D03*
X355600Y495300D03*
X298450Y495300D03*
X298450Y558800D03*
X241300Y673100D03*
X469900Y571500D03*
X641350Y603250D03*
D25*
X977900Y60960D02*
X977900Y38100D01*
X977900Y60960D02*
X988060Y71120D01*
X988060Y133350D01*
X969010Y152400D01*
D24*
X262300Y282200D02*
X254000Y290500D01*
X254000Y298450D01*
D23*
X254000Y298450D03*
D24*
X558800Y342900D02*
X558800Y374650D01*
X565150Y381000D01*
D23*
X565150Y381000D03*
D24*
X228600Y368300D02*
X228600Y342900D01*
X228600Y368300D02*
X234950Y374650D01*
D23*
X234950Y374650D03*
D24*
X597408Y403860D02*
X597408Y445008D01*
X603250Y450850D01*
D23*
X603250Y450850D03*
D24*
X772668Y442468D02*
X772668Y401320D01*
X772668Y442468D02*
X781050Y450850D01*
D23*
X781050Y450850D03*
D24*
X935228Y406400D02*
X941578Y406400D01*
X946150Y410972D01*
D23*
X946150Y457200D03*
D24*
X946150Y410972D01*
X389300Y510800D02*
X381000Y502500D01*
X381000Y495300D01*
D23*
X381000Y495300D03*
D24*
X258280Y681520D02*
X258280Y701260D01*
X258280Y681520D02*
X266700Y673100D01*
D23*
X266700Y673100D03*
D24*
X416960Y589280D02*
X416960Y575710D01*
X412750Y571500D01*
D23*
X412750Y571500D03*
D24*
X607060Y637540D02*
X632460Y637540D01*
X641350Y628650D01*
D23*
X641350Y628650D03*
D25*
X924052Y421640D02*
X929132Y426720D01*
X924052Y421640D02*
X924052Y406400D01*
X929132Y455168D02*
X922020Y462280D01*
X929132Y455168D02*
X929132Y426720D01*
D23*
X922020Y462280D03*
D25*
X586232Y450088D02*
X579120Y457200D01*
X586232Y450088D02*
X586232Y403860D01*
D23*
X579120Y457200D03*
D25*
X753872Y447040D02*
X761492Y439420D01*
X761492Y401320D01*
D23*
X753872Y447040D03*
M02*
