G04 EAGLE Gerber RS-274X export*
G75*
%MOMM*%
%FSLAX34Y34*%
%LPD*%
%INSilkscreen Top*%
%IPPOS*%
%AMOC8*
5,1,8,0,0,1.08239X$1,22.5*%
G01*
%ADD10C,0.203200*%
%ADD11C,0.152400*%
%ADD12C,0.127000*%
%ADD13R,0.406400X0.711200*%
%ADD14C,0.254000*%


D10*
X719836Y663956D02*
X719836Y679704D01*
X724210Y679704D01*
X724341Y679702D01*
X724472Y679696D01*
X724602Y679686D01*
X724732Y679673D01*
X724862Y679655D01*
X724991Y679634D01*
X725119Y679608D01*
X725247Y679579D01*
X725374Y679546D01*
X725499Y679510D01*
X725624Y679469D01*
X725747Y679425D01*
X725869Y679377D01*
X725989Y679326D01*
X726108Y679271D01*
X726225Y679212D01*
X726340Y679150D01*
X726453Y679085D01*
X726565Y679016D01*
X726674Y678944D01*
X726781Y678869D01*
X726886Y678790D01*
X726988Y678709D01*
X727088Y678624D01*
X727185Y678536D01*
X727280Y678446D01*
X727372Y678353D01*
X727461Y678257D01*
X727547Y678158D01*
X727630Y678057D01*
X727710Y677954D01*
X727787Y677848D01*
X727860Y677740D01*
X727931Y677629D01*
X727998Y677517D01*
X728062Y677403D01*
X728122Y677287D01*
X728179Y677169D01*
X728232Y677049D01*
X728282Y676928D01*
X728328Y676805D01*
X728370Y676682D01*
X728408Y676557D01*
X728443Y676430D01*
X728474Y676303D01*
X728502Y676175D01*
X728525Y676047D01*
X728544Y675917D01*
X728560Y675787D01*
X728572Y675657D01*
X728580Y675526D01*
X728584Y675395D01*
X728584Y675265D01*
X728580Y675134D01*
X728572Y675003D01*
X728560Y674873D01*
X728544Y674743D01*
X728525Y674613D01*
X728502Y674485D01*
X728474Y674357D01*
X728443Y674230D01*
X728408Y674103D01*
X728370Y673978D01*
X728328Y673855D01*
X728282Y673732D01*
X728232Y673611D01*
X728179Y673491D01*
X728122Y673373D01*
X728062Y673257D01*
X727998Y673143D01*
X727931Y673031D01*
X727860Y672920D01*
X727787Y672812D01*
X727710Y672706D01*
X727630Y672603D01*
X727547Y672502D01*
X727461Y672403D01*
X727372Y672307D01*
X727280Y672214D01*
X727185Y672124D01*
X727088Y672036D01*
X726988Y671951D01*
X726886Y671870D01*
X726781Y671791D01*
X726674Y671716D01*
X726565Y671644D01*
X726453Y671575D01*
X726340Y671510D01*
X726225Y671448D01*
X726108Y671389D01*
X725989Y671334D01*
X725869Y671283D01*
X725747Y671235D01*
X725624Y671191D01*
X725499Y671150D01*
X725374Y671114D01*
X725247Y671081D01*
X725119Y671052D01*
X724991Y671026D01*
X724862Y671005D01*
X724732Y670987D01*
X724602Y670974D01*
X724472Y670964D01*
X724341Y670958D01*
X724210Y670956D01*
X724210Y670955D02*
X719836Y670955D01*
X735148Y674455D02*
X735148Y663956D01*
X735148Y674455D02*
X740398Y674455D01*
X740398Y672705D01*
X745319Y674455D02*
X745319Y663956D01*
X744882Y678829D02*
X744882Y679704D01*
X745757Y679704D01*
X745757Y678829D01*
X744882Y678829D01*
X753032Y670080D02*
X757406Y668330D01*
X753032Y670080D02*
X752945Y670117D01*
X752860Y670157D01*
X752777Y670201D01*
X752696Y670248D01*
X752617Y670298D01*
X752540Y670352D01*
X752465Y670409D01*
X752392Y670469D01*
X752323Y670532D01*
X752255Y670597D01*
X752191Y670666D01*
X752129Y670737D01*
X752071Y670810D01*
X752016Y670886D01*
X751963Y670964D01*
X751914Y671044D01*
X751869Y671126D01*
X751827Y671210D01*
X751788Y671296D01*
X751753Y671383D01*
X751721Y671472D01*
X751694Y671561D01*
X751670Y671652D01*
X751649Y671744D01*
X751633Y671837D01*
X751621Y671930D01*
X751612Y672023D01*
X751607Y672117D01*
X751606Y672211D01*
X751609Y672305D01*
X751616Y672399D01*
X751627Y672492D01*
X751641Y672585D01*
X751660Y672677D01*
X751682Y672768D01*
X751708Y672858D01*
X751738Y672947D01*
X751771Y673035D01*
X751808Y673122D01*
X751848Y673206D01*
X751892Y673289D01*
X751940Y673370D01*
X751991Y673450D01*
X752045Y673526D01*
X752102Y673601D01*
X752162Y673673D01*
X752225Y673743D01*
X752291Y673810D01*
X752359Y673874D01*
X752431Y673935D01*
X752504Y673994D01*
X752580Y674049D01*
X752658Y674101D01*
X752739Y674149D01*
X752821Y674195D01*
X752905Y674237D01*
X752991Y674275D01*
X753078Y674310D01*
X753167Y674341D01*
X753257Y674368D01*
X753348Y674392D01*
X753439Y674412D01*
X753532Y674428D01*
X753625Y674440D01*
X753719Y674449D01*
X753812Y674453D01*
X753906Y674454D01*
X753907Y674455D02*
X754146Y674449D01*
X754384Y674437D01*
X754623Y674419D01*
X754860Y674395D01*
X755098Y674366D01*
X755334Y674331D01*
X755569Y674291D01*
X755804Y674245D01*
X756037Y674193D01*
X756269Y674135D01*
X756499Y674072D01*
X756728Y674004D01*
X756955Y673930D01*
X757181Y673850D01*
X757404Y673766D01*
X757625Y673676D01*
X757844Y673580D01*
X757406Y668330D02*
X757493Y668293D01*
X757578Y668253D01*
X757661Y668209D01*
X757742Y668162D01*
X757821Y668112D01*
X757898Y668058D01*
X757973Y668001D01*
X758046Y667941D01*
X758115Y667878D01*
X758183Y667813D01*
X758247Y667744D01*
X758309Y667673D01*
X758367Y667600D01*
X758422Y667524D01*
X758475Y667446D01*
X758524Y667366D01*
X758569Y667284D01*
X758611Y667200D01*
X758650Y667114D01*
X758685Y667027D01*
X758717Y666938D01*
X758744Y666849D01*
X758768Y666758D01*
X758789Y666666D01*
X758805Y666573D01*
X758817Y666480D01*
X758826Y666387D01*
X758831Y666293D01*
X758832Y666199D01*
X758829Y666105D01*
X758822Y666011D01*
X758811Y665918D01*
X758797Y665825D01*
X758778Y665733D01*
X758756Y665642D01*
X758730Y665552D01*
X758700Y665463D01*
X758667Y665375D01*
X758630Y665288D01*
X758590Y665204D01*
X758546Y665121D01*
X758498Y665040D01*
X758447Y664960D01*
X758393Y664884D01*
X758336Y664809D01*
X758276Y664737D01*
X758213Y664667D01*
X758147Y664600D01*
X758079Y664536D01*
X758007Y664475D01*
X757934Y664416D01*
X757858Y664361D01*
X757780Y664309D01*
X757699Y664261D01*
X757617Y664215D01*
X757533Y664173D01*
X757447Y664135D01*
X757360Y664100D01*
X757271Y664069D01*
X757181Y664042D01*
X757090Y664018D01*
X756999Y663998D01*
X756906Y663982D01*
X756813Y663970D01*
X756719Y663961D01*
X756626Y663957D01*
X756532Y663956D01*
X756181Y663965D01*
X755830Y663982D01*
X755480Y664008D01*
X755131Y664042D01*
X754783Y664084D01*
X754436Y664135D01*
X754090Y664193D01*
X753745Y664260D01*
X753402Y664335D01*
X753061Y664418D01*
X752722Y664509D01*
X752386Y664608D01*
X752051Y664715D01*
X751720Y664830D01*
X766122Y663956D02*
X766122Y674455D01*
X773996Y674455D01*
X774097Y674453D01*
X774197Y674447D01*
X774297Y674438D01*
X774397Y674424D01*
X774496Y674407D01*
X774594Y674386D01*
X774692Y674361D01*
X774788Y674333D01*
X774883Y674300D01*
X774977Y674265D01*
X775070Y674225D01*
X775161Y674182D01*
X775250Y674136D01*
X775337Y674086D01*
X775423Y674033D01*
X775506Y673977D01*
X775587Y673918D01*
X775666Y673855D01*
X775742Y673790D01*
X775816Y673721D01*
X775887Y673650D01*
X775956Y673576D01*
X776021Y673500D01*
X776084Y673421D01*
X776143Y673340D01*
X776199Y673257D01*
X776252Y673171D01*
X776302Y673084D01*
X776348Y672995D01*
X776391Y672904D01*
X776431Y672811D01*
X776466Y672717D01*
X776499Y672622D01*
X776527Y672526D01*
X776552Y672428D01*
X776573Y672330D01*
X776590Y672231D01*
X776604Y672131D01*
X776613Y672031D01*
X776619Y671931D01*
X776621Y671830D01*
X776621Y663956D01*
X771371Y663956D02*
X771371Y674455D01*
X793303Y679704D02*
X793303Y663956D01*
X793303Y679704D02*
X797677Y679704D01*
X797808Y679702D01*
X797939Y679696D01*
X798069Y679686D01*
X798199Y679673D01*
X798329Y679655D01*
X798458Y679634D01*
X798586Y679608D01*
X798714Y679579D01*
X798841Y679546D01*
X798966Y679510D01*
X799091Y679469D01*
X799214Y679425D01*
X799336Y679377D01*
X799456Y679326D01*
X799575Y679271D01*
X799692Y679212D01*
X799807Y679150D01*
X799920Y679085D01*
X800032Y679016D01*
X800141Y678944D01*
X800248Y678869D01*
X800353Y678790D01*
X800455Y678709D01*
X800555Y678624D01*
X800652Y678536D01*
X800747Y678446D01*
X800839Y678353D01*
X800928Y678257D01*
X801014Y678158D01*
X801097Y678057D01*
X801177Y677954D01*
X801254Y677848D01*
X801327Y677740D01*
X801398Y677629D01*
X801465Y677517D01*
X801529Y677403D01*
X801589Y677287D01*
X801646Y677169D01*
X801699Y677049D01*
X801749Y676928D01*
X801795Y676805D01*
X801837Y676682D01*
X801875Y676557D01*
X801910Y676430D01*
X801941Y676303D01*
X801969Y676175D01*
X801992Y676047D01*
X802011Y675917D01*
X802027Y675787D01*
X802039Y675657D01*
X802047Y675526D01*
X802051Y675395D01*
X802051Y675265D01*
X802047Y675134D01*
X802039Y675003D01*
X802027Y674873D01*
X802011Y674743D01*
X801992Y674613D01*
X801969Y674485D01*
X801941Y674357D01*
X801910Y674230D01*
X801875Y674103D01*
X801837Y673978D01*
X801795Y673855D01*
X801749Y673732D01*
X801699Y673611D01*
X801646Y673491D01*
X801589Y673373D01*
X801529Y673257D01*
X801465Y673143D01*
X801398Y673031D01*
X801327Y672920D01*
X801254Y672812D01*
X801177Y672706D01*
X801097Y672603D01*
X801014Y672502D01*
X800928Y672403D01*
X800839Y672307D01*
X800747Y672214D01*
X800652Y672124D01*
X800555Y672036D01*
X800455Y671951D01*
X800353Y671870D01*
X800248Y671791D01*
X800141Y671716D01*
X800032Y671644D01*
X799920Y671575D01*
X799807Y671510D01*
X799692Y671448D01*
X799575Y671389D01*
X799456Y671334D01*
X799336Y671283D01*
X799214Y671235D01*
X799091Y671191D01*
X798966Y671150D01*
X798841Y671114D01*
X798714Y671081D01*
X798586Y671052D01*
X798458Y671026D01*
X798329Y671005D01*
X798199Y670987D01*
X798069Y670974D01*
X797939Y670964D01*
X797808Y670958D01*
X797677Y670956D01*
X797677Y670955D02*
X793303Y670955D01*
X807992Y670955D02*
X807992Y667456D01*
X807991Y670955D02*
X807993Y671073D01*
X807999Y671191D01*
X808009Y671309D01*
X808023Y671426D01*
X808041Y671543D01*
X808063Y671660D01*
X808088Y671775D01*
X808118Y671889D01*
X808152Y672003D01*
X808189Y672115D01*
X808230Y672226D01*
X808275Y672335D01*
X808323Y672443D01*
X808375Y672549D01*
X808431Y672654D01*
X808490Y672756D01*
X808552Y672856D01*
X808618Y672954D01*
X808687Y673050D01*
X808760Y673144D01*
X808835Y673235D01*
X808914Y673323D01*
X808995Y673409D01*
X809080Y673492D01*
X809167Y673572D01*
X809256Y673649D01*
X809349Y673723D01*
X809443Y673793D01*
X809540Y673861D01*
X809640Y673925D01*
X809741Y673986D01*
X809844Y674043D01*
X809950Y674097D01*
X810057Y674148D01*
X810165Y674194D01*
X810275Y674237D01*
X810387Y674276D01*
X810500Y674312D01*
X810614Y674343D01*
X810729Y674371D01*
X810844Y674395D01*
X810961Y674415D01*
X811078Y674431D01*
X811196Y674443D01*
X811314Y674451D01*
X811432Y674455D01*
X811550Y674455D01*
X811668Y674451D01*
X811786Y674443D01*
X811904Y674431D01*
X812021Y674415D01*
X812138Y674395D01*
X812253Y674371D01*
X812368Y674343D01*
X812482Y674312D01*
X812595Y674276D01*
X812707Y674237D01*
X812817Y674194D01*
X812925Y674148D01*
X813032Y674097D01*
X813138Y674043D01*
X813241Y673986D01*
X813342Y673925D01*
X813442Y673861D01*
X813539Y673793D01*
X813633Y673723D01*
X813726Y673649D01*
X813815Y673572D01*
X813902Y673492D01*
X813987Y673409D01*
X814068Y673323D01*
X814147Y673235D01*
X814222Y673144D01*
X814295Y673050D01*
X814364Y672954D01*
X814430Y672856D01*
X814492Y672756D01*
X814551Y672654D01*
X814607Y672549D01*
X814659Y672443D01*
X814707Y672335D01*
X814752Y672226D01*
X814793Y672115D01*
X814830Y672003D01*
X814864Y671889D01*
X814894Y671775D01*
X814919Y671660D01*
X814941Y671543D01*
X814959Y671426D01*
X814973Y671309D01*
X814983Y671191D01*
X814989Y671073D01*
X814991Y670955D01*
X814991Y667456D01*
X814989Y667338D01*
X814983Y667220D01*
X814973Y667102D01*
X814959Y666985D01*
X814941Y666868D01*
X814919Y666751D01*
X814894Y666636D01*
X814864Y666522D01*
X814830Y666408D01*
X814793Y666296D01*
X814752Y666185D01*
X814707Y666076D01*
X814659Y665968D01*
X814607Y665862D01*
X814551Y665757D01*
X814492Y665655D01*
X814430Y665555D01*
X814364Y665457D01*
X814295Y665361D01*
X814222Y665267D01*
X814147Y665176D01*
X814068Y665088D01*
X813987Y665002D01*
X813902Y664919D01*
X813815Y664839D01*
X813726Y664762D01*
X813633Y664688D01*
X813539Y664618D01*
X813442Y664550D01*
X813342Y664486D01*
X813241Y664425D01*
X813138Y664368D01*
X813032Y664314D01*
X812925Y664263D01*
X812817Y664217D01*
X812707Y664174D01*
X812595Y664135D01*
X812482Y664099D01*
X812368Y664068D01*
X812253Y664040D01*
X812138Y664016D01*
X812021Y663996D01*
X811904Y663980D01*
X811786Y663968D01*
X811668Y663960D01*
X811550Y663956D01*
X811432Y663956D01*
X811314Y663960D01*
X811196Y663968D01*
X811078Y663980D01*
X810961Y663996D01*
X810844Y664016D01*
X810729Y664040D01*
X810614Y664068D01*
X810500Y664099D01*
X810387Y664135D01*
X810275Y664174D01*
X810165Y664217D01*
X810057Y664263D01*
X809950Y664314D01*
X809844Y664368D01*
X809741Y664425D01*
X809640Y664486D01*
X809540Y664550D01*
X809443Y664618D01*
X809349Y664688D01*
X809256Y664762D01*
X809167Y664839D01*
X809080Y664919D01*
X808995Y665002D01*
X808914Y665088D01*
X808835Y665176D01*
X808760Y665267D01*
X808687Y665361D01*
X808618Y665457D01*
X808552Y665555D01*
X808490Y665655D01*
X808431Y665757D01*
X808375Y665862D01*
X808323Y665968D01*
X808275Y666076D01*
X808230Y666185D01*
X808189Y666296D01*
X808152Y666408D01*
X808118Y666522D01*
X808088Y666636D01*
X808063Y666751D01*
X808041Y666868D01*
X808023Y666985D01*
X808009Y667102D01*
X807999Y667220D01*
X807993Y667338D01*
X807991Y667456D01*
X822394Y663956D02*
X822394Y674455D01*
X830268Y674455D01*
X830369Y674453D01*
X830469Y674447D01*
X830569Y674438D01*
X830669Y674424D01*
X830768Y674407D01*
X830866Y674386D01*
X830964Y674361D01*
X831060Y674333D01*
X831155Y674300D01*
X831249Y674265D01*
X831342Y674225D01*
X831433Y674182D01*
X831522Y674136D01*
X831609Y674086D01*
X831695Y674033D01*
X831778Y673977D01*
X831859Y673918D01*
X831938Y673855D01*
X832014Y673790D01*
X832088Y673721D01*
X832159Y673650D01*
X832228Y673576D01*
X832293Y673500D01*
X832356Y673421D01*
X832415Y673340D01*
X832471Y673257D01*
X832524Y673171D01*
X832574Y673084D01*
X832620Y672995D01*
X832663Y672904D01*
X832703Y672811D01*
X832738Y672717D01*
X832771Y672622D01*
X832799Y672526D01*
X832824Y672428D01*
X832845Y672330D01*
X832862Y672231D01*
X832876Y672131D01*
X832885Y672031D01*
X832891Y671931D01*
X832893Y671830D01*
X832893Y663956D01*
X827644Y663956D02*
X827644Y674455D01*
X840296Y670955D02*
X840296Y667456D01*
X840296Y670955D02*
X840298Y671073D01*
X840304Y671191D01*
X840314Y671309D01*
X840328Y671426D01*
X840346Y671543D01*
X840368Y671660D01*
X840393Y671775D01*
X840423Y671889D01*
X840457Y672003D01*
X840494Y672115D01*
X840535Y672226D01*
X840580Y672335D01*
X840628Y672443D01*
X840680Y672549D01*
X840736Y672654D01*
X840795Y672756D01*
X840857Y672856D01*
X840923Y672954D01*
X840992Y673050D01*
X841065Y673144D01*
X841140Y673235D01*
X841219Y673323D01*
X841300Y673409D01*
X841385Y673492D01*
X841472Y673572D01*
X841561Y673649D01*
X841654Y673723D01*
X841748Y673793D01*
X841845Y673861D01*
X841945Y673925D01*
X842046Y673986D01*
X842149Y674043D01*
X842255Y674097D01*
X842362Y674148D01*
X842470Y674194D01*
X842580Y674237D01*
X842692Y674276D01*
X842805Y674312D01*
X842919Y674343D01*
X843034Y674371D01*
X843149Y674395D01*
X843266Y674415D01*
X843383Y674431D01*
X843501Y674443D01*
X843619Y674451D01*
X843737Y674455D01*
X843855Y674455D01*
X843973Y674451D01*
X844091Y674443D01*
X844209Y674431D01*
X844326Y674415D01*
X844443Y674395D01*
X844558Y674371D01*
X844673Y674343D01*
X844787Y674312D01*
X844900Y674276D01*
X845012Y674237D01*
X845122Y674194D01*
X845230Y674148D01*
X845337Y674097D01*
X845443Y674043D01*
X845546Y673986D01*
X845647Y673925D01*
X845747Y673861D01*
X845844Y673793D01*
X845938Y673723D01*
X846031Y673649D01*
X846120Y673572D01*
X846207Y673492D01*
X846292Y673409D01*
X846373Y673323D01*
X846452Y673235D01*
X846527Y673144D01*
X846600Y673050D01*
X846669Y672954D01*
X846735Y672856D01*
X846797Y672756D01*
X846856Y672654D01*
X846912Y672549D01*
X846964Y672443D01*
X847012Y672335D01*
X847057Y672226D01*
X847098Y672115D01*
X847135Y672003D01*
X847169Y671889D01*
X847199Y671775D01*
X847224Y671660D01*
X847246Y671543D01*
X847264Y671426D01*
X847278Y671309D01*
X847288Y671191D01*
X847294Y671073D01*
X847296Y670955D01*
X847296Y667456D01*
X847294Y667338D01*
X847288Y667220D01*
X847278Y667102D01*
X847264Y666985D01*
X847246Y666868D01*
X847224Y666751D01*
X847199Y666636D01*
X847169Y666522D01*
X847135Y666408D01*
X847098Y666296D01*
X847057Y666185D01*
X847012Y666076D01*
X846964Y665968D01*
X846912Y665862D01*
X846856Y665757D01*
X846797Y665655D01*
X846735Y665555D01*
X846669Y665457D01*
X846600Y665361D01*
X846527Y665267D01*
X846452Y665176D01*
X846373Y665088D01*
X846292Y665002D01*
X846207Y664919D01*
X846120Y664839D01*
X846031Y664762D01*
X845938Y664688D01*
X845844Y664618D01*
X845747Y664550D01*
X845647Y664486D01*
X845546Y664425D01*
X845443Y664368D01*
X845337Y664314D01*
X845230Y664263D01*
X845122Y664217D01*
X845012Y664174D01*
X844900Y664135D01*
X844787Y664099D01*
X844673Y664068D01*
X844558Y664040D01*
X844443Y664016D01*
X844326Y663996D01*
X844209Y663980D01*
X844091Y663968D01*
X843973Y663960D01*
X843855Y663956D01*
X843737Y663956D01*
X843619Y663960D01*
X843501Y663968D01*
X843383Y663980D01*
X843266Y663996D01*
X843149Y664016D01*
X843034Y664040D01*
X842919Y664068D01*
X842805Y664099D01*
X842692Y664135D01*
X842580Y664174D01*
X842470Y664217D01*
X842362Y664263D01*
X842255Y664314D01*
X842149Y664368D01*
X842046Y664425D01*
X841945Y664486D01*
X841845Y664550D01*
X841748Y664618D01*
X841654Y664688D01*
X841561Y664762D01*
X841472Y664839D01*
X841385Y664919D01*
X841300Y665002D01*
X841219Y665088D01*
X841140Y665176D01*
X841065Y665267D01*
X840992Y665361D01*
X840923Y665457D01*
X840857Y665555D01*
X840795Y665655D01*
X840736Y665757D01*
X840680Y665862D01*
X840628Y665968D01*
X840580Y666076D01*
X840535Y666185D01*
X840494Y666296D01*
X840457Y666408D01*
X840423Y666522D01*
X840393Y666636D01*
X840368Y666751D01*
X840346Y666868D01*
X840328Y666985D01*
X840314Y667102D01*
X840304Y667220D01*
X840298Y667338D01*
X840296Y667456D01*
X860754Y663956D02*
X860754Y679704D01*
X860754Y663956D02*
X856380Y663956D01*
X856279Y663958D01*
X856179Y663964D01*
X856079Y663973D01*
X855979Y663987D01*
X855880Y664004D01*
X855782Y664025D01*
X855684Y664050D01*
X855588Y664078D01*
X855493Y664111D01*
X855399Y664146D01*
X855306Y664186D01*
X855215Y664229D01*
X855126Y664275D01*
X855039Y664325D01*
X854953Y664378D01*
X854870Y664434D01*
X854789Y664493D01*
X854710Y664556D01*
X854634Y664621D01*
X854560Y664690D01*
X854489Y664761D01*
X854420Y664835D01*
X854355Y664911D01*
X854292Y664990D01*
X854233Y665071D01*
X854177Y665154D01*
X854124Y665240D01*
X854074Y665327D01*
X854028Y665416D01*
X853985Y665507D01*
X853945Y665600D01*
X853910Y665694D01*
X853877Y665789D01*
X853849Y665885D01*
X853824Y665983D01*
X853803Y666081D01*
X853786Y666180D01*
X853772Y666280D01*
X853763Y666380D01*
X853757Y666480D01*
X853755Y666581D01*
X853755Y671830D01*
X853757Y671931D01*
X853763Y672031D01*
X853772Y672131D01*
X853786Y672231D01*
X853803Y672330D01*
X853824Y672428D01*
X853849Y672526D01*
X853877Y672622D01*
X853910Y672717D01*
X853945Y672811D01*
X853985Y672904D01*
X854028Y672995D01*
X854074Y673084D01*
X854124Y673171D01*
X854177Y673257D01*
X854233Y673340D01*
X854292Y673421D01*
X854355Y673500D01*
X854420Y673576D01*
X854489Y673650D01*
X854560Y673721D01*
X854634Y673790D01*
X854710Y673855D01*
X854789Y673918D01*
X854870Y673977D01*
X854953Y674033D01*
X855039Y674086D01*
X855126Y674136D01*
X855215Y674182D01*
X855306Y674225D01*
X855399Y674265D01*
X855493Y674301D01*
X855588Y674333D01*
X855684Y674361D01*
X855782Y674386D01*
X855880Y674407D01*
X855979Y674424D01*
X856079Y674438D01*
X856179Y674447D01*
X856279Y674453D01*
X856380Y674455D01*
X860754Y674455D01*
X867912Y670955D02*
X867912Y667456D01*
X867911Y670955D02*
X867913Y671073D01*
X867919Y671191D01*
X867929Y671309D01*
X867943Y671426D01*
X867961Y671543D01*
X867983Y671660D01*
X868008Y671775D01*
X868038Y671889D01*
X868072Y672003D01*
X868109Y672115D01*
X868150Y672226D01*
X868195Y672335D01*
X868243Y672443D01*
X868295Y672549D01*
X868351Y672654D01*
X868410Y672756D01*
X868472Y672856D01*
X868538Y672954D01*
X868607Y673050D01*
X868680Y673144D01*
X868755Y673235D01*
X868834Y673323D01*
X868915Y673409D01*
X869000Y673492D01*
X869087Y673572D01*
X869176Y673649D01*
X869269Y673723D01*
X869363Y673793D01*
X869460Y673861D01*
X869560Y673925D01*
X869661Y673986D01*
X869764Y674043D01*
X869870Y674097D01*
X869977Y674148D01*
X870085Y674194D01*
X870195Y674237D01*
X870307Y674276D01*
X870420Y674312D01*
X870534Y674343D01*
X870649Y674371D01*
X870764Y674395D01*
X870881Y674415D01*
X870998Y674431D01*
X871116Y674443D01*
X871234Y674451D01*
X871352Y674455D01*
X871470Y674455D01*
X871588Y674451D01*
X871706Y674443D01*
X871824Y674431D01*
X871941Y674415D01*
X872058Y674395D01*
X872173Y674371D01*
X872288Y674343D01*
X872402Y674312D01*
X872515Y674276D01*
X872627Y674237D01*
X872737Y674194D01*
X872845Y674148D01*
X872952Y674097D01*
X873058Y674043D01*
X873161Y673986D01*
X873262Y673925D01*
X873362Y673861D01*
X873459Y673793D01*
X873553Y673723D01*
X873646Y673649D01*
X873735Y673572D01*
X873822Y673492D01*
X873907Y673409D01*
X873988Y673323D01*
X874067Y673235D01*
X874142Y673144D01*
X874215Y673050D01*
X874284Y672954D01*
X874350Y672856D01*
X874412Y672756D01*
X874471Y672654D01*
X874527Y672549D01*
X874579Y672443D01*
X874627Y672335D01*
X874672Y672226D01*
X874713Y672115D01*
X874750Y672003D01*
X874784Y671889D01*
X874814Y671775D01*
X874839Y671660D01*
X874861Y671543D01*
X874879Y671426D01*
X874893Y671309D01*
X874903Y671191D01*
X874909Y671073D01*
X874911Y670955D01*
X874911Y667456D01*
X874909Y667338D01*
X874903Y667220D01*
X874893Y667102D01*
X874879Y666985D01*
X874861Y666868D01*
X874839Y666751D01*
X874814Y666636D01*
X874784Y666522D01*
X874750Y666408D01*
X874713Y666296D01*
X874672Y666185D01*
X874627Y666076D01*
X874579Y665968D01*
X874527Y665862D01*
X874471Y665757D01*
X874412Y665655D01*
X874350Y665555D01*
X874284Y665457D01*
X874215Y665361D01*
X874142Y665267D01*
X874067Y665176D01*
X873988Y665088D01*
X873907Y665002D01*
X873822Y664919D01*
X873735Y664839D01*
X873646Y664762D01*
X873553Y664688D01*
X873459Y664618D01*
X873362Y664550D01*
X873262Y664486D01*
X873161Y664425D01*
X873058Y664368D01*
X872952Y664314D01*
X872845Y664263D01*
X872737Y664217D01*
X872627Y664174D01*
X872515Y664135D01*
X872402Y664099D01*
X872288Y664068D01*
X872173Y664040D01*
X872058Y664016D01*
X871941Y663996D01*
X871824Y663980D01*
X871706Y663968D01*
X871588Y663960D01*
X871470Y663956D01*
X871352Y663956D01*
X871234Y663960D01*
X871116Y663968D01*
X870998Y663980D01*
X870881Y663996D01*
X870764Y664016D01*
X870649Y664040D01*
X870534Y664068D01*
X870420Y664099D01*
X870307Y664135D01*
X870195Y664174D01*
X870085Y664217D01*
X869977Y664263D01*
X869870Y664314D01*
X869764Y664368D01*
X869661Y664425D01*
X869560Y664486D01*
X869460Y664550D01*
X869363Y664618D01*
X869269Y664688D01*
X869176Y664762D01*
X869087Y664839D01*
X869000Y664919D01*
X868915Y665002D01*
X868834Y665088D01*
X868755Y665176D01*
X868680Y665267D01*
X868607Y665361D01*
X868538Y665457D01*
X868472Y665555D01*
X868410Y665655D01*
X868351Y665757D01*
X868295Y665862D01*
X868243Y665968D01*
X868195Y666076D01*
X868150Y666185D01*
X868109Y666296D01*
X868072Y666408D01*
X868038Y666522D01*
X868008Y666636D01*
X867983Y666751D01*
X867961Y666868D01*
X867943Y666985D01*
X867929Y667102D01*
X867919Y667220D01*
X867913Y667338D01*
X867911Y667456D01*
X882082Y663956D02*
X882082Y674455D01*
X887331Y674455D01*
X887331Y672705D01*
X892400Y670955D02*
X892400Y667456D01*
X892400Y670955D02*
X892402Y671073D01*
X892408Y671191D01*
X892418Y671309D01*
X892432Y671426D01*
X892450Y671543D01*
X892472Y671660D01*
X892497Y671775D01*
X892527Y671889D01*
X892561Y672003D01*
X892598Y672115D01*
X892639Y672226D01*
X892684Y672335D01*
X892732Y672443D01*
X892784Y672549D01*
X892840Y672654D01*
X892899Y672756D01*
X892961Y672856D01*
X893027Y672954D01*
X893096Y673050D01*
X893169Y673144D01*
X893244Y673235D01*
X893323Y673323D01*
X893404Y673409D01*
X893489Y673492D01*
X893576Y673572D01*
X893665Y673649D01*
X893758Y673723D01*
X893852Y673793D01*
X893949Y673861D01*
X894049Y673925D01*
X894150Y673986D01*
X894253Y674043D01*
X894359Y674097D01*
X894466Y674148D01*
X894574Y674194D01*
X894684Y674237D01*
X894796Y674276D01*
X894909Y674312D01*
X895023Y674343D01*
X895138Y674371D01*
X895253Y674395D01*
X895370Y674415D01*
X895487Y674431D01*
X895605Y674443D01*
X895723Y674451D01*
X895841Y674455D01*
X895959Y674455D01*
X896077Y674451D01*
X896195Y674443D01*
X896313Y674431D01*
X896430Y674415D01*
X896547Y674395D01*
X896662Y674371D01*
X896777Y674343D01*
X896891Y674312D01*
X897004Y674276D01*
X897116Y674237D01*
X897226Y674194D01*
X897334Y674148D01*
X897441Y674097D01*
X897547Y674043D01*
X897650Y673986D01*
X897751Y673925D01*
X897851Y673861D01*
X897948Y673793D01*
X898042Y673723D01*
X898135Y673649D01*
X898224Y673572D01*
X898311Y673492D01*
X898396Y673409D01*
X898477Y673323D01*
X898556Y673235D01*
X898631Y673144D01*
X898704Y673050D01*
X898773Y672954D01*
X898839Y672856D01*
X898901Y672756D01*
X898960Y672654D01*
X899016Y672549D01*
X899068Y672443D01*
X899116Y672335D01*
X899161Y672226D01*
X899202Y672115D01*
X899239Y672003D01*
X899273Y671889D01*
X899303Y671775D01*
X899328Y671660D01*
X899350Y671543D01*
X899368Y671426D01*
X899382Y671309D01*
X899392Y671191D01*
X899398Y671073D01*
X899400Y670955D01*
X899400Y667456D01*
X899398Y667338D01*
X899392Y667220D01*
X899382Y667102D01*
X899368Y666985D01*
X899350Y666868D01*
X899328Y666751D01*
X899303Y666636D01*
X899273Y666522D01*
X899239Y666408D01*
X899202Y666296D01*
X899161Y666185D01*
X899116Y666076D01*
X899068Y665968D01*
X899016Y665862D01*
X898960Y665757D01*
X898901Y665655D01*
X898839Y665555D01*
X898773Y665457D01*
X898704Y665361D01*
X898631Y665267D01*
X898556Y665176D01*
X898477Y665088D01*
X898396Y665002D01*
X898311Y664919D01*
X898224Y664839D01*
X898135Y664762D01*
X898042Y664688D01*
X897948Y664618D01*
X897851Y664550D01*
X897751Y664486D01*
X897650Y664425D01*
X897547Y664368D01*
X897441Y664314D01*
X897334Y664263D01*
X897226Y664217D01*
X897116Y664174D01*
X897004Y664135D01*
X896891Y664099D01*
X896777Y664068D01*
X896662Y664040D01*
X896547Y664016D01*
X896430Y663996D01*
X896313Y663980D01*
X896195Y663968D01*
X896077Y663960D01*
X895959Y663956D01*
X895841Y663956D01*
X895723Y663960D01*
X895605Y663968D01*
X895487Y663980D01*
X895370Y663996D01*
X895253Y664016D01*
X895138Y664040D01*
X895023Y664068D01*
X894909Y664099D01*
X894796Y664135D01*
X894684Y664174D01*
X894574Y664217D01*
X894466Y664263D01*
X894359Y664314D01*
X894253Y664368D01*
X894150Y664425D01*
X894049Y664486D01*
X893949Y664550D01*
X893852Y664618D01*
X893758Y664688D01*
X893665Y664762D01*
X893576Y664839D01*
X893489Y664919D01*
X893404Y665002D01*
X893323Y665088D01*
X893244Y665176D01*
X893169Y665267D01*
X893096Y665361D01*
X893027Y665457D01*
X892961Y665555D01*
X892899Y665655D01*
X892840Y665757D01*
X892784Y665862D01*
X892732Y665968D01*
X892684Y666076D01*
X892639Y666185D01*
X892598Y666296D01*
X892561Y666408D01*
X892527Y666522D01*
X892497Y666636D01*
X892472Y666751D01*
X892450Y666868D01*
X892432Y666985D01*
X892418Y667102D01*
X892408Y667220D01*
X892402Y667338D01*
X892400Y667456D01*
X726835Y630936D02*
X719836Y630936D01*
X719836Y646684D01*
X726835Y646684D01*
X725085Y639685D02*
X719836Y639685D01*
X733347Y646684D02*
X733347Y630936D01*
X733347Y646684D02*
X737722Y646684D01*
X737852Y646682D01*
X737981Y646676D01*
X738110Y646667D01*
X738239Y646653D01*
X738368Y646636D01*
X738496Y646615D01*
X738623Y646590D01*
X738749Y646562D01*
X738875Y646529D01*
X738999Y646493D01*
X739123Y646454D01*
X739245Y646410D01*
X739366Y646363D01*
X739485Y646313D01*
X739603Y646259D01*
X739719Y646201D01*
X739834Y646140D01*
X739946Y646076D01*
X740057Y646009D01*
X740166Y645938D01*
X740272Y645864D01*
X740376Y645787D01*
X740478Y645707D01*
X740577Y645623D01*
X740674Y645537D01*
X740769Y645448D01*
X740860Y645357D01*
X740949Y645262D01*
X741035Y645165D01*
X741119Y645066D01*
X741199Y644964D01*
X741276Y644860D01*
X741350Y644754D01*
X741421Y644645D01*
X741488Y644534D01*
X741552Y644422D01*
X741613Y644307D01*
X741671Y644191D01*
X741725Y644073D01*
X741775Y643954D01*
X741822Y643833D01*
X741866Y643711D01*
X741905Y643587D01*
X741941Y643463D01*
X741974Y643337D01*
X742002Y643211D01*
X742027Y643084D01*
X742048Y642956D01*
X742065Y642827D01*
X742079Y642698D01*
X742088Y642569D01*
X742094Y642440D01*
X742096Y642310D01*
X742096Y635310D01*
X742094Y635180D01*
X742088Y635051D01*
X742079Y634922D01*
X742065Y634793D01*
X742048Y634664D01*
X742027Y634536D01*
X742002Y634409D01*
X741974Y634283D01*
X741941Y634157D01*
X741905Y634033D01*
X741866Y633909D01*
X741822Y633787D01*
X741775Y633666D01*
X741725Y633547D01*
X741671Y633429D01*
X741613Y633313D01*
X741552Y633198D01*
X741488Y633086D01*
X741421Y632975D01*
X741350Y632866D01*
X741276Y632760D01*
X741199Y632656D01*
X741119Y632554D01*
X741035Y632455D01*
X740949Y632358D01*
X740860Y632263D01*
X740769Y632172D01*
X740674Y632083D01*
X740577Y631997D01*
X740478Y631913D01*
X740376Y631833D01*
X740272Y631756D01*
X740166Y631682D01*
X740057Y631611D01*
X739946Y631544D01*
X739834Y631480D01*
X739719Y631419D01*
X739603Y631361D01*
X739485Y631307D01*
X739366Y631257D01*
X739245Y631210D01*
X739123Y631166D01*
X738999Y631127D01*
X738875Y631091D01*
X738749Y631058D01*
X738623Y631030D01*
X738496Y631005D01*
X738368Y630984D01*
X738239Y630967D01*
X738110Y630953D01*
X737981Y630944D01*
X737852Y630938D01*
X737722Y630936D01*
X733347Y630936D01*
X750056Y630936D02*
X757055Y630936D01*
X750056Y630936D02*
X750056Y646684D01*
X757055Y646684D01*
X755306Y639685D02*
X750056Y639685D01*
X767775Y630936D02*
X767892Y630938D01*
X768009Y630944D01*
X768125Y630954D01*
X768241Y630967D01*
X768357Y630985D01*
X768472Y631006D01*
X768586Y631031D01*
X768700Y631060D01*
X768812Y631093D01*
X768923Y631130D01*
X769033Y631170D01*
X769141Y631214D01*
X769248Y631261D01*
X769354Y631312D01*
X769457Y631367D01*
X769559Y631425D01*
X769658Y631486D01*
X769756Y631550D01*
X769851Y631618D01*
X769944Y631689D01*
X770035Y631763D01*
X770123Y631840D01*
X770208Y631920D01*
X770291Y632003D01*
X770371Y632088D01*
X770448Y632176D01*
X770522Y632267D01*
X770593Y632360D01*
X770661Y632455D01*
X770725Y632553D01*
X770786Y632652D01*
X770844Y632754D01*
X770899Y632857D01*
X770950Y632963D01*
X770997Y633070D01*
X771041Y633178D01*
X771081Y633288D01*
X771118Y633399D01*
X771151Y633511D01*
X771180Y633625D01*
X771205Y633739D01*
X771226Y633854D01*
X771244Y633969D01*
X771257Y634086D01*
X771267Y634202D01*
X771273Y634319D01*
X771275Y634436D01*
X767775Y630936D02*
X767598Y630938D01*
X767421Y630944D01*
X767245Y630955D01*
X767068Y630970D01*
X766893Y630989D01*
X766717Y631012D01*
X766543Y631039D01*
X766368Y631071D01*
X766195Y631107D01*
X766023Y631147D01*
X765852Y631191D01*
X765681Y631239D01*
X765512Y631291D01*
X765345Y631347D01*
X765178Y631407D01*
X765013Y631471D01*
X764850Y631539D01*
X764688Y631611D01*
X764529Y631687D01*
X764371Y631766D01*
X764215Y631850D01*
X764061Y631937D01*
X763909Y632027D01*
X763759Y632122D01*
X763612Y632220D01*
X763467Y632321D01*
X763324Y632426D01*
X763184Y632534D01*
X763047Y632645D01*
X762912Y632760D01*
X762781Y632878D01*
X762652Y632999D01*
X762526Y633123D01*
X762963Y643184D02*
X762965Y643301D01*
X762971Y643418D01*
X762981Y643534D01*
X762994Y643651D01*
X763012Y643766D01*
X763033Y643881D01*
X763058Y643995D01*
X763087Y644109D01*
X763120Y644221D01*
X763157Y644332D01*
X763197Y644442D01*
X763241Y644550D01*
X763288Y644657D01*
X763339Y644763D01*
X763394Y644866D01*
X763452Y644968D01*
X763513Y645067D01*
X763577Y645165D01*
X763645Y645260D01*
X763716Y645353D01*
X763790Y645444D01*
X763867Y645532D01*
X763947Y645617D01*
X764030Y645700D01*
X764115Y645780D01*
X764203Y645857D01*
X764294Y645931D01*
X764387Y646002D01*
X764482Y646070D01*
X764580Y646134D01*
X764679Y646195D01*
X764781Y646253D01*
X764884Y646308D01*
X764990Y646359D01*
X765097Y646406D01*
X765205Y646450D01*
X765315Y646490D01*
X765426Y646527D01*
X765538Y646560D01*
X765652Y646589D01*
X765766Y646614D01*
X765881Y646635D01*
X765996Y646653D01*
X766113Y646666D01*
X766229Y646676D01*
X766346Y646682D01*
X766463Y646684D01*
X766619Y646682D01*
X766776Y646677D01*
X766932Y646667D01*
X767088Y646654D01*
X767243Y646637D01*
X767398Y646617D01*
X767553Y646593D01*
X767707Y646565D01*
X767860Y646534D01*
X768012Y646499D01*
X768164Y646460D01*
X768314Y646417D01*
X768464Y646372D01*
X768612Y646322D01*
X768759Y646269D01*
X768905Y646213D01*
X769050Y646153D01*
X769193Y646089D01*
X769334Y646023D01*
X769474Y645953D01*
X769612Y645879D01*
X769748Y645802D01*
X769883Y645723D01*
X770015Y645639D01*
X770146Y645553D01*
X770274Y645464D01*
X770400Y645372D01*
X764713Y640122D02*
X764614Y640182D01*
X764518Y640246D01*
X764424Y640312D01*
X764332Y640381D01*
X764242Y640454D01*
X764154Y640529D01*
X764070Y640607D01*
X763987Y640688D01*
X763908Y640771D01*
X763831Y640857D01*
X763757Y640945D01*
X763685Y641036D01*
X763617Y641129D01*
X763552Y641224D01*
X763490Y641322D01*
X763431Y641421D01*
X763376Y641522D01*
X763323Y641625D01*
X763275Y641729D01*
X763229Y641835D01*
X763187Y641942D01*
X763148Y642051D01*
X763113Y642161D01*
X763082Y642272D01*
X763054Y642384D01*
X763030Y642496D01*
X763010Y642610D01*
X762993Y642724D01*
X762980Y642839D01*
X762970Y642954D01*
X762965Y643069D01*
X762963Y643184D01*
X769524Y637498D02*
X769623Y637438D01*
X769719Y637374D01*
X769813Y637308D01*
X769905Y637239D01*
X769995Y637166D01*
X770083Y637091D01*
X770167Y637013D01*
X770250Y636932D01*
X770329Y636849D01*
X770406Y636763D01*
X770480Y636675D01*
X770552Y636584D01*
X770620Y636491D01*
X770685Y636396D01*
X770747Y636298D01*
X770806Y636199D01*
X770861Y636098D01*
X770914Y635995D01*
X770963Y635891D01*
X771008Y635785D01*
X771050Y635678D01*
X771089Y635569D01*
X771124Y635459D01*
X771155Y635348D01*
X771183Y635236D01*
X771207Y635124D01*
X771227Y635010D01*
X771244Y634896D01*
X771257Y634781D01*
X771267Y634666D01*
X771272Y634551D01*
X771274Y634436D01*
X769525Y637498D02*
X764713Y640122D01*
X785972Y630936D02*
X790347Y630936D01*
X790478Y630938D01*
X790609Y630944D01*
X790739Y630954D01*
X790869Y630967D01*
X790999Y630985D01*
X791128Y631006D01*
X791256Y631032D01*
X791384Y631061D01*
X791511Y631094D01*
X791636Y631130D01*
X791761Y631171D01*
X791884Y631215D01*
X792006Y631263D01*
X792126Y631314D01*
X792245Y631369D01*
X792362Y631428D01*
X792477Y631490D01*
X792590Y631555D01*
X792702Y631624D01*
X792811Y631696D01*
X792918Y631771D01*
X793023Y631850D01*
X793125Y631931D01*
X793225Y632016D01*
X793322Y632104D01*
X793417Y632194D01*
X793509Y632287D01*
X793598Y632383D01*
X793684Y632482D01*
X793767Y632583D01*
X793847Y632686D01*
X793924Y632792D01*
X793997Y632900D01*
X794068Y633011D01*
X794135Y633123D01*
X794199Y633237D01*
X794259Y633353D01*
X794316Y633471D01*
X794369Y633591D01*
X794419Y633712D01*
X794465Y633835D01*
X794507Y633958D01*
X794545Y634083D01*
X794580Y634210D01*
X794611Y634337D01*
X794639Y634465D01*
X794662Y634593D01*
X794681Y634723D01*
X794697Y634853D01*
X794709Y634983D01*
X794717Y635114D01*
X794721Y635245D01*
X794721Y635375D01*
X794717Y635506D01*
X794709Y635637D01*
X794697Y635767D01*
X794681Y635897D01*
X794662Y636027D01*
X794639Y636155D01*
X794611Y636283D01*
X794580Y636410D01*
X794545Y636537D01*
X794507Y636662D01*
X794465Y636785D01*
X794419Y636908D01*
X794369Y637029D01*
X794316Y637149D01*
X794259Y637267D01*
X794199Y637383D01*
X794135Y637497D01*
X794068Y637609D01*
X793997Y637720D01*
X793924Y637828D01*
X793847Y637934D01*
X793767Y638037D01*
X793684Y638138D01*
X793598Y638237D01*
X793509Y638333D01*
X793417Y638426D01*
X793322Y638516D01*
X793225Y638604D01*
X793125Y638689D01*
X793023Y638770D01*
X792918Y638849D01*
X792811Y638924D01*
X792702Y638996D01*
X792590Y639065D01*
X792477Y639130D01*
X792362Y639192D01*
X792245Y639251D01*
X792126Y639306D01*
X792006Y639357D01*
X791884Y639405D01*
X791761Y639449D01*
X791636Y639490D01*
X791511Y639526D01*
X791384Y639559D01*
X791256Y639588D01*
X791128Y639614D01*
X790999Y639635D01*
X790869Y639653D01*
X790739Y639666D01*
X790609Y639676D01*
X790478Y639682D01*
X790347Y639684D01*
X791222Y646684D02*
X785972Y646684D01*
X791222Y646684D02*
X791340Y646682D01*
X791458Y646676D01*
X791576Y646666D01*
X791693Y646652D01*
X791810Y646634D01*
X791927Y646612D01*
X792042Y646587D01*
X792156Y646557D01*
X792270Y646523D01*
X792382Y646486D01*
X792493Y646445D01*
X792602Y646400D01*
X792710Y646352D01*
X792816Y646300D01*
X792921Y646244D01*
X793023Y646185D01*
X793123Y646123D01*
X793221Y646057D01*
X793317Y645988D01*
X793411Y645915D01*
X793502Y645840D01*
X793590Y645761D01*
X793676Y645680D01*
X793759Y645595D01*
X793839Y645508D01*
X793916Y645419D01*
X793990Y645326D01*
X794060Y645232D01*
X794128Y645135D01*
X794192Y645035D01*
X794253Y644934D01*
X794310Y644831D01*
X794364Y644725D01*
X794415Y644618D01*
X794461Y644510D01*
X794504Y644400D01*
X794543Y644288D01*
X794579Y644175D01*
X794610Y644061D01*
X794638Y643946D01*
X794662Y643831D01*
X794682Y643714D01*
X794698Y643597D01*
X794710Y643479D01*
X794718Y643361D01*
X794722Y643243D01*
X794722Y643125D01*
X794718Y643007D01*
X794710Y642889D01*
X794698Y642771D01*
X794682Y642654D01*
X794662Y642537D01*
X794638Y642422D01*
X794610Y642307D01*
X794579Y642193D01*
X794543Y642080D01*
X794504Y641968D01*
X794461Y641858D01*
X794415Y641750D01*
X794364Y641643D01*
X794310Y641537D01*
X794253Y641434D01*
X794192Y641333D01*
X794128Y641233D01*
X794060Y641136D01*
X793990Y641042D01*
X793916Y640949D01*
X793839Y640860D01*
X793759Y640773D01*
X793676Y640688D01*
X793590Y640607D01*
X793502Y640528D01*
X793411Y640453D01*
X793317Y640380D01*
X793221Y640311D01*
X793123Y640245D01*
X793023Y640183D01*
X792921Y640124D01*
X792816Y640068D01*
X792710Y640016D01*
X792602Y639968D01*
X792493Y639923D01*
X792382Y639882D01*
X792270Y639845D01*
X792156Y639811D01*
X792042Y639781D01*
X791927Y639756D01*
X791810Y639734D01*
X791693Y639716D01*
X791576Y639702D01*
X791458Y639692D01*
X791340Y639686D01*
X791222Y639684D01*
X791222Y639685D02*
X787722Y639685D01*
X801603Y638810D02*
X801607Y639120D01*
X801618Y639429D01*
X801636Y639739D01*
X801662Y640047D01*
X801695Y640355D01*
X801736Y640663D01*
X801784Y640969D01*
X801839Y641274D01*
X801901Y641577D01*
X801971Y641879D01*
X802048Y642179D01*
X802132Y642477D01*
X802223Y642773D01*
X802321Y643067D01*
X802426Y643359D01*
X802538Y643648D01*
X802657Y643934D01*
X802783Y644217D01*
X802915Y644497D01*
X802916Y644497D02*
X802954Y644602D01*
X802996Y644705D01*
X803041Y644807D01*
X803089Y644908D01*
X803141Y645006D01*
X803197Y645103D01*
X803255Y645198D01*
X803317Y645291D01*
X803382Y645381D01*
X803451Y645469D01*
X803522Y645555D01*
X803596Y645639D01*
X803673Y645719D01*
X803752Y645798D01*
X803835Y645873D01*
X803920Y645945D01*
X804007Y646015D01*
X804097Y646081D01*
X804188Y646144D01*
X804282Y646204D01*
X804378Y646261D01*
X804476Y646315D01*
X804576Y646365D01*
X804677Y646411D01*
X804780Y646454D01*
X804885Y646494D01*
X804990Y646530D01*
X805097Y646562D01*
X805205Y646590D01*
X805314Y646615D01*
X805423Y646636D01*
X805533Y646653D01*
X805644Y646667D01*
X805755Y646676D01*
X805866Y646682D01*
X805978Y646684D01*
X806090Y646682D01*
X806201Y646676D01*
X806312Y646667D01*
X806423Y646653D01*
X806533Y646636D01*
X806643Y646615D01*
X806751Y646590D01*
X806859Y646562D01*
X806966Y646530D01*
X807071Y646494D01*
X807176Y646454D01*
X807279Y646411D01*
X807380Y646365D01*
X807480Y646315D01*
X807578Y646261D01*
X807674Y646204D01*
X807768Y646144D01*
X807859Y646081D01*
X807949Y646015D01*
X808036Y645945D01*
X808121Y645873D01*
X808204Y645798D01*
X808283Y645719D01*
X808360Y645639D01*
X808434Y645555D01*
X808505Y645469D01*
X808574Y645381D01*
X808639Y645291D01*
X808701Y645198D01*
X808759Y645103D01*
X808815Y645006D01*
X808867Y644908D01*
X808915Y644807D01*
X808960Y644705D01*
X809002Y644602D01*
X809040Y644497D01*
X809172Y644217D01*
X809298Y643933D01*
X809417Y643647D01*
X809529Y643358D01*
X809634Y643067D01*
X809732Y642773D01*
X809823Y642477D01*
X809907Y642179D01*
X809984Y641879D01*
X810054Y641577D01*
X810116Y641273D01*
X810171Y640969D01*
X810219Y640663D01*
X810260Y640355D01*
X810293Y640047D01*
X810319Y639739D01*
X810337Y639429D01*
X810348Y639120D01*
X810352Y638810D01*
X801603Y638810D02*
X801607Y638500D01*
X801618Y638191D01*
X801636Y637881D01*
X801662Y637573D01*
X801695Y637265D01*
X801736Y636957D01*
X801784Y636651D01*
X801839Y636346D01*
X801901Y636043D01*
X801971Y635741D01*
X802048Y635441D01*
X802132Y635143D01*
X802223Y634847D01*
X802321Y634553D01*
X802426Y634261D01*
X802538Y633972D01*
X802657Y633686D01*
X802783Y633403D01*
X802915Y633123D01*
X802916Y633123D02*
X802954Y633018D01*
X802996Y632915D01*
X803041Y632813D01*
X803089Y632712D01*
X803141Y632614D01*
X803197Y632517D01*
X803255Y632422D01*
X803317Y632329D01*
X803382Y632239D01*
X803451Y632151D01*
X803522Y632065D01*
X803596Y631981D01*
X803673Y631901D01*
X803752Y631822D01*
X803835Y631747D01*
X803920Y631675D01*
X804007Y631605D01*
X804097Y631539D01*
X804188Y631476D01*
X804282Y631416D01*
X804378Y631359D01*
X804476Y631305D01*
X804576Y631255D01*
X804677Y631209D01*
X804780Y631166D01*
X804885Y631126D01*
X804990Y631090D01*
X805097Y631058D01*
X805205Y631030D01*
X805314Y631005D01*
X805423Y630984D01*
X805533Y630967D01*
X805644Y630953D01*
X805755Y630944D01*
X805866Y630938D01*
X805978Y630936D01*
X809041Y633123D02*
X809173Y633403D01*
X809299Y633686D01*
X809418Y633972D01*
X809530Y634261D01*
X809635Y634553D01*
X809733Y634847D01*
X809824Y635143D01*
X809908Y635441D01*
X809985Y635741D01*
X810055Y636043D01*
X810117Y636346D01*
X810172Y636651D01*
X810220Y636957D01*
X810261Y637265D01*
X810294Y637573D01*
X810320Y637881D01*
X810338Y638191D01*
X810349Y638500D01*
X810353Y638810D01*
X809040Y633123D02*
X809002Y633018D01*
X808960Y632915D01*
X808915Y632813D01*
X808867Y632712D01*
X808815Y632614D01*
X808759Y632517D01*
X808701Y632422D01*
X808639Y632329D01*
X808574Y632239D01*
X808505Y632151D01*
X808434Y632065D01*
X808360Y631981D01*
X808283Y631901D01*
X808204Y631822D01*
X808121Y631747D01*
X808036Y631675D01*
X807949Y631605D01*
X807859Y631539D01*
X807768Y631476D01*
X807674Y631416D01*
X807578Y631359D01*
X807480Y631305D01*
X807380Y631255D01*
X807279Y631209D01*
X807176Y631166D01*
X807071Y631126D01*
X806966Y631090D01*
X806859Y631058D01*
X806751Y631030D01*
X806642Y631005D01*
X806533Y630984D01*
X806423Y630967D01*
X806312Y630953D01*
X806201Y630944D01*
X806090Y630938D01*
X805978Y630936D01*
X802478Y634436D02*
X809478Y643184D01*
X817235Y643184D02*
X821609Y646684D01*
X821609Y630936D01*
X817235Y630936D02*
X825984Y630936D01*
X841978Y630936D02*
X841978Y646684D01*
X846352Y646684D01*
X846483Y646682D01*
X846614Y646676D01*
X846744Y646666D01*
X846874Y646653D01*
X847004Y646635D01*
X847133Y646614D01*
X847261Y646588D01*
X847389Y646559D01*
X847516Y646526D01*
X847641Y646490D01*
X847766Y646449D01*
X847889Y646405D01*
X848011Y646357D01*
X848131Y646306D01*
X848250Y646251D01*
X848367Y646192D01*
X848482Y646130D01*
X848595Y646065D01*
X848707Y645996D01*
X848816Y645924D01*
X848923Y645849D01*
X849028Y645770D01*
X849130Y645689D01*
X849230Y645604D01*
X849327Y645516D01*
X849422Y645426D01*
X849514Y645333D01*
X849603Y645237D01*
X849689Y645138D01*
X849772Y645037D01*
X849852Y644934D01*
X849929Y644828D01*
X850002Y644720D01*
X850073Y644609D01*
X850140Y644497D01*
X850204Y644383D01*
X850264Y644267D01*
X850321Y644149D01*
X850374Y644029D01*
X850424Y643908D01*
X850470Y643785D01*
X850512Y643662D01*
X850550Y643537D01*
X850585Y643410D01*
X850616Y643283D01*
X850644Y643155D01*
X850667Y643027D01*
X850686Y642897D01*
X850702Y642767D01*
X850714Y642637D01*
X850722Y642506D01*
X850726Y642375D01*
X850726Y642245D01*
X850722Y642114D01*
X850714Y641983D01*
X850702Y641853D01*
X850686Y641723D01*
X850667Y641593D01*
X850644Y641465D01*
X850616Y641337D01*
X850585Y641210D01*
X850550Y641083D01*
X850512Y640958D01*
X850470Y640835D01*
X850424Y640712D01*
X850374Y640591D01*
X850321Y640471D01*
X850264Y640353D01*
X850204Y640237D01*
X850140Y640123D01*
X850073Y640011D01*
X850002Y639900D01*
X849929Y639792D01*
X849852Y639686D01*
X849772Y639583D01*
X849689Y639482D01*
X849603Y639383D01*
X849514Y639287D01*
X849422Y639194D01*
X849327Y639104D01*
X849230Y639016D01*
X849130Y638931D01*
X849028Y638850D01*
X848923Y638771D01*
X848816Y638696D01*
X848707Y638624D01*
X848595Y638555D01*
X848482Y638490D01*
X848367Y638428D01*
X848250Y638369D01*
X848131Y638314D01*
X848011Y638263D01*
X847889Y638215D01*
X847766Y638171D01*
X847641Y638130D01*
X847516Y638094D01*
X847389Y638061D01*
X847261Y638032D01*
X847133Y638006D01*
X847004Y637985D01*
X846874Y637967D01*
X846744Y637954D01*
X846614Y637944D01*
X846483Y637938D01*
X846352Y637936D01*
X846352Y637935D02*
X841978Y637935D01*
X857290Y641435D02*
X857290Y630936D01*
X857290Y641435D02*
X862539Y641435D01*
X862539Y639685D01*
X867609Y637935D02*
X867609Y634436D01*
X867608Y637935D02*
X867610Y638053D01*
X867616Y638171D01*
X867626Y638289D01*
X867640Y638406D01*
X867658Y638523D01*
X867680Y638640D01*
X867705Y638755D01*
X867735Y638869D01*
X867769Y638983D01*
X867806Y639095D01*
X867847Y639206D01*
X867892Y639315D01*
X867940Y639423D01*
X867992Y639529D01*
X868048Y639634D01*
X868107Y639736D01*
X868169Y639836D01*
X868235Y639934D01*
X868304Y640030D01*
X868377Y640124D01*
X868452Y640215D01*
X868531Y640303D01*
X868612Y640389D01*
X868697Y640472D01*
X868784Y640552D01*
X868873Y640629D01*
X868966Y640703D01*
X869060Y640773D01*
X869157Y640841D01*
X869257Y640905D01*
X869358Y640966D01*
X869461Y641023D01*
X869567Y641077D01*
X869674Y641128D01*
X869782Y641174D01*
X869892Y641217D01*
X870004Y641256D01*
X870117Y641292D01*
X870231Y641323D01*
X870346Y641351D01*
X870461Y641375D01*
X870578Y641395D01*
X870695Y641411D01*
X870813Y641423D01*
X870931Y641431D01*
X871049Y641435D01*
X871167Y641435D01*
X871285Y641431D01*
X871403Y641423D01*
X871521Y641411D01*
X871638Y641395D01*
X871755Y641375D01*
X871870Y641351D01*
X871985Y641323D01*
X872099Y641292D01*
X872212Y641256D01*
X872324Y641217D01*
X872434Y641174D01*
X872542Y641128D01*
X872649Y641077D01*
X872755Y641023D01*
X872858Y640966D01*
X872959Y640905D01*
X873059Y640841D01*
X873156Y640773D01*
X873250Y640703D01*
X873343Y640629D01*
X873432Y640552D01*
X873519Y640472D01*
X873604Y640389D01*
X873685Y640303D01*
X873764Y640215D01*
X873839Y640124D01*
X873912Y640030D01*
X873981Y639934D01*
X874047Y639836D01*
X874109Y639736D01*
X874168Y639634D01*
X874224Y639529D01*
X874276Y639423D01*
X874324Y639315D01*
X874369Y639206D01*
X874410Y639095D01*
X874447Y638983D01*
X874481Y638869D01*
X874511Y638755D01*
X874536Y638640D01*
X874558Y638523D01*
X874576Y638406D01*
X874590Y638289D01*
X874600Y638171D01*
X874606Y638053D01*
X874608Y637935D01*
X874608Y634436D01*
X874606Y634318D01*
X874600Y634200D01*
X874590Y634082D01*
X874576Y633965D01*
X874558Y633848D01*
X874536Y633731D01*
X874511Y633616D01*
X874481Y633502D01*
X874447Y633388D01*
X874410Y633276D01*
X874369Y633165D01*
X874324Y633056D01*
X874276Y632948D01*
X874224Y632842D01*
X874168Y632737D01*
X874109Y632635D01*
X874047Y632535D01*
X873981Y632437D01*
X873912Y632341D01*
X873839Y632247D01*
X873764Y632156D01*
X873685Y632068D01*
X873604Y631982D01*
X873519Y631899D01*
X873432Y631819D01*
X873343Y631742D01*
X873250Y631668D01*
X873156Y631598D01*
X873059Y631530D01*
X872959Y631466D01*
X872858Y631405D01*
X872755Y631348D01*
X872649Y631294D01*
X872542Y631243D01*
X872434Y631197D01*
X872324Y631154D01*
X872212Y631115D01*
X872099Y631079D01*
X871985Y631048D01*
X871870Y631020D01*
X871755Y630996D01*
X871638Y630976D01*
X871521Y630960D01*
X871403Y630948D01*
X871285Y630940D01*
X871167Y630936D01*
X871049Y630936D01*
X870931Y630940D01*
X870813Y630948D01*
X870695Y630960D01*
X870578Y630976D01*
X870461Y630996D01*
X870346Y631020D01*
X870231Y631048D01*
X870117Y631079D01*
X870004Y631115D01*
X869892Y631154D01*
X869782Y631197D01*
X869674Y631243D01*
X869567Y631294D01*
X869461Y631348D01*
X869358Y631405D01*
X869257Y631466D01*
X869157Y631530D01*
X869060Y631598D01*
X868966Y631668D01*
X868873Y631742D01*
X868784Y631819D01*
X868697Y631899D01*
X868612Y631982D01*
X868531Y632068D01*
X868452Y632156D01*
X868377Y632247D01*
X868304Y632341D01*
X868235Y632437D01*
X868169Y632535D01*
X868107Y632635D01*
X868048Y632737D01*
X867992Y632842D01*
X867940Y632948D01*
X867892Y633056D01*
X867847Y633165D01*
X867806Y633276D01*
X867769Y633388D01*
X867735Y633502D01*
X867705Y633616D01*
X867680Y633731D01*
X867658Y633848D01*
X867640Y633965D01*
X867626Y634082D01*
X867616Y634200D01*
X867610Y634318D01*
X867608Y634436D01*
X880715Y628311D02*
X880715Y641435D01*
X880716Y628311D02*
X880714Y628210D01*
X880708Y628110D01*
X880699Y628010D01*
X880685Y627910D01*
X880668Y627811D01*
X880647Y627713D01*
X880622Y627615D01*
X880594Y627519D01*
X880561Y627424D01*
X880526Y627330D01*
X880486Y627237D01*
X880443Y627146D01*
X880397Y627057D01*
X880347Y626970D01*
X880294Y626884D01*
X880238Y626801D01*
X880179Y626720D01*
X880116Y626641D01*
X880051Y626565D01*
X879982Y626491D01*
X879911Y626420D01*
X879837Y626351D01*
X879761Y626286D01*
X879682Y626223D01*
X879601Y626164D01*
X879518Y626108D01*
X879432Y626055D01*
X879345Y626005D01*
X879256Y625959D01*
X879165Y625916D01*
X879072Y625876D01*
X878978Y625841D01*
X878883Y625808D01*
X878787Y625780D01*
X878689Y625755D01*
X878591Y625734D01*
X878492Y625717D01*
X878392Y625703D01*
X878292Y625694D01*
X878192Y625688D01*
X878091Y625686D01*
X878091Y625687D02*
X877216Y625687D01*
X880278Y645809D02*
X880278Y646684D01*
X881153Y646684D01*
X881153Y645809D01*
X880278Y645809D01*
X890033Y630936D02*
X894407Y630936D01*
X890033Y630936D02*
X889932Y630938D01*
X889832Y630944D01*
X889732Y630953D01*
X889632Y630967D01*
X889533Y630984D01*
X889435Y631005D01*
X889337Y631030D01*
X889241Y631058D01*
X889146Y631091D01*
X889052Y631126D01*
X888959Y631166D01*
X888868Y631209D01*
X888779Y631255D01*
X888692Y631305D01*
X888606Y631358D01*
X888523Y631414D01*
X888442Y631473D01*
X888363Y631536D01*
X888287Y631601D01*
X888213Y631670D01*
X888142Y631741D01*
X888073Y631815D01*
X888008Y631891D01*
X887945Y631970D01*
X887886Y632051D01*
X887830Y632134D01*
X887777Y632220D01*
X887727Y632307D01*
X887681Y632396D01*
X887638Y632487D01*
X887598Y632580D01*
X887563Y632674D01*
X887530Y632769D01*
X887502Y632865D01*
X887477Y632963D01*
X887456Y633061D01*
X887439Y633160D01*
X887425Y633260D01*
X887416Y633360D01*
X887410Y633460D01*
X887408Y633561D01*
X887408Y637935D01*
X887410Y638053D01*
X887416Y638171D01*
X887426Y638289D01*
X887440Y638406D01*
X887458Y638523D01*
X887480Y638640D01*
X887505Y638755D01*
X887535Y638869D01*
X887569Y638983D01*
X887606Y639095D01*
X887647Y639206D01*
X887692Y639315D01*
X887740Y639423D01*
X887792Y639529D01*
X887848Y639634D01*
X887907Y639736D01*
X887969Y639836D01*
X888035Y639934D01*
X888104Y640030D01*
X888177Y640124D01*
X888252Y640215D01*
X888331Y640303D01*
X888412Y640389D01*
X888497Y640472D01*
X888584Y640552D01*
X888673Y640629D01*
X888766Y640703D01*
X888860Y640773D01*
X888957Y640841D01*
X889057Y640905D01*
X889158Y640966D01*
X889261Y641023D01*
X889367Y641077D01*
X889474Y641128D01*
X889582Y641174D01*
X889692Y641217D01*
X889804Y641256D01*
X889917Y641292D01*
X890031Y641323D01*
X890146Y641351D01*
X890261Y641375D01*
X890378Y641395D01*
X890495Y641411D01*
X890613Y641423D01*
X890731Y641431D01*
X890849Y641435D01*
X890967Y641435D01*
X891085Y641431D01*
X891203Y641423D01*
X891321Y641411D01*
X891438Y641395D01*
X891555Y641375D01*
X891670Y641351D01*
X891785Y641323D01*
X891899Y641292D01*
X892012Y641256D01*
X892124Y641217D01*
X892234Y641174D01*
X892342Y641128D01*
X892449Y641077D01*
X892555Y641023D01*
X892658Y640966D01*
X892759Y640905D01*
X892859Y640841D01*
X892956Y640773D01*
X893050Y640703D01*
X893143Y640629D01*
X893232Y640552D01*
X893319Y640472D01*
X893404Y640389D01*
X893485Y640303D01*
X893564Y640215D01*
X893639Y640124D01*
X893712Y640030D01*
X893781Y639934D01*
X893847Y639836D01*
X893909Y639736D01*
X893968Y639634D01*
X894024Y639529D01*
X894076Y639423D01*
X894124Y639315D01*
X894169Y639206D01*
X894210Y639095D01*
X894247Y638983D01*
X894281Y638869D01*
X894311Y638755D01*
X894336Y638640D01*
X894358Y638523D01*
X894376Y638406D01*
X894390Y638289D01*
X894400Y638171D01*
X894406Y638053D01*
X894408Y637935D01*
X894407Y637935D02*
X894407Y636185D01*
X887408Y636185D01*
X903601Y630936D02*
X907101Y630936D01*
X903601Y630936D02*
X903500Y630938D01*
X903400Y630944D01*
X903300Y630953D01*
X903200Y630967D01*
X903101Y630984D01*
X903003Y631005D01*
X902905Y631030D01*
X902809Y631058D01*
X902714Y631091D01*
X902620Y631126D01*
X902527Y631166D01*
X902436Y631209D01*
X902347Y631255D01*
X902260Y631305D01*
X902174Y631358D01*
X902091Y631414D01*
X902010Y631473D01*
X901931Y631536D01*
X901855Y631601D01*
X901781Y631670D01*
X901710Y631741D01*
X901641Y631815D01*
X901576Y631891D01*
X901513Y631970D01*
X901454Y632051D01*
X901398Y632134D01*
X901345Y632220D01*
X901295Y632307D01*
X901249Y632396D01*
X901206Y632487D01*
X901166Y632580D01*
X901131Y632674D01*
X901098Y632769D01*
X901070Y632865D01*
X901045Y632963D01*
X901024Y633061D01*
X901007Y633160D01*
X900993Y633260D01*
X900984Y633360D01*
X900978Y633460D01*
X900976Y633561D01*
X900976Y638810D01*
X900978Y638911D01*
X900984Y639011D01*
X900993Y639111D01*
X901007Y639211D01*
X901024Y639310D01*
X901045Y639408D01*
X901070Y639506D01*
X901098Y639602D01*
X901131Y639697D01*
X901166Y639791D01*
X901206Y639884D01*
X901249Y639975D01*
X901295Y640064D01*
X901345Y640151D01*
X901398Y640237D01*
X901454Y640320D01*
X901513Y640401D01*
X901576Y640480D01*
X901641Y640556D01*
X901710Y640630D01*
X901781Y640701D01*
X901855Y640770D01*
X901931Y640835D01*
X902010Y640898D01*
X902091Y640957D01*
X902174Y641013D01*
X902260Y641066D01*
X902347Y641116D01*
X902436Y641162D01*
X902527Y641205D01*
X902620Y641245D01*
X902714Y641281D01*
X902809Y641313D01*
X902905Y641341D01*
X903003Y641366D01*
X903101Y641387D01*
X903200Y641404D01*
X903300Y641418D01*
X903400Y641427D01*
X903500Y641433D01*
X903601Y641435D01*
X907101Y641435D01*
X911590Y641435D02*
X916839Y641435D01*
X913340Y646684D02*
X913340Y633561D01*
X913342Y633460D01*
X913348Y633360D01*
X913357Y633260D01*
X913371Y633160D01*
X913388Y633061D01*
X913409Y632963D01*
X913434Y632865D01*
X913462Y632769D01*
X913495Y632674D01*
X913530Y632580D01*
X913570Y632487D01*
X913613Y632396D01*
X913659Y632307D01*
X913709Y632220D01*
X913762Y632134D01*
X913818Y632051D01*
X913877Y631970D01*
X913940Y631891D01*
X914005Y631815D01*
X914074Y631741D01*
X914145Y631670D01*
X914219Y631601D01*
X914295Y631536D01*
X914374Y631473D01*
X914455Y631414D01*
X914538Y631358D01*
X914624Y631305D01*
X914711Y631255D01*
X914800Y631209D01*
X914891Y631166D01*
X914984Y631126D01*
X915078Y631091D01*
X915173Y631058D01*
X915269Y631030D01*
X915367Y631005D01*
X915465Y630984D01*
X915564Y630967D01*
X915664Y630953D01*
X915764Y630944D01*
X915864Y630938D01*
X915965Y630936D01*
X916839Y630936D01*
X931342Y638810D02*
X931346Y639120D01*
X931357Y639429D01*
X931375Y639739D01*
X931401Y640047D01*
X931434Y640355D01*
X931475Y640663D01*
X931523Y640969D01*
X931578Y641274D01*
X931640Y641577D01*
X931710Y641879D01*
X931787Y642179D01*
X931871Y642477D01*
X931962Y642773D01*
X932060Y643067D01*
X932165Y643359D01*
X932277Y643648D01*
X932396Y643934D01*
X932522Y644217D01*
X932654Y644497D01*
X932655Y644497D02*
X932693Y644602D01*
X932735Y644705D01*
X932780Y644807D01*
X932828Y644908D01*
X932880Y645006D01*
X932936Y645103D01*
X932994Y645198D01*
X933056Y645291D01*
X933121Y645381D01*
X933190Y645469D01*
X933261Y645555D01*
X933335Y645639D01*
X933412Y645719D01*
X933491Y645798D01*
X933574Y645873D01*
X933659Y645945D01*
X933746Y646015D01*
X933836Y646081D01*
X933927Y646144D01*
X934021Y646204D01*
X934117Y646261D01*
X934215Y646315D01*
X934315Y646365D01*
X934416Y646411D01*
X934519Y646454D01*
X934624Y646494D01*
X934729Y646530D01*
X934836Y646562D01*
X934944Y646590D01*
X935053Y646615D01*
X935162Y646636D01*
X935272Y646653D01*
X935383Y646667D01*
X935494Y646676D01*
X935605Y646682D01*
X935717Y646684D01*
X935829Y646682D01*
X935940Y646676D01*
X936051Y646667D01*
X936162Y646653D01*
X936272Y646636D01*
X936382Y646615D01*
X936490Y646590D01*
X936598Y646562D01*
X936705Y646530D01*
X936810Y646494D01*
X936915Y646454D01*
X937018Y646411D01*
X937119Y646365D01*
X937219Y646315D01*
X937317Y646261D01*
X937413Y646204D01*
X937507Y646144D01*
X937598Y646081D01*
X937688Y646015D01*
X937775Y645945D01*
X937860Y645873D01*
X937943Y645798D01*
X938022Y645719D01*
X938099Y645639D01*
X938173Y645555D01*
X938244Y645469D01*
X938313Y645381D01*
X938378Y645291D01*
X938440Y645198D01*
X938498Y645103D01*
X938554Y645006D01*
X938606Y644908D01*
X938654Y644807D01*
X938699Y644705D01*
X938741Y644602D01*
X938779Y644497D01*
X938911Y644217D01*
X939037Y643933D01*
X939156Y643647D01*
X939268Y643358D01*
X939373Y643067D01*
X939471Y642773D01*
X939562Y642477D01*
X939646Y642179D01*
X939723Y641879D01*
X939793Y641577D01*
X939855Y641273D01*
X939910Y640969D01*
X939958Y640663D01*
X939999Y640355D01*
X940032Y640047D01*
X940058Y639739D01*
X940076Y639429D01*
X940087Y639120D01*
X940091Y638810D01*
X931343Y638810D02*
X931347Y638500D01*
X931358Y638191D01*
X931376Y637881D01*
X931402Y637573D01*
X931435Y637265D01*
X931476Y636957D01*
X931524Y636651D01*
X931579Y636346D01*
X931641Y636043D01*
X931711Y635741D01*
X931788Y635441D01*
X931872Y635143D01*
X931963Y634847D01*
X932061Y634553D01*
X932166Y634261D01*
X932278Y633972D01*
X932397Y633686D01*
X932523Y633403D01*
X932655Y633123D01*
X932693Y633018D01*
X932735Y632915D01*
X932780Y632813D01*
X932828Y632712D01*
X932880Y632614D01*
X932936Y632517D01*
X932994Y632422D01*
X933056Y632329D01*
X933121Y632239D01*
X933190Y632151D01*
X933261Y632065D01*
X933335Y631981D01*
X933412Y631901D01*
X933491Y631822D01*
X933574Y631747D01*
X933659Y631675D01*
X933746Y631605D01*
X933836Y631539D01*
X933927Y631476D01*
X934021Y631416D01*
X934117Y631359D01*
X934215Y631305D01*
X934315Y631255D01*
X934416Y631209D01*
X934519Y631166D01*
X934624Y631126D01*
X934729Y631090D01*
X934836Y631058D01*
X934944Y631030D01*
X935053Y631005D01*
X935162Y630984D01*
X935272Y630967D01*
X935383Y630953D01*
X935494Y630944D01*
X935605Y630938D01*
X935717Y630936D01*
X938780Y633123D02*
X938912Y633403D01*
X939038Y633686D01*
X939157Y633972D01*
X939269Y634261D01*
X939374Y634553D01*
X939472Y634847D01*
X939563Y635143D01*
X939647Y635441D01*
X939724Y635741D01*
X939794Y636043D01*
X939856Y636346D01*
X939911Y636651D01*
X939959Y636957D01*
X940000Y637265D01*
X940033Y637573D01*
X940059Y637881D01*
X940077Y638191D01*
X940088Y638500D01*
X940092Y638810D01*
X938779Y633123D02*
X938741Y633018D01*
X938699Y632915D01*
X938654Y632813D01*
X938606Y632712D01*
X938554Y632614D01*
X938498Y632517D01*
X938440Y632422D01*
X938378Y632329D01*
X938313Y632239D01*
X938244Y632151D01*
X938173Y632065D01*
X938099Y631981D01*
X938022Y631901D01*
X937943Y631822D01*
X937860Y631747D01*
X937775Y631675D01*
X937688Y631605D01*
X937598Y631539D01*
X937507Y631476D01*
X937413Y631416D01*
X937317Y631359D01*
X937219Y631305D01*
X937119Y631255D01*
X937018Y631209D01*
X936915Y631166D01*
X936810Y631126D01*
X936705Y631090D01*
X936598Y631058D01*
X936490Y631030D01*
X936381Y631005D01*
X936272Y630984D01*
X936162Y630967D01*
X936051Y630953D01*
X935940Y630944D01*
X935829Y630938D01*
X935717Y630936D01*
X932218Y634436D02*
X939217Y643184D01*
X951786Y646684D02*
X951910Y646682D01*
X952033Y646676D01*
X952157Y646667D01*
X952279Y646653D01*
X952402Y646636D01*
X952524Y646614D01*
X952645Y646589D01*
X952765Y646560D01*
X952884Y646528D01*
X953003Y646491D01*
X953120Y646451D01*
X953235Y646408D01*
X953350Y646360D01*
X953462Y646309D01*
X953573Y646255D01*
X953683Y646197D01*
X953790Y646136D01*
X953896Y646071D01*
X953999Y646003D01*
X954100Y645932D01*
X954199Y645858D01*
X954296Y645781D01*
X954390Y645700D01*
X954481Y645617D01*
X954570Y645531D01*
X954656Y645442D01*
X954739Y645351D01*
X954820Y645257D01*
X954897Y645160D01*
X954971Y645061D01*
X955042Y644960D01*
X955110Y644857D01*
X955175Y644751D01*
X955236Y644644D01*
X955294Y644534D01*
X955348Y644423D01*
X955399Y644311D01*
X955447Y644196D01*
X955490Y644081D01*
X955530Y643964D01*
X955567Y643845D01*
X955599Y643726D01*
X955628Y643606D01*
X955653Y643485D01*
X955675Y643363D01*
X955692Y643240D01*
X955706Y643118D01*
X955715Y642994D01*
X955721Y642871D01*
X955723Y642747D01*
X951786Y646684D02*
X951645Y646682D01*
X951503Y646676D01*
X951362Y646666D01*
X951222Y646652D01*
X951082Y646635D01*
X950942Y646613D01*
X950803Y646588D01*
X950665Y646558D01*
X950527Y646525D01*
X950391Y646488D01*
X950255Y646447D01*
X950121Y646402D01*
X949989Y646354D01*
X949857Y646302D01*
X949727Y646246D01*
X949599Y646187D01*
X949472Y646124D01*
X949348Y646057D01*
X949225Y645988D01*
X949104Y645914D01*
X948985Y645838D01*
X948868Y645758D01*
X948754Y645675D01*
X948642Y645588D01*
X948533Y645499D01*
X948426Y645407D01*
X948321Y645311D01*
X948220Y645213D01*
X948121Y645112D01*
X948025Y645008D01*
X947932Y644902D01*
X947842Y644793D01*
X947755Y644681D01*
X947671Y644567D01*
X947591Y644451D01*
X947513Y644333D01*
X947439Y644212D01*
X947369Y644090D01*
X947302Y643966D01*
X947238Y643839D01*
X947178Y643711D01*
X947121Y643582D01*
X947069Y643451D01*
X947019Y643318D01*
X946974Y643184D01*
X954411Y639685D02*
X954501Y639773D01*
X954589Y639865D01*
X954674Y639959D01*
X954756Y640056D01*
X954835Y640155D01*
X954912Y640256D01*
X954985Y640360D01*
X955055Y640465D01*
X955122Y640573D01*
X955185Y640683D01*
X955245Y640795D01*
X955302Y640908D01*
X955356Y641023D01*
X955406Y641140D01*
X955452Y641258D01*
X955495Y641377D01*
X955534Y641498D01*
X955570Y641619D01*
X955602Y641742D01*
X955630Y641866D01*
X955655Y641990D01*
X955676Y642115D01*
X955693Y642241D01*
X955706Y642367D01*
X955715Y642493D01*
X955721Y642620D01*
X955723Y642747D01*
X954411Y639685D02*
X946974Y630936D01*
X955723Y630936D01*
X719836Y613664D02*
X719836Y597916D01*
X719836Y613664D02*
X724210Y613664D01*
X724341Y613662D01*
X724472Y613656D01*
X724602Y613646D01*
X724732Y613633D01*
X724862Y613615D01*
X724991Y613594D01*
X725119Y613568D01*
X725247Y613539D01*
X725374Y613506D01*
X725499Y613470D01*
X725624Y613429D01*
X725747Y613385D01*
X725869Y613337D01*
X725989Y613286D01*
X726108Y613231D01*
X726225Y613172D01*
X726340Y613110D01*
X726453Y613045D01*
X726565Y612976D01*
X726674Y612904D01*
X726781Y612829D01*
X726886Y612750D01*
X726988Y612669D01*
X727088Y612584D01*
X727185Y612496D01*
X727280Y612406D01*
X727372Y612313D01*
X727461Y612217D01*
X727547Y612118D01*
X727630Y612017D01*
X727710Y611914D01*
X727787Y611808D01*
X727860Y611700D01*
X727931Y611589D01*
X727998Y611477D01*
X728062Y611363D01*
X728122Y611247D01*
X728179Y611129D01*
X728232Y611009D01*
X728282Y610888D01*
X728328Y610765D01*
X728370Y610642D01*
X728408Y610517D01*
X728443Y610390D01*
X728474Y610263D01*
X728502Y610135D01*
X728525Y610007D01*
X728544Y609877D01*
X728560Y609747D01*
X728572Y609617D01*
X728580Y609486D01*
X728584Y609355D01*
X728584Y609225D01*
X728580Y609094D01*
X728572Y608963D01*
X728560Y608833D01*
X728544Y608703D01*
X728525Y608573D01*
X728502Y608445D01*
X728474Y608317D01*
X728443Y608190D01*
X728408Y608063D01*
X728370Y607938D01*
X728328Y607815D01*
X728282Y607692D01*
X728232Y607571D01*
X728179Y607451D01*
X728122Y607333D01*
X728062Y607217D01*
X727998Y607103D01*
X727931Y606991D01*
X727860Y606880D01*
X727787Y606772D01*
X727710Y606666D01*
X727630Y606563D01*
X727547Y606462D01*
X727461Y606363D01*
X727372Y606267D01*
X727280Y606174D01*
X727185Y606084D01*
X727088Y605996D01*
X726988Y605911D01*
X726886Y605830D01*
X726781Y605751D01*
X726674Y605676D01*
X726565Y605604D01*
X726453Y605535D01*
X726340Y605470D01*
X726225Y605408D01*
X726108Y605349D01*
X725989Y605294D01*
X725869Y605243D01*
X725747Y605195D01*
X725624Y605151D01*
X725499Y605110D01*
X725374Y605074D01*
X725247Y605041D01*
X725119Y605012D01*
X724991Y604986D01*
X724862Y604965D01*
X724732Y604947D01*
X724602Y604934D01*
X724472Y604924D01*
X724341Y604918D01*
X724210Y604916D01*
X724210Y604915D02*
X719836Y604915D01*
X725085Y604915D02*
X728585Y597916D01*
X737815Y597916D02*
X742189Y597916D01*
X737815Y597916D02*
X737714Y597918D01*
X737614Y597924D01*
X737514Y597933D01*
X737414Y597947D01*
X737315Y597964D01*
X737217Y597985D01*
X737119Y598010D01*
X737023Y598038D01*
X736928Y598071D01*
X736834Y598106D01*
X736741Y598146D01*
X736650Y598189D01*
X736561Y598235D01*
X736474Y598285D01*
X736388Y598338D01*
X736305Y598394D01*
X736224Y598453D01*
X736145Y598516D01*
X736069Y598581D01*
X735995Y598650D01*
X735924Y598721D01*
X735855Y598795D01*
X735790Y598871D01*
X735727Y598950D01*
X735668Y599031D01*
X735612Y599114D01*
X735559Y599200D01*
X735509Y599287D01*
X735463Y599376D01*
X735420Y599467D01*
X735380Y599560D01*
X735345Y599654D01*
X735312Y599749D01*
X735284Y599845D01*
X735259Y599943D01*
X735238Y600041D01*
X735221Y600140D01*
X735207Y600240D01*
X735198Y600340D01*
X735192Y600440D01*
X735190Y600541D01*
X735190Y604915D01*
X735189Y604915D02*
X735191Y605033D01*
X735197Y605151D01*
X735207Y605269D01*
X735221Y605386D01*
X735239Y605503D01*
X735261Y605620D01*
X735286Y605735D01*
X735316Y605849D01*
X735350Y605963D01*
X735387Y606075D01*
X735428Y606186D01*
X735473Y606295D01*
X735521Y606403D01*
X735573Y606509D01*
X735629Y606614D01*
X735688Y606716D01*
X735750Y606816D01*
X735816Y606914D01*
X735885Y607010D01*
X735958Y607104D01*
X736033Y607195D01*
X736112Y607283D01*
X736193Y607369D01*
X736278Y607452D01*
X736365Y607532D01*
X736454Y607609D01*
X736547Y607683D01*
X736641Y607753D01*
X736738Y607821D01*
X736838Y607885D01*
X736939Y607946D01*
X737042Y608003D01*
X737148Y608057D01*
X737255Y608108D01*
X737363Y608154D01*
X737473Y608197D01*
X737585Y608236D01*
X737698Y608272D01*
X737812Y608303D01*
X737927Y608331D01*
X738042Y608355D01*
X738159Y608375D01*
X738276Y608391D01*
X738394Y608403D01*
X738512Y608411D01*
X738630Y608415D01*
X738748Y608415D01*
X738866Y608411D01*
X738984Y608403D01*
X739102Y608391D01*
X739219Y608375D01*
X739336Y608355D01*
X739451Y608331D01*
X739566Y608303D01*
X739680Y608272D01*
X739793Y608236D01*
X739905Y608197D01*
X740015Y608154D01*
X740123Y608108D01*
X740230Y608057D01*
X740336Y608003D01*
X740439Y607946D01*
X740540Y607885D01*
X740640Y607821D01*
X740737Y607753D01*
X740831Y607683D01*
X740924Y607609D01*
X741013Y607532D01*
X741100Y607452D01*
X741185Y607369D01*
X741266Y607283D01*
X741345Y607195D01*
X741420Y607104D01*
X741493Y607010D01*
X741562Y606914D01*
X741628Y606816D01*
X741690Y606716D01*
X741749Y606614D01*
X741805Y606509D01*
X741857Y606403D01*
X741905Y606295D01*
X741950Y606186D01*
X741991Y606075D01*
X742028Y605963D01*
X742062Y605849D01*
X742092Y605735D01*
X742117Y605620D01*
X742139Y605503D01*
X742157Y605386D01*
X742171Y605269D01*
X742181Y605151D01*
X742187Y605033D01*
X742189Y604915D01*
X742189Y603165D01*
X735190Y603165D01*
X748216Y608415D02*
X751715Y597916D01*
X755215Y608415D01*
X761094Y608415D02*
X761094Y597916D01*
X760657Y612789D02*
X760657Y613664D01*
X761532Y613664D01*
X761532Y612789D01*
X760657Y612789D01*
X768807Y604040D02*
X773181Y602290D01*
X768807Y604040D02*
X768720Y604077D01*
X768635Y604117D01*
X768552Y604161D01*
X768471Y604208D01*
X768392Y604258D01*
X768315Y604312D01*
X768240Y604369D01*
X768167Y604429D01*
X768098Y604492D01*
X768030Y604557D01*
X767966Y604626D01*
X767904Y604697D01*
X767846Y604770D01*
X767791Y604846D01*
X767738Y604924D01*
X767689Y605004D01*
X767644Y605086D01*
X767602Y605170D01*
X767563Y605256D01*
X767528Y605343D01*
X767496Y605432D01*
X767469Y605521D01*
X767445Y605612D01*
X767424Y605704D01*
X767408Y605797D01*
X767396Y605890D01*
X767387Y605983D01*
X767382Y606077D01*
X767381Y606171D01*
X767384Y606265D01*
X767391Y606359D01*
X767402Y606452D01*
X767416Y606545D01*
X767435Y606637D01*
X767457Y606728D01*
X767483Y606818D01*
X767513Y606907D01*
X767546Y606995D01*
X767583Y607082D01*
X767623Y607166D01*
X767667Y607249D01*
X767715Y607330D01*
X767766Y607410D01*
X767820Y607486D01*
X767877Y607561D01*
X767937Y607633D01*
X768000Y607703D01*
X768066Y607770D01*
X768134Y607834D01*
X768206Y607895D01*
X768279Y607954D01*
X768355Y608009D01*
X768433Y608061D01*
X768514Y608109D01*
X768596Y608155D01*
X768680Y608197D01*
X768766Y608235D01*
X768853Y608270D01*
X768942Y608301D01*
X769032Y608328D01*
X769123Y608352D01*
X769214Y608372D01*
X769307Y608388D01*
X769400Y608400D01*
X769494Y608409D01*
X769587Y608413D01*
X769681Y608414D01*
X769681Y608415D02*
X769920Y608409D01*
X770158Y608397D01*
X770397Y608379D01*
X770634Y608355D01*
X770872Y608326D01*
X771108Y608291D01*
X771343Y608251D01*
X771578Y608205D01*
X771811Y608153D01*
X772043Y608095D01*
X772273Y608032D01*
X772502Y607964D01*
X772729Y607890D01*
X772955Y607810D01*
X773178Y607726D01*
X773399Y607636D01*
X773618Y607540D01*
X773181Y602290D02*
X773268Y602253D01*
X773353Y602213D01*
X773436Y602169D01*
X773517Y602122D01*
X773596Y602072D01*
X773673Y602018D01*
X773748Y601961D01*
X773821Y601901D01*
X773890Y601838D01*
X773958Y601773D01*
X774022Y601704D01*
X774084Y601633D01*
X774142Y601560D01*
X774197Y601484D01*
X774250Y601406D01*
X774299Y601326D01*
X774344Y601244D01*
X774386Y601160D01*
X774425Y601074D01*
X774460Y600987D01*
X774492Y600898D01*
X774519Y600809D01*
X774543Y600718D01*
X774564Y600626D01*
X774580Y600533D01*
X774592Y600440D01*
X774601Y600347D01*
X774606Y600253D01*
X774607Y600159D01*
X774604Y600065D01*
X774597Y599971D01*
X774586Y599878D01*
X774572Y599785D01*
X774553Y599693D01*
X774531Y599602D01*
X774505Y599512D01*
X774475Y599423D01*
X774442Y599335D01*
X774405Y599248D01*
X774365Y599164D01*
X774321Y599081D01*
X774273Y599000D01*
X774222Y598920D01*
X774168Y598844D01*
X774111Y598769D01*
X774051Y598697D01*
X773988Y598627D01*
X773922Y598560D01*
X773854Y598496D01*
X773782Y598435D01*
X773709Y598376D01*
X773633Y598321D01*
X773555Y598269D01*
X773474Y598221D01*
X773392Y598175D01*
X773308Y598133D01*
X773222Y598095D01*
X773135Y598060D01*
X773046Y598029D01*
X772956Y598002D01*
X772865Y597978D01*
X772774Y597958D01*
X772681Y597942D01*
X772588Y597930D01*
X772494Y597921D01*
X772401Y597917D01*
X772307Y597916D01*
X772306Y597916D02*
X771955Y597925D01*
X771604Y597942D01*
X771254Y597968D01*
X770905Y598002D01*
X770557Y598044D01*
X770210Y598095D01*
X769864Y598153D01*
X769519Y598220D01*
X769176Y598295D01*
X768835Y598378D01*
X768496Y598469D01*
X768160Y598568D01*
X767825Y598675D01*
X767494Y598790D01*
X780894Y597916D02*
X780894Y608415D01*
X780456Y612789D02*
X780456Y613664D01*
X781331Y613664D01*
X781331Y612789D01*
X780456Y612789D01*
X787294Y604915D02*
X787294Y601416D01*
X787293Y604915D02*
X787295Y605033D01*
X787301Y605151D01*
X787311Y605269D01*
X787325Y605386D01*
X787343Y605503D01*
X787365Y605620D01*
X787390Y605735D01*
X787420Y605849D01*
X787454Y605963D01*
X787491Y606075D01*
X787532Y606186D01*
X787577Y606295D01*
X787625Y606403D01*
X787677Y606509D01*
X787733Y606614D01*
X787792Y606716D01*
X787854Y606816D01*
X787920Y606914D01*
X787989Y607010D01*
X788062Y607104D01*
X788137Y607195D01*
X788216Y607283D01*
X788297Y607369D01*
X788382Y607452D01*
X788469Y607532D01*
X788558Y607609D01*
X788651Y607683D01*
X788745Y607753D01*
X788842Y607821D01*
X788942Y607885D01*
X789043Y607946D01*
X789146Y608003D01*
X789252Y608057D01*
X789359Y608108D01*
X789467Y608154D01*
X789577Y608197D01*
X789689Y608236D01*
X789802Y608272D01*
X789916Y608303D01*
X790031Y608331D01*
X790146Y608355D01*
X790263Y608375D01*
X790380Y608391D01*
X790498Y608403D01*
X790616Y608411D01*
X790734Y608415D01*
X790852Y608415D01*
X790970Y608411D01*
X791088Y608403D01*
X791206Y608391D01*
X791323Y608375D01*
X791440Y608355D01*
X791555Y608331D01*
X791670Y608303D01*
X791784Y608272D01*
X791897Y608236D01*
X792009Y608197D01*
X792119Y608154D01*
X792227Y608108D01*
X792334Y608057D01*
X792440Y608003D01*
X792543Y607946D01*
X792644Y607885D01*
X792744Y607821D01*
X792841Y607753D01*
X792935Y607683D01*
X793028Y607609D01*
X793117Y607532D01*
X793204Y607452D01*
X793289Y607369D01*
X793370Y607283D01*
X793449Y607195D01*
X793524Y607104D01*
X793597Y607010D01*
X793666Y606914D01*
X793732Y606816D01*
X793794Y606716D01*
X793853Y606614D01*
X793909Y606509D01*
X793961Y606403D01*
X794009Y606295D01*
X794054Y606186D01*
X794095Y606075D01*
X794132Y605963D01*
X794166Y605849D01*
X794196Y605735D01*
X794221Y605620D01*
X794243Y605503D01*
X794261Y605386D01*
X794275Y605269D01*
X794285Y605151D01*
X794291Y605033D01*
X794293Y604915D01*
X794293Y601416D01*
X794291Y601298D01*
X794285Y601180D01*
X794275Y601062D01*
X794261Y600945D01*
X794243Y600828D01*
X794221Y600711D01*
X794196Y600596D01*
X794166Y600482D01*
X794132Y600368D01*
X794095Y600256D01*
X794054Y600145D01*
X794009Y600036D01*
X793961Y599928D01*
X793909Y599822D01*
X793853Y599717D01*
X793794Y599615D01*
X793732Y599515D01*
X793666Y599417D01*
X793597Y599321D01*
X793524Y599227D01*
X793449Y599136D01*
X793370Y599048D01*
X793289Y598962D01*
X793204Y598879D01*
X793117Y598799D01*
X793028Y598722D01*
X792935Y598648D01*
X792841Y598578D01*
X792744Y598510D01*
X792644Y598446D01*
X792543Y598385D01*
X792440Y598328D01*
X792334Y598274D01*
X792227Y598223D01*
X792119Y598177D01*
X792009Y598134D01*
X791897Y598095D01*
X791784Y598059D01*
X791670Y598028D01*
X791555Y598000D01*
X791440Y597976D01*
X791323Y597956D01*
X791206Y597940D01*
X791088Y597928D01*
X790970Y597920D01*
X790852Y597916D01*
X790734Y597916D01*
X790616Y597920D01*
X790498Y597928D01*
X790380Y597940D01*
X790263Y597956D01*
X790146Y597976D01*
X790031Y598000D01*
X789916Y598028D01*
X789802Y598059D01*
X789689Y598095D01*
X789577Y598134D01*
X789467Y598177D01*
X789359Y598223D01*
X789252Y598274D01*
X789146Y598328D01*
X789043Y598385D01*
X788942Y598446D01*
X788842Y598510D01*
X788745Y598578D01*
X788651Y598648D01*
X788558Y598722D01*
X788469Y598799D01*
X788382Y598879D01*
X788297Y598962D01*
X788216Y599048D01*
X788137Y599136D01*
X788062Y599227D01*
X787989Y599321D01*
X787920Y599417D01*
X787854Y599515D01*
X787792Y599615D01*
X787733Y599717D01*
X787677Y599822D01*
X787625Y599928D01*
X787577Y600036D01*
X787532Y600145D01*
X787491Y600256D01*
X787454Y600368D01*
X787420Y600482D01*
X787390Y600596D01*
X787365Y600711D01*
X787343Y600828D01*
X787325Y600945D01*
X787311Y601062D01*
X787301Y601180D01*
X787295Y601298D01*
X787293Y601416D01*
X801362Y597916D02*
X801362Y608415D01*
X805736Y608415D01*
X805837Y608413D01*
X805937Y608407D01*
X806037Y608398D01*
X806137Y608384D01*
X806236Y608367D01*
X806334Y608346D01*
X806432Y608321D01*
X806528Y608293D01*
X806623Y608260D01*
X806717Y608225D01*
X806810Y608185D01*
X806901Y608142D01*
X806990Y608096D01*
X807077Y608046D01*
X807163Y607993D01*
X807246Y607937D01*
X807327Y607878D01*
X807406Y607815D01*
X807482Y607750D01*
X807556Y607681D01*
X807627Y607610D01*
X807696Y607536D01*
X807761Y607460D01*
X807824Y607381D01*
X807883Y607300D01*
X807939Y607217D01*
X807992Y607131D01*
X808042Y607044D01*
X808088Y606955D01*
X808131Y606864D01*
X808171Y606771D01*
X808206Y606677D01*
X808239Y606582D01*
X808267Y606486D01*
X808292Y606388D01*
X808313Y606290D01*
X808330Y606191D01*
X808344Y606091D01*
X808353Y605991D01*
X808359Y605891D01*
X808361Y605790D01*
X808361Y597916D01*
X823934Y610164D02*
X828308Y613664D01*
X828308Y597916D01*
X823934Y597916D02*
X832683Y597916D01*
X838690Y597916D02*
X843940Y613664D01*
X849189Y597916D01*
X847877Y601853D02*
X840003Y601853D01*
X726835Y569976D02*
X719836Y569976D01*
X719836Y585724D01*
X726835Y585724D01*
X725085Y578725D02*
X719836Y578725D01*
X736159Y585724D02*
X736159Y569976D01*
X731784Y585724D02*
X740533Y585724D01*
D11*
X930402Y138938D02*
X930402Y127762D01*
X930402Y138938D02*
X933506Y138938D01*
X933617Y138936D01*
X933727Y138930D01*
X933838Y138920D01*
X933948Y138906D01*
X934057Y138889D01*
X934166Y138867D01*
X934274Y138842D01*
X934380Y138812D01*
X934486Y138779D01*
X934591Y138742D01*
X934694Y138702D01*
X934795Y138657D01*
X934895Y138610D01*
X934994Y138558D01*
X935090Y138503D01*
X935184Y138445D01*
X935276Y138384D01*
X935366Y138319D01*
X935454Y138251D01*
X935539Y138180D01*
X935621Y138106D01*
X935701Y138029D01*
X935778Y137949D01*
X935852Y137867D01*
X935923Y137782D01*
X935991Y137694D01*
X936056Y137604D01*
X936117Y137512D01*
X936175Y137418D01*
X936230Y137322D01*
X936282Y137223D01*
X936329Y137123D01*
X936374Y137022D01*
X936414Y136919D01*
X936451Y136814D01*
X936484Y136708D01*
X936514Y136602D01*
X936539Y136494D01*
X936561Y136385D01*
X936578Y136276D01*
X936592Y136166D01*
X936602Y136055D01*
X936608Y135945D01*
X936610Y135834D01*
X936608Y135723D01*
X936602Y135613D01*
X936592Y135502D01*
X936578Y135392D01*
X936561Y135283D01*
X936539Y135174D01*
X936514Y135066D01*
X936484Y134960D01*
X936451Y134854D01*
X936414Y134749D01*
X936374Y134646D01*
X936329Y134545D01*
X936282Y134445D01*
X936230Y134346D01*
X936175Y134250D01*
X936117Y134156D01*
X936056Y134064D01*
X935991Y133974D01*
X935923Y133886D01*
X935852Y133801D01*
X935778Y133719D01*
X935701Y133639D01*
X935621Y133562D01*
X935539Y133488D01*
X935454Y133417D01*
X935366Y133349D01*
X935276Y133284D01*
X935184Y133223D01*
X935090Y133165D01*
X934994Y133110D01*
X934895Y133058D01*
X934795Y133011D01*
X934694Y132966D01*
X934591Y132926D01*
X934486Y132889D01*
X934380Y132856D01*
X934274Y132826D01*
X934166Y132801D01*
X934057Y132779D01*
X933948Y132762D01*
X933838Y132748D01*
X933727Y132738D01*
X933617Y132732D01*
X933506Y132730D01*
X933506Y132729D02*
X930402Y132729D01*
X934127Y132729D02*
X936611Y127762D01*
X941740Y127762D02*
X945465Y127762D01*
X945563Y127764D01*
X945660Y127770D01*
X945757Y127779D01*
X945854Y127793D01*
X945950Y127810D01*
X946045Y127831D01*
X946139Y127855D01*
X946233Y127884D01*
X946325Y127916D01*
X946416Y127951D01*
X946505Y127990D01*
X946593Y128033D01*
X946679Y128079D01*
X946763Y128128D01*
X946845Y128181D01*
X946925Y128236D01*
X947003Y128295D01*
X947078Y128357D01*
X947151Y128422D01*
X947221Y128490D01*
X947289Y128560D01*
X947354Y128633D01*
X947416Y128708D01*
X947475Y128786D01*
X947530Y128866D01*
X947583Y128948D01*
X947632Y129032D01*
X947678Y129118D01*
X947721Y129206D01*
X947760Y129295D01*
X947795Y129386D01*
X947827Y129478D01*
X947856Y129572D01*
X947880Y129666D01*
X947901Y129761D01*
X947918Y129857D01*
X947932Y129954D01*
X947941Y130051D01*
X947947Y130148D01*
X947949Y130246D01*
X947949Y131487D01*
X947947Y131585D01*
X947941Y131682D01*
X947932Y131779D01*
X947918Y131876D01*
X947901Y131972D01*
X947880Y132067D01*
X947856Y132161D01*
X947827Y132255D01*
X947795Y132347D01*
X947760Y132438D01*
X947721Y132527D01*
X947678Y132615D01*
X947632Y132701D01*
X947583Y132785D01*
X947530Y132867D01*
X947475Y132947D01*
X947416Y133025D01*
X947354Y133100D01*
X947289Y133173D01*
X947221Y133243D01*
X947151Y133311D01*
X947078Y133376D01*
X947003Y133438D01*
X946925Y133497D01*
X946845Y133552D01*
X946763Y133605D01*
X946679Y133654D01*
X946593Y133700D01*
X946505Y133743D01*
X946416Y133782D01*
X946325Y133817D01*
X946233Y133849D01*
X946139Y133878D01*
X946045Y133902D01*
X945950Y133923D01*
X945854Y133940D01*
X945757Y133954D01*
X945660Y133963D01*
X945563Y133969D01*
X945465Y133971D01*
X941740Y133971D01*
X941740Y138938D01*
X947949Y138938D01*
D12*
X368280Y396260D02*
X270780Y396260D01*
X170780Y396260D01*
X145780Y396260D01*
X48280Y396260D01*
X48280Y716260D01*
X145780Y716260D01*
X170780Y716260D01*
X270780Y716260D01*
X368280Y716260D01*
X368280Y396260D01*
X270780Y396260D02*
X270780Y426260D01*
X170780Y426260D01*
X145780Y426260D01*
X145780Y396260D01*
X170780Y396260D02*
X170780Y426260D01*
X270780Y686260D02*
X270780Y716260D01*
X270780Y686260D02*
X170780Y686260D01*
X145780Y686260D01*
X145780Y716260D01*
X170780Y716260D02*
X170780Y686260D01*
X68580Y695960D02*
X68580Y657860D01*
X76200Y665480D01*
X68580Y657860D02*
X60960Y665480D01*
X68580Y454660D02*
X68580Y416560D01*
X76200Y424180D01*
X68580Y416560D02*
X60960Y424180D01*
D11*
X62992Y631769D02*
X74168Y631769D01*
X74168Y633010D02*
X74168Y630527D01*
X62992Y630527D02*
X62992Y633010D01*
X62992Y638189D02*
X74168Y638189D01*
X74168Y644398D02*
X62992Y638189D01*
X62992Y644398D02*
X74168Y644398D01*
X71064Y462929D02*
X66096Y462929D01*
X66096Y462930D02*
X65985Y462932D01*
X65875Y462938D01*
X65764Y462948D01*
X65654Y462962D01*
X65545Y462979D01*
X65436Y463001D01*
X65328Y463026D01*
X65222Y463056D01*
X65116Y463089D01*
X65011Y463126D01*
X64908Y463166D01*
X64807Y463211D01*
X64707Y463258D01*
X64608Y463310D01*
X64512Y463365D01*
X64418Y463423D01*
X64326Y463484D01*
X64236Y463549D01*
X64148Y463617D01*
X64063Y463688D01*
X63981Y463762D01*
X63901Y463839D01*
X63824Y463919D01*
X63750Y464001D01*
X63679Y464086D01*
X63611Y464174D01*
X63546Y464264D01*
X63485Y464356D01*
X63427Y464450D01*
X63372Y464546D01*
X63320Y464645D01*
X63273Y464745D01*
X63228Y464846D01*
X63188Y464949D01*
X63151Y465054D01*
X63118Y465160D01*
X63088Y465266D01*
X63063Y465374D01*
X63041Y465483D01*
X63024Y465592D01*
X63010Y465702D01*
X63000Y465813D01*
X62994Y465923D01*
X62992Y466034D01*
X62994Y466145D01*
X63000Y466255D01*
X63010Y466366D01*
X63024Y466476D01*
X63041Y466585D01*
X63063Y466694D01*
X63088Y466802D01*
X63118Y466908D01*
X63151Y467014D01*
X63188Y467119D01*
X63228Y467222D01*
X63273Y467323D01*
X63320Y467423D01*
X63372Y467522D01*
X63427Y467618D01*
X63485Y467712D01*
X63546Y467804D01*
X63611Y467894D01*
X63679Y467982D01*
X63750Y468067D01*
X63824Y468149D01*
X63901Y468229D01*
X63981Y468306D01*
X64063Y468380D01*
X64148Y468451D01*
X64236Y468519D01*
X64326Y468584D01*
X64418Y468645D01*
X64512Y468703D01*
X64608Y468758D01*
X64707Y468810D01*
X64807Y468857D01*
X64908Y468902D01*
X65011Y468942D01*
X65116Y468979D01*
X65222Y469012D01*
X65328Y469042D01*
X65436Y469067D01*
X65545Y469089D01*
X65654Y469106D01*
X65764Y469120D01*
X65875Y469130D01*
X65985Y469136D01*
X66096Y469138D01*
X71064Y469138D01*
X71175Y469136D01*
X71285Y469130D01*
X71396Y469120D01*
X71506Y469106D01*
X71615Y469089D01*
X71724Y469067D01*
X71832Y469042D01*
X71938Y469012D01*
X72044Y468979D01*
X72149Y468942D01*
X72252Y468902D01*
X72353Y468857D01*
X72453Y468810D01*
X72552Y468758D01*
X72648Y468703D01*
X72742Y468645D01*
X72834Y468584D01*
X72924Y468519D01*
X73012Y468451D01*
X73097Y468380D01*
X73179Y468306D01*
X73259Y468229D01*
X73336Y468149D01*
X73410Y468067D01*
X73481Y467982D01*
X73549Y467894D01*
X73614Y467804D01*
X73675Y467712D01*
X73733Y467618D01*
X73788Y467522D01*
X73840Y467423D01*
X73887Y467323D01*
X73932Y467222D01*
X73972Y467119D01*
X74009Y467014D01*
X74042Y466908D01*
X74072Y466802D01*
X74097Y466694D01*
X74119Y466585D01*
X74136Y466476D01*
X74150Y466366D01*
X74160Y466255D01*
X74166Y466145D01*
X74168Y466034D01*
X74166Y465923D01*
X74160Y465813D01*
X74150Y465702D01*
X74136Y465592D01*
X74119Y465483D01*
X74097Y465374D01*
X74072Y465266D01*
X74042Y465160D01*
X74009Y465054D01*
X73972Y464949D01*
X73932Y464846D01*
X73887Y464745D01*
X73840Y464645D01*
X73788Y464546D01*
X73733Y464450D01*
X73675Y464356D01*
X73614Y464264D01*
X73549Y464174D01*
X73481Y464086D01*
X73410Y464001D01*
X73336Y463919D01*
X73259Y463839D01*
X73179Y463762D01*
X73097Y463688D01*
X73012Y463617D01*
X72924Y463549D01*
X72834Y463484D01*
X72742Y463423D01*
X72648Y463365D01*
X72552Y463310D01*
X72453Y463258D01*
X72353Y463211D01*
X72252Y463166D01*
X72149Y463126D01*
X72044Y463089D01*
X71938Y463056D01*
X71832Y463026D01*
X71724Y463001D01*
X71615Y462979D01*
X71506Y462962D01*
X71396Y462948D01*
X71285Y462938D01*
X71175Y462932D01*
X71064Y462930D01*
X71064Y474740D02*
X62992Y474740D01*
X71064Y474741D02*
X71175Y474743D01*
X71285Y474749D01*
X71396Y474759D01*
X71506Y474773D01*
X71615Y474790D01*
X71724Y474812D01*
X71832Y474837D01*
X71938Y474867D01*
X72044Y474900D01*
X72149Y474937D01*
X72252Y474977D01*
X72353Y475022D01*
X72453Y475069D01*
X72552Y475121D01*
X72648Y475176D01*
X72742Y475234D01*
X72834Y475295D01*
X72924Y475360D01*
X73012Y475428D01*
X73097Y475499D01*
X73179Y475573D01*
X73259Y475650D01*
X73336Y475730D01*
X73410Y475812D01*
X73481Y475897D01*
X73549Y475985D01*
X73614Y476075D01*
X73675Y476167D01*
X73733Y476261D01*
X73788Y476357D01*
X73840Y476456D01*
X73887Y476556D01*
X73932Y476657D01*
X73972Y476760D01*
X74009Y476865D01*
X74042Y476971D01*
X74072Y477077D01*
X74097Y477185D01*
X74119Y477294D01*
X74136Y477403D01*
X74150Y477513D01*
X74160Y477624D01*
X74166Y477734D01*
X74168Y477845D01*
X74166Y477956D01*
X74160Y478066D01*
X74150Y478177D01*
X74136Y478287D01*
X74119Y478396D01*
X74097Y478505D01*
X74072Y478613D01*
X74042Y478719D01*
X74009Y478825D01*
X73972Y478930D01*
X73932Y479033D01*
X73887Y479134D01*
X73840Y479234D01*
X73788Y479333D01*
X73733Y479429D01*
X73675Y479523D01*
X73614Y479615D01*
X73549Y479705D01*
X73481Y479793D01*
X73410Y479878D01*
X73336Y479960D01*
X73259Y480040D01*
X73179Y480117D01*
X73097Y480191D01*
X73012Y480262D01*
X72924Y480330D01*
X72834Y480395D01*
X72742Y480456D01*
X72648Y480514D01*
X72552Y480569D01*
X72453Y480621D01*
X72353Y480668D01*
X72252Y480713D01*
X72149Y480753D01*
X72044Y480790D01*
X71938Y480823D01*
X71832Y480853D01*
X71724Y480878D01*
X71615Y480900D01*
X71506Y480917D01*
X71396Y480931D01*
X71285Y480941D01*
X71175Y480947D01*
X71064Y480949D01*
X62992Y480949D01*
X62992Y488894D02*
X74168Y488894D01*
X62992Y485789D02*
X62992Y491998D01*
X348742Y725226D02*
X348742Y733298D01*
X348742Y725226D02*
X348744Y725115D01*
X348750Y725005D01*
X348760Y724894D01*
X348774Y724784D01*
X348791Y724675D01*
X348813Y724566D01*
X348838Y724458D01*
X348868Y724352D01*
X348901Y724246D01*
X348938Y724141D01*
X348978Y724038D01*
X349023Y723937D01*
X349070Y723837D01*
X349122Y723738D01*
X349177Y723642D01*
X349235Y723548D01*
X349296Y723456D01*
X349361Y723366D01*
X349429Y723278D01*
X349500Y723193D01*
X349574Y723111D01*
X349651Y723031D01*
X349731Y722954D01*
X349813Y722880D01*
X349898Y722809D01*
X349986Y722741D01*
X350076Y722676D01*
X350168Y722615D01*
X350262Y722557D01*
X350358Y722502D01*
X350457Y722450D01*
X350557Y722403D01*
X350658Y722358D01*
X350761Y722318D01*
X350866Y722281D01*
X350972Y722248D01*
X351078Y722218D01*
X351186Y722193D01*
X351295Y722171D01*
X351404Y722154D01*
X351514Y722140D01*
X351625Y722130D01*
X351735Y722124D01*
X351846Y722122D01*
X351957Y722124D01*
X352067Y722130D01*
X352178Y722140D01*
X352288Y722154D01*
X352397Y722171D01*
X352506Y722193D01*
X352614Y722218D01*
X352720Y722248D01*
X352826Y722281D01*
X352931Y722318D01*
X353034Y722358D01*
X353135Y722403D01*
X353235Y722450D01*
X353334Y722502D01*
X353430Y722557D01*
X353524Y722615D01*
X353616Y722676D01*
X353706Y722741D01*
X353794Y722809D01*
X353879Y722880D01*
X353961Y722954D01*
X354041Y723031D01*
X354118Y723111D01*
X354192Y723193D01*
X354263Y723278D01*
X354331Y723366D01*
X354396Y723456D01*
X354457Y723548D01*
X354515Y723642D01*
X354570Y723738D01*
X354622Y723837D01*
X354669Y723937D01*
X354714Y724038D01*
X354754Y724141D01*
X354791Y724246D01*
X354824Y724352D01*
X354854Y724458D01*
X354879Y724566D01*
X354901Y724675D01*
X354918Y724784D01*
X354932Y724894D01*
X354942Y725005D01*
X354948Y725115D01*
X354950Y725226D01*
X354951Y725226D02*
X354951Y733298D01*
X363968Y733298D02*
X364072Y733296D01*
X364177Y733290D01*
X364281Y733280D01*
X364384Y733267D01*
X364487Y733249D01*
X364590Y733228D01*
X364691Y733203D01*
X364792Y733174D01*
X364891Y733141D01*
X364989Y733105D01*
X365085Y733065D01*
X365180Y733021D01*
X365274Y732974D01*
X365365Y732924D01*
X365454Y732870D01*
X365542Y732813D01*
X365627Y732752D01*
X365710Y732688D01*
X365790Y732622D01*
X365868Y732552D01*
X365944Y732480D01*
X366016Y732404D01*
X366086Y732326D01*
X366152Y732246D01*
X366216Y732163D01*
X366277Y732078D01*
X366334Y731990D01*
X366388Y731901D01*
X366438Y731810D01*
X366485Y731716D01*
X366529Y731621D01*
X366569Y731525D01*
X366605Y731427D01*
X366638Y731328D01*
X366667Y731227D01*
X366692Y731126D01*
X366713Y731023D01*
X366731Y730920D01*
X366744Y730817D01*
X366754Y730713D01*
X366760Y730608D01*
X366762Y730504D01*
X363968Y733299D02*
X363849Y733297D01*
X363731Y733291D01*
X363612Y733281D01*
X363494Y733268D01*
X363377Y733250D01*
X363260Y733228D01*
X363144Y733203D01*
X363029Y733174D01*
X362914Y733141D01*
X362801Y733104D01*
X362690Y733064D01*
X362579Y733020D01*
X362471Y732972D01*
X362364Y732921D01*
X362258Y732866D01*
X362155Y732807D01*
X362053Y732746D01*
X361954Y732681D01*
X361856Y732612D01*
X361762Y732541D01*
X361669Y732466D01*
X361579Y732389D01*
X361492Y732308D01*
X361407Y732225D01*
X361325Y732139D01*
X361246Y732050D01*
X361170Y731959D01*
X361097Y731865D01*
X361028Y731769D01*
X360961Y731670D01*
X360898Y731570D01*
X360838Y731467D01*
X360781Y731363D01*
X360729Y731256D01*
X360679Y731148D01*
X360633Y731039D01*
X360591Y730927D01*
X360553Y730815D01*
X365831Y728331D02*
X365906Y728405D01*
X365978Y728482D01*
X366048Y728561D01*
X366115Y728643D01*
X366179Y728727D01*
X366240Y728813D01*
X366298Y728901D01*
X366353Y728992D01*
X366405Y729084D01*
X366453Y729178D01*
X366498Y729273D01*
X366540Y729371D01*
X366578Y729469D01*
X366613Y729569D01*
X366644Y729670D01*
X366671Y729772D01*
X366695Y729875D01*
X366716Y729978D01*
X366732Y730083D01*
X366745Y730188D01*
X366755Y730293D01*
X366760Y730398D01*
X366762Y730504D01*
X365831Y728331D02*
X360553Y722122D01*
X366762Y722122D01*
D12*
X123200Y367900D02*
X923200Y367900D01*
X923200Y7900D01*
X123200Y7900D02*
X123200Y367900D01*
X173200Y312900D02*
X873200Y312900D01*
X873200Y62900D01*
X173200Y62900D02*
X173200Y312900D01*
X173200Y62900D02*
X873200Y62900D01*
D11*
X123962Y371662D02*
X123962Y382838D01*
X123962Y371662D02*
X128929Y371662D01*
X135901Y371662D02*
X138384Y371662D01*
X135901Y371662D02*
X135803Y371664D01*
X135706Y371670D01*
X135609Y371679D01*
X135512Y371693D01*
X135416Y371710D01*
X135321Y371731D01*
X135227Y371755D01*
X135133Y371784D01*
X135041Y371816D01*
X134950Y371851D01*
X134861Y371890D01*
X134773Y371933D01*
X134687Y371979D01*
X134603Y372028D01*
X134521Y372081D01*
X134441Y372136D01*
X134363Y372195D01*
X134288Y372257D01*
X134215Y372322D01*
X134145Y372390D01*
X134077Y372460D01*
X134012Y372533D01*
X133950Y372608D01*
X133891Y372686D01*
X133836Y372766D01*
X133783Y372848D01*
X133734Y372932D01*
X133688Y373018D01*
X133645Y373106D01*
X133606Y373195D01*
X133571Y373286D01*
X133539Y373378D01*
X133510Y373472D01*
X133486Y373566D01*
X133465Y373661D01*
X133448Y373757D01*
X133434Y373854D01*
X133425Y373951D01*
X133419Y374048D01*
X133417Y374146D01*
X133417Y380354D01*
X133419Y380452D01*
X133425Y380549D01*
X133434Y380646D01*
X133448Y380743D01*
X133465Y380839D01*
X133486Y380934D01*
X133510Y381028D01*
X133539Y381122D01*
X133571Y381214D01*
X133606Y381305D01*
X133645Y381394D01*
X133688Y381482D01*
X133734Y381568D01*
X133783Y381652D01*
X133836Y381734D01*
X133891Y381814D01*
X133950Y381892D01*
X134012Y381967D01*
X134077Y382040D01*
X134145Y382110D01*
X134215Y382178D01*
X134288Y382243D01*
X134363Y382305D01*
X134441Y382364D01*
X134521Y382419D01*
X134603Y382472D01*
X134687Y382521D01*
X134773Y382567D01*
X134861Y382610D01*
X134950Y382649D01*
X135041Y382684D01*
X135133Y382716D01*
X135227Y382745D01*
X135321Y382769D01*
X135416Y382790D01*
X135512Y382807D01*
X135609Y382821D01*
X135706Y382830D01*
X135803Y382836D01*
X135901Y382838D01*
X138384Y382838D01*
X143365Y382838D02*
X143365Y371662D01*
X143365Y382838D02*
X146469Y382838D01*
X146580Y382836D01*
X146690Y382830D01*
X146801Y382820D01*
X146911Y382806D01*
X147020Y382789D01*
X147129Y382767D01*
X147237Y382742D01*
X147343Y382712D01*
X147449Y382679D01*
X147554Y382642D01*
X147657Y382602D01*
X147758Y382557D01*
X147858Y382510D01*
X147957Y382458D01*
X148053Y382403D01*
X148147Y382345D01*
X148239Y382284D01*
X148329Y382219D01*
X148417Y382151D01*
X148502Y382080D01*
X148584Y382006D01*
X148664Y381929D01*
X148741Y381849D01*
X148815Y381767D01*
X148886Y381682D01*
X148954Y381594D01*
X149019Y381504D01*
X149080Y381412D01*
X149138Y381318D01*
X149193Y381222D01*
X149245Y381123D01*
X149292Y381023D01*
X149337Y380922D01*
X149377Y380819D01*
X149414Y380714D01*
X149447Y380608D01*
X149477Y380502D01*
X149502Y380394D01*
X149524Y380285D01*
X149541Y380176D01*
X149555Y380066D01*
X149565Y379955D01*
X149571Y379845D01*
X149573Y379734D01*
X149574Y379734D02*
X149574Y374766D01*
X149573Y374766D02*
X149571Y374655D01*
X149565Y374545D01*
X149555Y374434D01*
X149541Y374324D01*
X149524Y374215D01*
X149502Y374106D01*
X149477Y373998D01*
X149447Y373892D01*
X149414Y373786D01*
X149377Y373681D01*
X149337Y373578D01*
X149292Y373477D01*
X149245Y373377D01*
X149193Y373278D01*
X149138Y373182D01*
X149080Y373088D01*
X149019Y372996D01*
X148954Y372906D01*
X148886Y372818D01*
X148815Y372733D01*
X148741Y372651D01*
X148664Y372571D01*
X148584Y372494D01*
X148502Y372420D01*
X148417Y372349D01*
X148329Y372281D01*
X148239Y372216D01*
X148147Y372155D01*
X148053Y372097D01*
X147957Y372042D01*
X147858Y371990D01*
X147758Y371943D01*
X147657Y371898D01*
X147554Y371858D01*
X147449Y371821D01*
X147343Y371788D01*
X147237Y371758D01*
X147129Y371733D01*
X147020Y371711D01*
X146911Y371694D01*
X146801Y371680D01*
X146690Y371670D01*
X146580Y371664D01*
X146469Y371662D01*
X143365Y371662D01*
X155176Y380354D02*
X158280Y382838D01*
X158280Y371662D01*
X155176Y371662D02*
X161385Y371662D01*
D12*
X391960Y589280D02*
X391960Y639280D01*
X391960Y679280D02*
X391960Y714280D01*
X491960Y714280D01*
X491960Y679280D01*
X491960Y639280D02*
X491960Y589280D01*
X481960Y589280D01*
X401960Y589280D02*
X391960Y589280D01*
X411960Y659280D02*
X411969Y660016D01*
X411996Y660752D01*
X412041Y661487D01*
X412104Y662221D01*
X412186Y662952D01*
X412285Y663682D01*
X412402Y664409D01*
X412536Y665133D01*
X412689Y665853D01*
X412859Y666569D01*
X413047Y667281D01*
X413252Y667989D01*
X413474Y668690D01*
X413714Y669387D01*
X413970Y670077D01*
X414244Y670761D01*
X414534Y671437D01*
X414840Y672107D01*
X415163Y672768D01*
X415502Y673422D01*
X415857Y674067D01*
X416228Y674703D01*
X416614Y675330D01*
X417016Y675947D01*
X417432Y676554D01*
X417864Y677151D01*
X418310Y677737D01*
X418770Y678312D01*
X419244Y678875D01*
X419731Y679427D01*
X420233Y679966D01*
X420747Y680493D01*
X421274Y681007D01*
X421813Y681509D01*
X422365Y681996D01*
X422928Y682470D01*
X423503Y682930D01*
X424089Y683376D01*
X424686Y683808D01*
X425293Y684224D01*
X425910Y684626D01*
X426537Y685012D01*
X427173Y685383D01*
X427818Y685738D01*
X428472Y686077D01*
X429133Y686400D01*
X429803Y686706D01*
X430479Y686996D01*
X431163Y687270D01*
X431853Y687526D01*
X432550Y687766D01*
X433251Y687988D01*
X433959Y688193D01*
X434671Y688381D01*
X435387Y688551D01*
X436107Y688704D01*
X436831Y688838D01*
X437558Y688955D01*
X438288Y689054D01*
X439019Y689136D01*
X439753Y689199D01*
X440488Y689244D01*
X441224Y689271D01*
X441960Y689280D01*
X442696Y689271D01*
X443432Y689244D01*
X444167Y689199D01*
X444901Y689136D01*
X445632Y689054D01*
X446362Y688955D01*
X447089Y688838D01*
X447813Y688704D01*
X448533Y688551D01*
X449249Y688381D01*
X449961Y688193D01*
X450669Y687988D01*
X451370Y687766D01*
X452067Y687526D01*
X452757Y687270D01*
X453441Y686996D01*
X454117Y686706D01*
X454787Y686400D01*
X455448Y686077D01*
X456102Y685738D01*
X456747Y685383D01*
X457383Y685012D01*
X458010Y684626D01*
X458627Y684224D01*
X459234Y683808D01*
X459831Y683376D01*
X460417Y682930D01*
X460992Y682470D01*
X461555Y681996D01*
X462107Y681509D01*
X462646Y681007D01*
X463173Y680493D01*
X463687Y679966D01*
X464189Y679427D01*
X464676Y678875D01*
X465150Y678312D01*
X465610Y677737D01*
X466056Y677151D01*
X466488Y676554D01*
X466904Y675947D01*
X467306Y675330D01*
X467692Y674703D01*
X468063Y674067D01*
X468418Y673422D01*
X468757Y672768D01*
X469080Y672107D01*
X469386Y671437D01*
X469676Y670761D01*
X469950Y670077D01*
X470206Y669387D01*
X470446Y668690D01*
X470668Y667989D01*
X470873Y667281D01*
X471061Y666569D01*
X471231Y665853D01*
X471384Y665133D01*
X471518Y664409D01*
X471635Y663682D01*
X471734Y662952D01*
X471816Y662221D01*
X471879Y661487D01*
X471924Y660752D01*
X471951Y660016D01*
X471960Y659280D01*
X471951Y658544D01*
X471924Y657808D01*
X471879Y657073D01*
X471816Y656339D01*
X471734Y655608D01*
X471635Y654878D01*
X471518Y654151D01*
X471384Y653427D01*
X471231Y652707D01*
X471061Y651991D01*
X470873Y651279D01*
X470668Y650571D01*
X470446Y649870D01*
X470206Y649173D01*
X469950Y648483D01*
X469676Y647799D01*
X469386Y647123D01*
X469080Y646453D01*
X468757Y645792D01*
X468418Y645138D01*
X468063Y644493D01*
X467692Y643857D01*
X467306Y643230D01*
X466904Y642613D01*
X466488Y642006D01*
X466056Y641409D01*
X465610Y640823D01*
X465150Y640248D01*
X464676Y639685D01*
X464189Y639133D01*
X463687Y638594D01*
X463173Y638067D01*
X462646Y637553D01*
X462107Y637051D01*
X461555Y636564D01*
X460992Y636090D01*
X460417Y635630D01*
X459831Y635184D01*
X459234Y634752D01*
X458627Y634336D01*
X458010Y633934D01*
X457383Y633548D01*
X456747Y633177D01*
X456102Y632822D01*
X455448Y632483D01*
X454787Y632160D01*
X454117Y631854D01*
X453441Y631564D01*
X452757Y631290D01*
X452067Y631034D01*
X451370Y630794D01*
X450669Y630572D01*
X449961Y630367D01*
X449249Y630179D01*
X448533Y630009D01*
X447813Y629856D01*
X447089Y629722D01*
X446362Y629605D01*
X445632Y629506D01*
X444901Y629424D01*
X444167Y629361D01*
X443432Y629316D01*
X442696Y629289D01*
X441960Y629280D01*
X441224Y629289D01*
X440488Y629316D01*
X439753Y629361D01*
X439019Y629424D01*
X438288Y629506D01*
X437558Y629605D01*
X436831Y629722D01*
X436107Y629856D01*
X435387Y630009D01*
X434671Y630179D01*
X433959Y630367D01*
X433251Y630572D01*
X432550Y630794D01*
X431853Y631034D01*
X431163Y631290D01*
X430479Y631564D01*
X429803Y631854D01*
X429133Y632160D01*
X428472Y632483D01*
X427818Y632822D01*
X427173Y633177D01*
X426537Y633548D01*
X425910Y633934D01*
X425293Y634336D01*
X424686Y634752D01*
X424089Y635184D01*
X423503Y635630D01*
X422928Y636090D01*
X422365Y636564D01*
X421813Y637051D01*
X421274Y637553D01*
X420747Y638067D01*
X420233Y638594D01*
X419731Y639133D01*
X419244Y639685D01*
X418770Y640248D01*
X418310Y640823D01*
X417864Y641409D01*
X417432Y642006D01*
X417016Y642613D01*
X416614Y643230D01*
X416228Y643857D01*
X415857Y644493D01*
X415502Y645138D01*
X415163Y645792D01*
X414840Y646453D01*
X414534Y647123D01*
X414244Y647799D01*
X413970Y648483D01*
X413714Y649173D01*
X413474Y649870D01*
X413252Y650571D01*
X413047Y651279D01*
X412859Y651991D01*
X412689Y652707D01*
X412536Y653427D01*
X412402Y654151D01*
X412285Y654878D01*
X412186Y655608D01*
X412104Y656339D01*
X412041Y657073D01*
X411996Y657808D01*
X411969Y658544D01*
X411960Y659280D01*
D11*
X391922Y717042D02*
X391922Y728218D01*
X395026Y728218D01*
X395137Y728216D01*
X395247Y728210D01*
X395358Y728200D01*
X395468Y728186D01*
X395577Y728169D01*
X395686Y728147D01*
X395794Y728122D01*
X395900Y728092D01*
X396006Y728059D01*
X396111Y728022D01*
X396214Y727982D01*
X396315Y727937D01*
X396415Y727890D01*
X396514Y727838D01*
X396610Y727783D01*
X396704Y727725D01*
X396796Y727664D01*
X396886Y727599D01*
X396974Y727531D01*
X397059Y727460D01*
X397141Y727386D01*
X397221Y727309D01*
X397298Y727229D01*
X397372Y727147D01*
X397443Y727062D01*
X397511Y726974D01*
X397576Y726884D01*
X397637Y726792D01*
X397695Y726698D01*
X397750Y726602D01*
X397802Y726503D01*
X397849Y726403D01*
X397894Y726302D01*
X397934Y726199D01*
X397971Y726094D01*
X398004Y725988D01*
X398034Y725882D01*
X398059Y725774D01*
X398081Y725665D01*
X398098Y725556D01*
X398112Y725446D01*
X398122Y725335D01*
X398128Y725225D01*
X398130Y725114D01*
X398128Y725003D01*
X398122Y724893D01*
X398112Y724782D01*
X398098Y724672D01*
X398081Y724563D01*
X398059Y724454D01*
X398034Y724346D01*
X398004Y724240D01*
X397971Y724134D01*
X397934Y724029D01*
X397894Y723926D01*
X397849Y723825D01*
X397802Y723725D01*
X397750Y723626D01*
X397695Y723530D01*
X397637Y723436D01*
X397576Y723344D01*
X397511Y723254D01*
X397443Y723166D01*
X397372Y723081D01*
X397298Y722999D01*
X397221Y722919D01*
X397141Y722842D01*
X397059Y722768D01*
X396974Y722697D01*
X396886Y722629D01*
X396796Y722564D01*
X396704Y722503D01*
X396610Y722445D01*
X396514Y722390D01*
X396415Y722338D01*
X396315Y722291D01*
X396214Y722246D01*
X396111Y722206D01*
X396006Y722169D01*
X395900Y722136D01*
X395794Y722106D01*
X395686Y722081D01*
X395577Y722059D01*
X395468Y722042D01*
X395358Y722028D01*
X395247Y722018D01*
X395137Y722012D01*
X395026Y722010D01*
X395026Y722009D02*
X391922Y722009D01*
X395647Y722009D02*
X398131Y717042D01*
X403260Y725734D02*
X406364Y728218D01*
X406364Y717042D01*
X403260Y717042D02*
X409469Y717042D01*
D13*
X591820Y403860D03*
D11*
X581152Y395478D02*
X581152Y384302D01*
X581152Y395478D02*
X584256Y395478D01*
X584367Y395476D01*
X584477Y395470D01*
X584588Y395460D01*
X584698Y395446D01*
X584807Y395429D01*
X584916Y395407D01*
X585024Y395382D01*
X585130Y395352D01*
X585236Y395319D01*
X585341Y395282D01*
X585444Y395242D01*
X585545Y395197D01*
X585645Y395150D01*
X585744Y395098D01*
X585840Y395043D01*
X585934Y394985D01*
X586026Y394924D01*
X586116Y394859D01*
X586204Y394791D01*
X586289Y394720D01*
X586371Y394646D01*
X586451Y394569D01*
X586528Y394489D01*
X586602Y394407D01*
X586673Y394322D01*
X586741Y394234D01*
X586806Y394144D01*
X586867Y394052D01*
X586925Y393958D01*
X586980Y393862D01*
X587032Y393763D01*
X587079Y393663D01*
X587124Y393562D01*
X587164Y393459D01*
X587201Y393354D01*
X587234Y393248D01*
X587264Y393142D01*
X587289Y393034D01*
X587311Y392925D01*
X587328Y392816D01*
X587342Y392706D01*
X587352Y392595D01*
X587358Y392485D01*
X587360Y392374D01*
X587358Y392263D01*
X587352Y392153D01*
X587342Y392042D01*
X587328Y391932D01*
X587311Y391823D01*
X587289Y391714D01*
X587264Y391606D01*
X587234Y391500D01*
X587201Y391394D01*
X587164Y391289D01*
X587124Y391186D01*
X587079Y391085D01*
X587032Y390985D01*
X586980Y390886D01*
X586925Y390790D01*
X586867Y390696D01*
X586806Y390604D01*
X586741Y390514D01*
X586673Y390426D01*
X586602Y390341D01*
X586528Y390259D01*
X586451Y390179D01*
X586371Y390102D01*
X586289Y390028D01*
X586204Y389957D01*
X586116Y389889D01*
X586026Y389824D01*
X585934Y389763D01*
X585840Y389705D01*
X585744Y389650D01*
X585645Y389598D01*
X585545Y389551D01*
X585444Y389506D01*
X585341Y389466D01*
X585236Y389429D01*
X585130Y389396D01*
X585024Y389366D01*
X584916Y389341D01*
X584807Y389319D01*
X584698Y389302D01*
X584588Y389288D01*
X584477Y389278D01*
X584367Y389272D01*
X584256Y389270D01*
X584256Y389269D02*
X581152Y389269D01*
X584877Y389269D02*
X587361Y384302D01*
X595905Y395478D02*
X596009Y395476D01*
X596114Y395470D01*
X596218Y395460D01*
X596321Y395447D01*
X596424Y395429D01*
X596527Y395408D01*
X596628Y395383D01*
X596729Y395354D01*
X596828Y395321D01*
X596926Y395285D01*
X597022Y395245D01*
X597117Y395201D01*
X597211Y395154D01*
X597302Y395104D01*
X597391Y395050D01*
X597479Y394993D01*
X597564Y394932D01*
X597647Y394868D01*
X597727Y394802D01*
X597805Y394732D01*
X597881Y394660D01*
X597953Y394584D01*
X598023Y394506D01*
X598089Y394426D01*
X598153Y394343D01*
X598214Y394258D01*
X598271Y394170D01*
X598325Y394081D01*
X598375Y393990D01*
X598422Y393896D01*
X598466Y393801D01*
X598506Y393705D01*
X598542Y393607D01*
X598575Y393508D01*
X598604Y393407D01*
X598629Y393306D01*
X598650Y393203D01*
X598668Y393100D01*
X598681Y392997D01*
X598691Y392893D01*
X598697Y392788D01*
X598699Y392684D01*
X595905Y395479D02*
X595786Y395477D01*
X595668Y395471D01*
X595549Y395461D01*
X595431Y395448D01*
X595314Y395430D01*
X595197Y395408D01*
X595081Y395383D01*
X594966Y395354D01*
X594851Y395321D01*
X594738Y395284D01*
X594627Y395244D01*
X594516Y395200D01*
X594408Y395152D01*
X594301Y395101D01*
X594195Y395046D01*
X594092Y394987D01*
X593990Y394926D01*
X593891Y394861D01*
X593793Y394792D01*
X593699Y394721D01*
X593606Y394646D01*
X593516Y394569D01*
X593429Y394488D01*
X593344Y394405D01*
X593262Y394319D01*
X593183Y394230D01*
X593107Y394139D01*
X593034Y394045D01*
X592965Y393949D01*
X592898Y393850D01*
X592835Y393750D01*
X592775Y393647D01*
X592718Y393543D01*
X592666Y393436D01*
X592616Y393328D01*
X592570Y393219D01*
X592528Y393107D01*
X592490Y392995D01*
X597768Y390511D02*
X597843Y390585D01*
X597915Y390662D01*
X597985Y390741D01*
X598052Y390823D01*
X598116Y390907D01*
X598177Y390993D01*
X598235Y391081D01*
X598290Y391172D01*
X598342Y391264D01*
X598390Y391358D01*
X598435Y391453D01*
X598477Y391551D01*
X598515Y391649D01*
X598550Y391749D01*
X598581Y391850D01*
X598608Y391952D01*
X598632Y392055D01*
X598653Y392158D01*
X598669Y392263D01*
X598682Y392368D01*
X598692Y392473D01*
X598697Y392578D01*
X598699Y392684D01*
X597768Y390511D02*
X592490Y384302D01*
X598699Y384302D01*
D12*
X594360Y675640D02*
X619760Y675640D01*
X619760Y599440D01*
X594360Y599440D01*
X594360Y675640D01*
X581660Y643890D02*
X581660Y631190D01*
X575310Y637540D02*
X588010Y637540D01*
X588010Y612140D02*
X575310Y612140D01*
X575310Y659765D02*
X578485Y659765D01*
X578485Y666115D01*
X584835Y666115D01*
X584835Y659765D01*
X588010Y659765D01*
D11*
X596392Y685856D02*
X596392Y693928D01*
X596392Y685856D02*
X596394Y685745D01*
X596400Y685635D01*
X596410Y685524D01*
X596424Y685414D01*
X596441Y685305D01*
X596463Y685196D01*
X596488Y685088D01*
X596518Y684982D01*
X596551Y684876D01*
X596588Y684771D01*
X596628Y684668D01*
X596673Y684567D01*
X596720Y684467D01*
X596772Y684368D01*
X596827Y684272D01*
X596885Y684178D01*
X596946Y684086D01*
X597011Y683996D01*
X597079Y683908D01*
X597150Y683823D01*
X597224Y683741D01*
X597301Y683661D01*
X597381Y683584D01*
X597463Y683510D01*
X597548Y683439D01*
X597636Y683371D01*
X597726Y683306D01*
X597818Y683245D01*
X597912Y683187D01*
X598008Y683132D01*
X598107Y683080D01*
X598207Y683033D01*
X598308Y682988D01*
X598411Y682948D01*
X598516Y682911D01*
X598622Y682878D01*
X598728Y682848D01*
X598836Y682823D01*
X598945Y682801D01*
X599054Y682784D01*
X599164Y682770D01*
X599275Y682760D01*
X599385Y682754D01*
X599496Y682752D01*
X599607Y682754D01*
X599717Y682760D01*
X599828Y682770D01*
X599938Y682784D01*
X600047Y682801D01*
X600156Y682823D01*
X600264Y682848D01*
X600370Y682878D01*
X600476Y682911D01*
X600581Y682948D01*
X600684Y682988D01*
X600785Y683033D01*
X600885Y683080D01*
X600984Y683132D01*
X601080Y683187D01*
X601174Y683245D01*
X601266Y683306D01*
X601356Y683371D01*
X601444Y683439D01*
X601529Y683510D01*
X601611Y683584D01*
X601691Y683661D01*
X601768Y683741D01*
X601842Y683823D01*
X601913Y683908D01*
X601981Y683996D01*
X602046Y684086D01*
X602107Y684178D01*
X602165Y684272D01*
X602220Y684368D01*
X602272Y684467D01*
X602319Y684567D01*
X602364Y684668D01*
X602404Y684771D01*
X602441Y684876D01*
X602474Y684982D01*
X602504Y685088D01*
X602529Y685196D01*
X602551Y685305D01*
X602568Y685414D01*
X602582Y685524D01*
X602592Y685635D01*
X602598Y685745D01*
X602600Y685856D01*
X602601Y685856D02*
X602601Y693928D01*
X608203Y682752D02*
X611307Y682752D01*
X611418Y682754D01*
X611528Y682760D01*
X611639Y682770D01*
X611749Y682784D01*
X611858Y682801D01*
X611967Y682823D01*
X612075Y682848D01*
X612181Y682878D01*
X612287Y682911D01*
X612392Y682948D01*
X612495Y682988D01*
X612596Y683033D01*
X612696Y683080D01*
X612795Y683132D01*
X612891Y683187D01*
X612985Y683245D01*
X613077Y683306D01*
X613167Y683371D01*
X613255Y683439D01*
X613340Y683510D01*
X613422Y683584D01*
X613502Y683661D01*
X613579Y683741D01*
X613653Y683823D01*
X613724Y683908D01*
X613792Y683996D01*
X613857Y684086D01*
X613918Y684178D01*
X613976Y684272D01*
X614031Y684368D01*
X614083Y684467D01*
X614130Y684567D01*
X614175Y684668D01*
X614215Y684771D01*
X614252Y684876D01*
X614285Y684982D01*
X614315Y685088D01*
X614340Y685196D01*
X614362Y685305D01*
X614379Y685414D01*
X614393Y685524D01*
X614403Y685635D01*
X614409Y685745D01*
X614411Y685856D01*
X614409Y685967D01*
X614403Y686077D01*
X614393Y686188D01*
X614379Y686298D01*
X614362Y686407D01*
X614340Y686516D01*
X614315Y686624D01*
X614285Y686730D01*
X614252Y686836D01*
X614215Y686941D01*
X614175Y687044D01*
X614130Y687145D01*
X614083Y687245D01*
X614031Y687344D01*
X613976Y687440D01*
X613918Y687534D01*
X613857Y687626D01*
X613792Y687716D01*
X613724Y687804D01*
X613653Y687889D01*
X613579Y687971D01*
X613502Y688051D01*
X613422Y688128D01*
X613340Y688202D01*
X613255Y688273D01*
X613167Y688341D01*
X613077Y688406D01*
X612985Y688467D01*
X612891Y688525D01*
X612795Y688580D01*
X612696Y688632D01*
X612596Y688679D01*
X612495Y688724D01*
X612392Y688764D01*
X612287Y688801D01*
X612181Y688834D01*
X612075Y688864D01*
X611967Y688889D01*
X611858Y688911D01*
X611749Y688928D01*
X611639Y688942D01*
X611528Y688952D01*
X611418Y688958D01*
X611307Y688960D01*
X611928Y693928D02*
X608203Y693928D01*
X611928Y693928D02*
X612027Y693926D01*
X612125Y693920D01*
X612224Y693910D01*
X612321Y693897D01*
X612419Y693879D01*
X612515Y693858D01*
X612611Y693832D01*
X612705Y693803D01*
X612798Y693771D01*
X612890Y693734D01*
X612980Y693694D01*
X613069Y693650D01*
X613156Y693603D01*
X613241Y693553D01*
X613323Y693499D01*
X613404Y693442D01*
X613482Y693382D01*
X613558Y693318D01*
X613631Y693252D01*
X613702Y693183D01*
X613770Y693111D01*
X613834Y693036D01*
X613896Y692959D01*
X613955Y692880D01*
X614010Y692798D01*
X614063Y692714D01*
X614111Y692629D01*
X614157Y692541D01*
X614199Y692451D01*
X614237Y692360D01*
X614271Y692268D01*
X614302Y692174D01*
X614329Y692079D01*
X614353Y691983D01*
X614372Y691886D01*
X614388Y691789D01*
X614400Y691691D01*
X614408Y691592D01*
X614412Y691493D01*
X614412Y691395D01*
X614408Y691296D01*
X614400Y691197D01*
X614388Y691099D01*
X614372Y691002D01*
X614353Y690905D01*
X614329Y690809D01*
X614302Y690714D01*
X614271Y690620D01*
X614237Y690528D01*
X614199Y690437D01*
X614157Y690347D01*
X614111Y690259D01*
X614063Y690174D01*
X614010Y690090D01*
X613955Y690008D01*
X613896Y689929D01*
X613834Y689852D01*
X613770Y689777D01*
X613702Y689705D01*
X613631Y689636D01*
X613558Y689570D01*
X613482Y689506D01*
X613404Y689446D01*
X613323Y689389D01*
X613241Y689335D01*
X613156Y689285D01*
X613069Y689238D01*
X612980Y689194D01*
X612890Y689154D01*
X612798Y689117D01*
X612705Y689085D01*
X612611Y689056D01*
X612515Y689030D01*
X612419Y689009D01*
X612321Y688991D01*
X612224Y688978D01*
X612125Y688968D01*
X612027Y688962D01*
X611928Y688960D01*
X611928Y688961D02*
X609445Y688961D01*
D14*
X568000Y407200D02*
X567997Y406958D01*
X567988Y406717D01*
X567974Y406476D01*
X567953Y406235D01*
X567927Y405995D01*
X567895Y405755D01*
X567857Y405516D01*
X567814Y405279D01*
X567764Y405042D01*
X567709Y404807D01*
X567649Y404573D01*
X567582Y404341D01*
X567511Y404110D01*
X567433Y403881D01*
X567350Y403654D01*
X567262Y403429D01*
X567168Y403206D01*
X567069Y402986D01*
X566964Y402768D01*
X566855Y402553D01*
X566740Y402340D01*
X566620Y402130D01*
X566495Y401924D01*
X566365Y401720D01*
X566230Y401519D01*
X566090Y401322D01*
X565946Y401128D01*
X565797Y400938D01*
X565643Y400752D01*
X565485Y400569D01*
X565323Y400390D01*
X565156Y400215D01*
X564985Y400044D01*
X564810Y399877D01*
X564631Y399715D01*
X564448Y399557D01*
X564262Y399403D01*
X564072Y399254D01*
X563878Y399110D01*
X563681Y398970D01*
X563480Y398835D01*
X563276Y398705D01*
X563070Y398580D01*
X562860Y398460D01*
X562647Y398345D01*
X562432Y398236D01*
X562214Y398131D01*
X561994Y398032D01*
X561771Y397938D01*
X561546Y397850D01*
X561319Y397767D01*
X561090Y397689D01*
X560859Y397618D01*
X560627Y397551D01*
X560393Y397491D01*
X560158Y397436D01*
X559921Y397386D01*
X559684Y397343D01*
X559445Y397305D01*
X559205Y397273D01*
X558965Y397247D01*
X558724Y397226D01*
X558483Y397212D01*
X558242Y397203D01*
X558000Y397200D01*
X458000Y397200D01*
X457758Y397203D01*
X457517Y397212D01*
X457276Y397226D01*
X457035Y397247D01*
X456795Y397273D01*
X456555Y397305D01*
X456316Y397343D01*
X456079Y397386D01*
X455842Y397436D01*
X455607Y397491D01*
X455373Y397551D01*
X455141Y397618D01*
X454910Y397689D01*
X454681Y397767D01*
X454454Y397850D01*
X454229Y397938D01*
X454006Y398032D01*
X453786Y398131D01*
X453568Y398236D01*
X453353Y398345D01*
X453140Y398460D01*
X452930Y398580D01*
X452724Y398705D01*
X452520Y398835D01*
X452319Y398970D01*
X452122Y399110D01*
X451928Y399254D01*
X451738Y399403D01*
X451552Y399557D01*
X451369Y399715D01*
X451190Y399877D01*
X451015Y400044D01*
X450844Y400215D01*
X450677Y400390D01*
X450515Y400569D01*
X450357Y400752D01*
X450203Y400938D01*
X450054Y401128D01*
X449910Y401322D01*
X449770Y401519D01*
X449635Y401720D01*
X449505Y401924D01*
X449380Y402130D01*
X449260Y402340D01*
X449145Y402553D01*
X449036Y402768D01*
X448931Y402986D01*
X448832Y403206D01*
X448738Y403429D01*
X448650Y403654D01*
X448567Y403881D01*
X448489Y404110D01*
X448418Y404341D01*
X448351Y404573D01*
X448291Y404807D01*
X448236Y405042D01*
X448186Y405279D01*
X448143Y405516D01*
X448105Y405755D01*
X448073Y405995D01*
X448047Y406235D01*
X448026Y406476D01*
X448012Y406717D01*
X448003Y406958D01*
X448000Y407200D01*
X448000Y507200D02*
X448003Y507442D01*
X448012Y507683D01*
X448026Y507924D01*
X448047Y508165D01*
X448073Y508405D01*
X448105Y508645D01*
X448143Y508884D01*
X448186Y509121D01*
X448236Y509358D01*
X448291Y509593D01*
X448351Y509827D01*
X448418Y510059D01*
X448489Y510290D01*
X448567Y510519D01*
X448650Y510746D01*
X448738Y510971D01*
X448832Y511194D01*
X448931Y511414D01*
X449036Y511632D01*
X449145Y511847D01*
X449260Y512060D01*
X449380Y512270D01*
X449505Y512476D01*
X449635Y512680D01*
X449770Y512881D01*
X449910Y513078D01*
X450054Y513272D01*
X450203Y513462D01*
X450357Y513648D01*
X450515Y513831D01*
X450677Y514010D01*
X450844Y514185D01*
X451015Y514356D01*
X451190Y514523D01*
X451369Y514685D01*
X451552Y514843D01*
X451738Y514997D01*
X451928Y515146D01*
X452122Y515290D01*
X452319Y515430D01*
X452520Y515565D01*
X452724Y515695D01*
X452930Y515820D01*
X453140Y515940D01*
X453353Y516055D01*
X453568Y516164D01*
X453786Y516269D01*
X454006Y516368D01*
X454229Y516462D01*
X454454Y516550D01*
X454681Y516633D01*
X454910Y516711D01*
X455141Y516782D01*
X455373Y516849D01*
X455607Y516909D01*
X455842Y516964D01*
X456079Y517014D01*
X456316Y517057D01*
X456555Y517095D01*
X456795Y517127D01*
X457035Y517153D01*
X457276Y517174D01*
X457517Y517188D01*
X457758Y517197D01*
X458000Y517200D01*
X558000Y517200D01*
X558242Y517197D01*
X558483Y517188D01*
X558724Y517174D01*
X558965Y517153D01*
X559205Y517127D01*
X559445Y517095D01*
X559684Y517057D01*
X559921Y517014D01*
X560158Y516964D01*
X560393Y516909D01*
X560627Y516849D01*
X560859Y516782D01*
X561090Y516711D01*
X561319Y516633D01*
X561546Y516550D01*
X561771Y516462D01*
X561994Y516368D01*
X562214Y516269D01*
X562432Y516164D01*
X562647Y516055D01*
X562860Y515940D01*
X563070Y515820D01*
X563276Y515695D01*
X563480Y515565D01*
X563681Y515430D01*
X563878Y515290D01*
X564072Y515146D01*
X564262Y514997D01*
X564448Y514843D01*
X564631Y514685D01*
X564810Y514523D01*
X564985Y514356D01*
X565156Y514185D01*
X565323Y514010D01*
X565485Y513831D01*
X565643Y513648D01*
X565797Y513462D01*
X565946Y513272D01*
X566090Y513078D01*
X566230Y512881D01*
X566365Y512680D01*
X566495Y512476D01*
X566620Y512270D01*
X566740Y512060D01*
X566855Y511847D01*
X566964Y511632D01*
X567069Y511414D01*
X567168Y511194D01*
X567262Y510971D01*
X567350Y510746D01*
X567433Y510519D01*
X567511Y510290D01*
X567582Y510059D01*
X567649Y509827D01*
X567709Y509593D01*
X567764Y509358D01*
X567814Y509121D01*
X567857Y508884D01*
X567895Y508645D01*
X567927Y508405D01*
X567953Y508165D01*
X567974Y507924D01*
X567988Y507683D01*
X567997Y507442D01*
X568000Y507200D01*
X472645Y457200D02*
X472656Y458068D01*
X472688Y458935D01*
X472741Y459801D01*
X472815Y460665D01*
X472911Y461528D01*
X473028Y462388D01*
X473166Y463244D01*
X473324Y464097D01*
X473504Y464946D01*
X473705Y465791D01*
X473926Y466630D01*
X474167Y467463D01*
X474429Y468290D01*
X474712Y469111D01*
X475014Y469924D01*
X475336Y470730D01*
X475678Y471527D01*
X476039Y472316D01*
X476420Y473096D01*
X476820Y473866D01*
X477238Y474626D01*
X477675Y475376D01*
X478130Y476115D01*
X478603Y476842D01*
X479094Y477558D01*
X479603Y478261D01*
X480128Y478952D01*
X480670Y479629D01*
X481229Y480293D01*
X481804Y480943D01*
X482394Y481579D01*
X483000Y482200D01*
X483621Y482806D01*
X484257Y483396D01*
X484907Y483971D01*
X485571Y484530D01*
X486248Y485072D01*
X486939Y485597D01*
X487642Y486106D01*
X488358Y486597D01*
X489085Y487070D01*
X489824Y487525D01*
X490574Y487962D01*
X491334Y488380D01*
X492104Y488780D01*
X492884Y489161D01*
X493673Y489522D01*
X494470Y489864D01*
X495276Y490186D01*
X496089Y490488D01*
X496910Y490771D01*
X497737Y491033D01*
X498570Y491274D01*
X499409Y491495D01*
X500254Y491696D01*
X501103Y491876D01*
X501956Y492034D01*
X502812Y492172D01*
X503672Y492289D01*
X504535Y492385D01*
X505399Y492459D01*
X506265Y492512D01*
X507132Y492544D01*
X508000Y492555D01*
X508868Y492544D01*
X509735Y492512D01*
X510601Y492459D01*
X511465Y492385D01*
X512328Y492289D01*
X513188Y492172D01*
X514044Y492034D01*
X514897Y491876D01*
X515746Y491696D01*
X516591Y491495D01*
X517430Y491274D01*
X518263Y491033D01*
X519090Y490771D01*
X519911Y490488D01*
X520724Y490186D01*
X521530Y489864D01*
X522327Y489522D01*
X523116Y489161D01*
X523896Y488780D01*
X524666Y488380D01*
X525426Y487962D01*
X526176Y487525D01*
X526915Y487070D01*
X527642Y486597D01*
X528358Y486106D01*
X529061Y485597D01*
X529752Y485072D01*
X530429Y484530D01*
X531093Y483971D01*
X531743Y483396D01*
X532379Y482806D01*
X533000Y482200D01*
X533606Y481579D01*
X534196Y480943D01*
X534771Y480293D01*
X535330Y479629D01*
X535872Y478952D01*
X536397Y478261D01*
X536906Y477558D01*
X537397Y476842D01*
X537870Y476115D01*
X538325Y475376D01*
X538762Y474626D01*
X539180Y473866D01*
X539580Y473096D01*
X539961Y472316D01*
X540322Y471527D01*
X540664Y470730D01*
X540986Y469924D01*
X541288Y469111D01*
X541571Y468290D01*
X541833Y467463D01*
X542074Y466630D01*
X542295Y465791D01*
X542496Y464946D01*
X542676Y464097D01*
X542834Y463244D01*
X542972Y462388D01*
X543089Y461528D01*
X543185Y460665D01*
X543259Y459801D01*
X543312Y458935D01*
X543344Y458068D01*
X543355Y457200D01*
X543344Y456332D01*
X543312Y455465D01*
X543259Y454599D01*
X543185Y453735D01*
X543089Y452872D01*
X542972Y452012D01*
X542834Y451156D01*
X542676Y450303D01*
X542496Y449454D01*
X542295Y448609D01*
X542074Y447770D01*
X541833Y446937D01*
X541571Y446110D01*
X541288Y445289D01*
X540986Y444476D01*
X540664Y443670D01*
X540322Y442873D01*
X539961Y442084D01*
X539580Y441304D01*
X539180Y440534D01*
X538762Y439774D01*
X538325Y439024D01*
X537870Y438285D01*
X537397Y437558D01*
X536906Y436842D01*
X536397Y436139D01*
X535872Y435448D01*
X535330Y434771D01*
X534771Y434107D01*
X534196Y433457D01*
X533606Y432821D01*
X533000Y432200D01*
X532379Y431594D01*
X531743Y431004D01*
X531093Y430429D01*
X530429Y429870D01*
X529752Y429328D01*
X529061Y428803D01*
X528358Y428294D01*
X527642Y427803D01*
X526915Y427330D01*
X526176Y426875D01*
X525426Y426438D01*
X524666Y426020D01*
X523896Y425620D01*
X523116Y425239D01*
X522327Y424878D01*
X521530Y424536D01*
X520724Y424214D01*
X519911Y423912D01*
X519090Y423629D01*
X518263Y423367D01*
X517430Y423126D01*
X516591Y422905D01*
X515746Y422704D01*
X514897Y422524D01*
X514044Y422366D01*
X513188Y422228D01*
X512328Y422111D01*
X511465Y422015D01*
X510601Y421941D01*
X509735Y421888D01*
X508868Y421856D01*
X508000Y421845D01*
X507132Y421856D01*
X506265Y421888D01*
X505399Y421941D01*
X504535Y422015D01*
X503672Y422111D01*
X502812Y422228D01*
X501956Y422366D01*
X501103Y422524D01*
X500254Y422704D01*
X499409Y422905D01*
X498570Y423126D01*
X497737Y423367D01*
X496910Y423629D01*
X496089Y423912D01*
X495276Y424214D01*
X494470Y424536D01*
X493673Y424878D01*
X492884Y425239D01*
X492104Y425620D01*
X491334Y426020D01*
X490574Y426438D01*
X489824Y426875D01*
X489085Y427330D01*
X488358Y427803D01*
X487642Y428294D01*
X486939Y428803D01*
X486248Y429328D01*
X485571Y429870D01*
X484907Y430429D01*
X484257Y431004D01*
X483621Y431594D01*
X483000Y432200D01*
X482394Y432821D01*
X481804Y433457D01*
X481229Y434107D01*
X480670Y434771D01*
X480128Y435448D01*
X479603Y436139D01*
X479094Y436842D01*
X478603Y437558D01*
X478130Y438285D01*
X477675Y439024D01*
X477238Y439774D01*
X476820Y440534D01*
X476420Y441304D01*
X476039Y442084D01*
X475678Y442873D01*
X475336Y443670D01*
X475014Y444476D01*
X474712Y445289D01*
X474429Y446110D01*
X474167Y446937D01*
X473926Y447770D01*
X473705Y448609D01*
X473504Y449454D01*
X473324Y450303D01*
X473166Y451156D01*
X473028Y452012D01*
X472911Y452872D01*
X472815Y453735D01*
X472741Y454599D01*
X472688Y455465D01*
X472656Y456332D01*
X472645Y457200D01*
X488000Y477200D02*
X528000Y477200D01*
X528000Y437200D01*
X488000Y437200D01*
X488000Y477200D01*
X448000Y494700D02*
X448000Y507200D01*
X448000Y469700D02*
X448000Y444700D01*
X448000Y419700D02*
X448000Y407200D01*
X568000Y494700D02*
X568000Y507200D01*
X568000Y469700D02*
X568000Y444700D01*
X568000Y419700D02*
X568000Y407200D01*
D11*
X498341Y381706D02*
X498339Y381608D01*
X498333Y381511D01*
X498324Y381414D01*
X498310Y381317D01*
X498293Y381221D01*
X498272Y381126D01*
X498248Y381032D01*
X498219Y380938D01*
X498187Y380846D01*
X498152Y380755D01*
X498113Y380666D01*
X498070Y380578D01*
X498024Y380492D01*
X497975Y380408D01*
X497922Y380326D01*
X497867Y380246D01*
X497808Y380168D01*
X497746Y380093D01*
X497681Y380020D01*
X497613Y379950D01*
X497543Y379882D01*
X497470Y379817D01*
X497395Y379755D01*
X497317Y379696D01*
X497237Y379641D01*
X497155Y379588D01*
X497071Y379539D01*
X496985Y379493D01*
X496897Y379450D01*
X496808Y379411D01*
X496717Y379376D01*
X496625Y379344D01*
X496531Y379315D01*
X496437Y379291D01*
X496342Y379270D01*
X496246Y379253D01*
X496149Y379239D01*
X496052Y379230D01*
X495954Y379224D01*
X495857Y379222D01*
X495714Y379224D01*
X495571Y379230D01*
X495429Y379239D01*
X495287Y379253D01*
X495145Y379271D01*
X495004Y379292D01*
X494863Y379317D01*
X494723Y379346D01*
X494584Y379379D01*
X494446Y379415D01*
X494309Y379456D01*
X494173Y379500D01*
X494038Y379547D01*
X493905Y379599D01*
X493773Y379654D01*
X493643Y379712D01*
X493514Y379774D01*
X493387Y379840D01*
X493262Y379909D01*
X493139Y379981D01*
X493018Y380057D01*
X492899Y380135D01*
X492782Y380218D01*
X492667Y380303D01*
X492555Y380391D01*
X492445Y380483D01*
X492338Y380577D01*
X492233Y380674D01*
X492131Y380774D01*
X492442Y387914D02*
X492444Y388012D01*
X492450Y388109D01*
X492459Y388206D01*
X492473Y388303D01*
X492490Y388399D01*
X492511Y388494D01*
X492535Y388588D01*
X492564Y388682D01*
X492596Y388774D01*
X492631Y388865D01*
X492670Y388954D01*
X492713Y389042D01*
X492759Y389128D01*
X492808Y389212D01*
X492861Y389294D01*
X492916Y389374D01*
X492975Y389452D01*
X493037Y389527D01*
X493102Y389600D01*
X493170Y389670D01*
X493240Y389738D01*
X493313Y389803D01*
X493388Y389865D01*
X493466Y389924D01*
X493546Y389979D01*
X493628Y390032D01*
X493712Y390081D01*
X493798Y390127D01*
X493886Y390170D01*
X493975Y390209D01*
X494066Y390244D01*
X494158Y390276D01*
X494252Y390305D01*
X494346Y390329D01*
X494441Y390350D01*
X494537Y390367D01*
X494634Y390381D01*
X494731Y390390D01*
X494828Y390396D01*
X494926Y390398D01*
X495056Y390396D01*
X495186Y390391D01*
X495316Y390382D01*
X495446Y390369D01*
X495575Y390353D01*
X495704Y390333D01*
X495832Y390309D01*
X495960Y390282D01*
X496086Y390251D01*
X496212Y390217D01*
X496337Y390179D01*
X496460Y390138D01*
X496583Y390093D01*
X496704Y390045D01*
X496824Y389994D01*
X496942Y389939D01*
X497058Y389881D01*
X497173Y389820D01*
X497287Y389755D01*
X497398Y389688D01*
X497507Y389617D01*
X497615Y389543D01*
X497720Y389467D01*
X493685Y385741D02*
X493602Y385792D01*
X493521Y385846D01*
X493443Y385903D01*
X493367Y385963D01*
X493293Y386026D01*
X493222Y386092D01*
X493153Y386160D01*
X493087Y386231D01*
X493023Y386304D01*
X492963Y386380D01*
X492906Y386458D01*
X492851Y386539D01*
X492800Y386621D01*
X492752Y386705D01*
X492707Y386791D01*
X492665Y386879D01*
X492627Y386968D01*
X492593Y387058D01*
X492561Y387150D01*
X492534Y387243D01*
X492510Y387337D01*
X492489Y387432D01*
X492473Y387528D01*
X492460Y387624D01*
X492450Y387720D01*
X492445Y387817D01*
X492443Y387914D01*
X497099Y383879D02*
X497182Y383828D01*
X497263Y383774D01*
X497341Y383717D01*
X497417Y383657D01*
X497491Y383594D01*
X497562Y383528D01*
X497631Y383460D01*
X497697Y383389D01*
X497761Y383316D01*
X497821Y383240D01*
X497878Y383162D01*
X497933Y383081D01*
X497984Y382999D01*
X498032Y382915D01*
X498077Y382829D01*
X498119Y382741D01*
X498157Y382652D01*
X498191Y382562D01*
X498223Y382470D01*
X498250Y382377D01*
X498274Y382283D01*
X498295Y382188D01*
X498311Y382092D01*
X498324Y381996D01*
X498334Y381900D01*
X498339Y381803D01*
X498341Y381706D01*
X497099Y383879D02*
X493684Y385741D01*
X502842Y390398D02*
X505326Y379222D01*
X507810Y386673D01*
X510293Y379222D01*
X512777Y390398D01*
X517659Y387914D02*
X520764Y390398D01*
X520764Y379222D01*
X523868Y379222D02*
X517659Y379222D01*
D13*
X767080Y401320D03*
D11*
X756412Y395478D02*
X756412Y384302D01*
X756412Y395478D02*
X759516Y395478D01*
X759627Y395476D01*
X759737Y395470D01*
X759848Y395460D01*
X759958Y395446D01*
X760067Y395429D01*
X760176Y395407D01*
X760284Y395382D01*
X760390Y395352D01*
X760496Y395319D01*
X760601Y395282D01*
X760704Y395242D01*
X760805Y395197D01*
X760905Y395150D01*
X761004Y395098D01*
X761100Y395043D01*
X761194Y394985D01*
X761286Y394924D01*
X761376Y394859D01*
X761464Y394791D01*
X761549Y394720D01*
X761631Y394646D01*
X761711Y394569D01*
X761788Y394489D01*
X761862Y394407D01*
X761933Y394322D01*
X762001Y394234D01*
X762066Y394144D01*
X762127Y394052D01*
X762185Y393958D01*
X762240Y393862D01*
X762292Y393763D01*
X762339Y393663D01*
X762384Y393562D01*
X762424Y393459D01*
X762461Y393354D01*
X762494Y393248D01*
X762524Y393142D01*
X762549Y393034D01*
X762571Y392925D01*
X762588Y392816D01*
X762602Y392706D01*
X762612Y392595D01*
X762618Y392485D01*
X762620Y392374D01*
X762618Y392263D01*
X762612Y392153D01*
X762602Y392042D01*
X762588Y391932D01*
X762571Y391823D01*
X762549Y391714D01*
X762524Y391606D01*
X762494Y391500D01*
X762461Y391394D01*
X762424Y391289D01*
X762384Y391186D01*
X762339Y391085D01*
X762292Y390985D01*
X762240Y390886D01*
X762185Y390790D01*
X762127Y390696D01*
X762066Y390604D01*
X762001Y390514D01*
X761933Y390426D01*
X761862Y390341D01*
X761788Y390259D01*
X761711Y390179D01*
X761631Y390102D01*
X761549Y390028D01*
X761464Y389957D01*
X761376Y389889D01*
X761286Y389824D01*
X761194Y389763D01*
X761100Y389705D01*
X761004Y389650D01*
X760905Y389598D01*
X760805Y389551D01*
X760704Y389506D01*
X760601Y389466D01*
X760496Y389429D01*
X760390Y389396D01*
X760284Y389366D01*
X760176Y389341D01*
X760067Y389319D01*
X759958Y389302D01*
X759848Y389288D01*
X759737Y389278D01*
X759627Y389272D01*
X759516Y389270D01*
X759516Y389269D02*
X756412Y389269D01*
X760137Y389269D02*
X762621Y384302D01*
X767750Y384302D02*
X770854Y384302D01*
X770965Y384304D01*
X771075Y384310D01*
X771186Y384320D01*
X771296Y384334D01*
X771405Y384351D01*
X771514Y384373D01*
X771622Y384398D01*
X771728Y384428D01*
X771834Y384461D01*
X771939Y384498D01*
X772042Y384538D01*
X772143Y384583D01*
X772243Y384630D01*
X772342Y384682D01*
X772438Y384737D01*
X772532Y384795D01*
X772624Y384856D01*
X772714Y384921D01*
X772802Y384989D01*
X772887Y385060D01*
X772969Y385134D01*
X773049Y385211D01*
X773126Y385291D01*
X773200Y385373D01*
X773271Y385458D01*
X773339Y385546D01*
X773404Y385636D01*
X773465Y385728D01*
X773523Y385822D01*
X773578Y385918D01*
X773630Y386017D01*
X773677Y386117D01*
X773722Y386218D01*
X773762Y386321D01*
X773799Y386426D01*
X773832Y386532D01*
X773862Y386638D01*
X773887Y386746D01*
X773909Y386855D01*
X773926Y386964D01*
X773940Y387074D01*
X773950Y387185D01*
X773956Y387295D01*
X773958Y387406D01*
X773956Y387517D01*
X773950Y387627D01*
X773940Y387738D01*
X773926Y387848D01*
X773909Y387957D01*
X773887Y388066D01*
X773862Y388174D01*
X773832Y388280D01*
X773799Y388386D01*
X773762Y388491D01*
X773722Y388594D01*
X773677Y388695D01*
X773630Y388795D01*
X773578Y388894D01*
X773523Y388990D01*
X773465Y389084D01*
X773404Y389176D01*
X773339Y389266D01*
X773271Y389354D01*
X773200Y389439D01*
X773126Y389521D01*
X773049Y389601D01*
X772969Y389678D01*
X772887Y389752D01*
X772802Y389823D01*
X772714Y389891D01*
X772624Y389956D01*
X772532Y390017D01*
X772438Y390075D01*
X772342Y390130D01*
X772243Y390182D01*
X772143Y390229D01*
X772042Y390274D01*
X771939Y390314D01*
X771834Y390351D01*
X771728Y390384D01*
X771622Y390414D01*
X771514Y390439D01*
X771405Y390461D01*
X771296Y390478D01*
X771186Y390492D01*
X771075Y390502D01*
X770965Y390508D01*
X770854Y390510D01*
X771475Y395478D02*
X767750Y395478D01*
X771475Y395478D02*
X771574Y395476D01*
X771672Y395470D01*
X771771Y395460D01*
X771868Y395447D01*
X771966Y395429D01*
X772062Y395408D01*
X772158Y395382D01*
X772252Y395353D01*
X772345Y395321D01*
X772437Y395284D01*
X772527Y395244D01*
X772616Y395200D01*
X772703Y395153D01*
X772788Y395103D01*
X772870Y395049D01*
X772951Y394992D01*
X773029Y394932D01*
X773105Y394868D01*
X773178Y394802D01*
X773249Y394733D01*
X773317Y394661D01*
X773381Y394586D01*
X773443Y394509D01*
X773502Y394430D01*
X773557Y394348D01*
X773610Y394264D01*
X773658Y394179D01*
X773704Y394091D01*
X773746Y394001D01*
X773784Y393910D01*
X773818Y393818D01*
X773849Y393724D01*
X773876Y393629D01*
X773900Y393533D01*
X773919Y393436D01*
X773935Y393339D01*
X773947Y393241D01*
X773955Y393142D01*
X773959Y393043D01*
X773959Y392945D01*
X773955Y392846D01*
X773947Y392747D01*
X773935Y392649D01*
X773919Y392552D01*
X773900Y392455D01*
X773876Y392359D01*
X773849Y392264D01*
X773818Y392170D01*
X773784Y392078D01*
X773746Y391987D01*
X773704Y391897D01*
X773658Y391809D01*
X773610Y391724D01*
X773557Y391640D01*
X773502Y391558D01*
X773443Y391479D01*
X773381Y391402D01*
X773317Y391327D01*
X773249Y391255D01*
X773178Y391186D01*
X773105Y391120D01*
X773029Y391056D01*
X772951Y390996D01*
X772870Y390939D01*
X772788Y390885D01*
X772703Y390835D01*
X772616Y390788D01*
X772527Y390744D01*
X772437Y390704D01*
X772345Y390667D01*
X772252Y390635D01*
X772158Y390606D01*
X772062Y390580D01*
X771966Y390559D01*
X771868Y390541D01*
X771771Y390528D01*
X771672Y390518D01*
X771574Y390512D01*
X771475Y390510D01*
X771475Y390511D02*
X768992Y390511D01*
D14*
X738180Y407200D02*
X738177Y406958D01*
X738168Y406717D01*
X738154Y406476D01*
X738133Y406235D01*
X738107Y405995D01*
X738075Y405755D01*
X738037Y405516D01*
X737994Y405279D01*
X737944Y405042D01*
X737889Y404807D01*
X737829Y404573D01*
X737762Y404341D01*
X737691Y404110D01*
X737613Y403881D01*
X737530Y403654D01*
X737442Y403429D01*
X737348Y403206D01*
X737249Y402986D01*
X737144Y402768D01*
X737035Y402553D01*
X736920Y402340D01*
X736800Y402130D01*
X736675Y401924D01*
X736545Y401720D01*
X736410Y401519D01*
X736270Y401322D01*
X736126Y401128D01*
X735977Y400938D01*
X735823Y400752D01*
X735665Y400569D01*
X735503Y400390D01*
X735336Y400215D01*
X735165Y400044D01*
X734990Y399877D01*
X734811Y399715D01*
X734628Y399557D01*
X734442Y399403D01*
X734252Y399254D01*
X734058Y399110D01*
X733861Y398970D01*
X733660Y398835D01*
X733456Y398705D01*
X733250Y398580D01*
X733040Y398460D01*
X732827Y398345D01*
X732612Y398236D01*
X732394Y398131D01*
X732174Y398032D01*
X731951Y397938D01*
X731726Y397850D01*
X731499Y397767D01*
X731270Y397689D01*
X731039Y397618D01*
X730807Y397551D01*
X730573Y397491D01*
X730338Y397436D01*
X730101Y397386D01*
X729864Y397343D01*
X729625Y397305D01*
X729385Y397273D01*
X729145Y397247D01*
X728904Y397226D01*
X728663Y397212D01*
X728422Y397203D01*
X728180Y397200D01*
X628180Y397200D01*
X627938Y397203D01*
X627697Y397212D01*
X627456Y397226D01*
X627215Y397247D01*
X626975Y397273D01*
X626735Y397305D01*
X626496Y397343D01*
X626259Y397386D01*
X626022Y397436D01*
X625787Y397491D01*
X625553Y397551D01*
X625321Y397618D01*
X625090Y397689D01*
X624861Y397767D01*
X624634Y397850D01*
X624409Y397938D01*
X624186Y398032D01*
X623966Y398131D01*
X623748Y398236D01*
X623533Y398345D01*
X623320Y398460D01*
X623110Y398580D01*
X622904Y398705D01*
X622700Y398835D01*
X622499Y398970D01*
X622302Y399110D01*
X622108Y399254D01*
X621918Y399403D01*
X621732Y399557D01*
X621549Y399715D01*
X621370Y399877D01*
X621195Y400044D01*
X621024Y400215D01*
X620857Y400390D01*
X620695Y400569D01*
X620537Y400752D01*
X620383Y400938D01*
X620234Y401128D01*
X620090Y401322D01*
X619950Y401519D01*
X619815Y401720D01*
X619685Y401924D01*
X619560Y402130D01*
X619440Y402340D01*
X619325Y402553D01*
X619216Y402768D01*
X619111Y402986D01*
X619012Y403206D01*
X618918Y403429D01*
X618830Y403654D01*
X618747Y403881D01*
X618669Y404110D01*
X618598Y404341D01*
X618531Y404573D01*
X618471Y404807D01*
X618416Y405042D01*
X618366Y405279D01*
X618323Y405516D01*
X618285Y405755D01*
X618253Y405995D01*
X618227Y406235D01*
X618206Y406476D01*
X618192Y406717D01*
X618183Y406958D01*
X618180Y407200D01*
X618180Y507200D02*
X618183Y507442D01*
X618192Y507683D01*
X618206Y507924D01*
X618227Y508165D01*
X618253Y508405D01*
X618285Y508645D01*
X618323Y508884D01*
X618366Y509121D01*
X618416Y509358D01*
X618471Y509593D01*
X618531Y509827D01*
X618598Y510059D01*
X618669Y510290D01*
X618747Y510519D01*
X618830Y510746D01*
X618918Y510971D01*
X619012Y511194D01*
X619111Y511414D01*
X619216Y511632D01*
X619325Y511847D01*
X619440Y512060D01*
X619560Y512270D01*
X619685Y512476D01*
X619815Y512680D01*
X619950Y512881D01*
X620090Y513078D01*
X620234Y513272D01*
X620383Y513462D01*
X620537Y513648D01*
X620695Y513831D01*
X620857Y514010D01*
X621024Y514185D01*
X621195Y514356D01*
X621370Y514523D01*
X621549Y514685D01*
X621732Y514843D01*
X621918Y514997D01*
X622108Y515146D01*
X622302Y515290D01*
X622499Y515430D01*
X622700Y515565D01*
X622904Y515695D01*
X623110Y515820D01*
X623320Y515940D01*
X623533Y516055D01*
X623748Y516164D01*
X623966Y516269D01*
X624186Y516368D01*
X624409Y516462D01*
X624634Y516550D01*
X624861Y516633D01*
X625090Y516711D01*
X625321Y516782D01*
X625553Y516849D01*
X625787Y516909D01*
X626022Y516964D01*
X626259Y517014D01*
X626496Y517057D01*
X626735Y517095D01*
X626975Y517127D01*
X627215Y517153D01*
X627456Y517174D01*
X627697Y517188D01*
X627938Y517197D01*
X628180Y517200D01*
X728180Y517200D01*
X728422Y517197D01*
X728663Y517188D01*
X728904Y517174D01*
X729145Y517153D01*
X729385Y517127D01*
X729625Y517095D01*
X729864Y517057D01*
X730101Y517014D01*
X730338Y516964D01*
X730573Y516909D01*
X730807Y516849D01*
X731039Y516782D01*
X731270Y516711D01*
X731499Y516633D01*
X731726Y516550D01*
X731951Y516462D01*
X732174Y516368D01*
X732394Y516269D01*
X732612Y516164D01*
X732827Y516055D01*
X733040Y515940D01*
X733250Y515820D01*
X733456Y515695D01*
X733660Y515565D01*
X733861Y515430D01*
X734058Y515290D01*
X734252Y515146D01*
X734442Y514997D01*
X734628Y514843D01*
X734811Y514685D01*
X734990Y514523D01*
X735165Y514356D01*
X735336Y514185D01*
X735503Y514010D01*
X735665Y513831D01*
X735823Y513648D01*
X735977Y513462D01*
X736126Y513272D01*
X736270Y513078D01*
X736410Y512881D01*
X736545Y512680D01*
X736675Y512476D01*
X736800Y512270D01*
X736920Y512060D01*
X737035Y511847D01*
X737144Y511632D01*
X737249Y511414D01*
X737348Y511194D01*
X737442Y510971D01*
X737530Y510746D01*
X737613Y510519D01*
X737691Y510290D01*
X737762Y510059D01*
X737829Y509827D01*
X737889Y509593D01*
X737944Y509358D01*
X737994Y509121D01*
X738037Y508884D01*
X738075Y508645D01*
X738107Y508405D01*
X738133Y508165D01*
X738154Y507924D01*
X738168Y507683D01*
X738177Y507442D01*
X738180Y507200D01*
X642825Y457200D02*
X642836Y458068D01*
X642868Y458935D01*
X642921Y459801D01*
X642995Y460665D01*
X643091Y461528D01*
X643208Y462388D01*
X643346Y463244D01*
X643504Y464097D01*
X643684Y464946D01*
X643885Y465791D01*
X644106Y466630D01*
X644347Y467463D01*
X644609Y468290D01*
X644892Y469111D01*
X645194Y469924D01*
X645516Y470730D01*
X645858Y471527D01*
X646219Y472316D01*
X646600Y473096D01*
X647000Y473866D01*
X647418Y474626D01*
X647855Y475376D01*
X648310Y476115D01*
X648783Y476842D01*
X649274Y477558D01*
X649783Y478261D01*
X650308Y478952D01*
X650850Y479629D01*
X651409Y480293D01*
X651984Y480943D01*
X652574Y481579D01*
X653180Y482200D01*
X653801Y482806D01*
X654437Y483396D01*
X655087Y483971D01*
X655751Y484530D01*
X656428Y485072D01*
X657119Y485597D01*
X657822Y486106D01*
X658538Y486597D01*
X659265Y487070D01*
X660004Y487525D01*
X660754Y487962D01*
X661514Y488380D01*
X662284Y488780D01*
X663064Y489161D01*
X663853Y489522D01*
X664650Y489864D01*
X665456Y490186D01*
X666269Y490488D01*
X667090Y490771D01*
X667917Y491033D01*
X668750Y491274D01*
X669589Y491495D01*
X670434Y491696D01*
X671283Y491876D01*
X672136Y492034D01*
X672992Y492172D01*
X673852Y492289D01*
X674715Y492385D01*
X675579Y492459D01*
X676445Y492512D01*
X677312Y492544D01*
X678180Y492555D01*
X679048Y492544D01*
X679915Y492512D01*
X680781Y492459D01*
X681645Y492385D01*
X682508Y492289D01*
X683368Y492172D01*
X684224Y492034D01*
X685077Y491876D01*
X685926Y491696D01*
X686771Y491495D01*
X687610Y491274D01*
X688443Y491033D01*
X689270Y490771D01*
X690091Y490488D01*
X690904Y490186D01*
X691710Y489864D01*
X692507Y489522D01*
X693296Y489161D01*
X694076Y488780D01*
X694846Y488380D01*
X695606Y487962D01*
X696356Y487525D01*
X697095Y487070D01*
X697822Y486597D01*
X698538Y486106D01*
X699241Y485597D01*
X699932Y485072D01*
X700609Y484530D01*
X701273Y483971D01*
X701923Y483396D01*
X702559Y482806D01*
X703180Y482200D01*
X703786Y481579D01*
X704376Y480943D01*
X704951Y480293D01*
X705510Y479629D01*
X706052Y478952D01*
X706577Y478261D01*
X707086Y477558D01*
X707577Y476842D01*
X708050Y476115D01*
X708505Y475376D01*
X708942Y474626D01*
X709360Y473866D01*
X709760Y473096D01*
X710141Y472316D01*
X710502Y471527D01*
X710844Y470730D01*
X711166Y469924D01*
X711468Y469111D01*
X711751Y468290D01*
X712013Y467463D01*
X712254Y466630D01*
X712475Y465791D01*
X712676Y464946D01*
X712856Y464097D01*
X713014Y463244D01*
X713152Y462388D01*
X713269Y461528D01*
X713365Y460665D01*
X713439Y459801D01*
X713492Y458935D01*
X713524Y458068D01*
X713535Y457200D01*
X713524Y456332D01*
X713492Y455465D01*
X713439Y454599D01*
X713365Y453735D01*
X713269Y452872D01*
X713152Y452012D01*
X713014Y451156D01*
X712856Y450303D01*
X712676Y449454D01*
X712475Y448609D01*
X712254Y447770D01*
X712013Y446937D01*
X711751Y446110D01*
X711468Y445289D01*
X711166Y444476D01*
X710844Y443670D01*
X710502Y442873D01*
X710141Y442084D01*
X709760Y441304D01*
X709360Y440534D01*
X708942Y439774D01*
X708505Y439024D01*
X708050Y438285D01*
X707577Y437558D01*
X707086Y436842D01*
X706577Y436139D01*
X706052Y435448D01*
X705510Y434771D01*
X704951Y434107D01*
X704376Y433457D01*
X703786Y432821D01*
X703180Y432200D01*
X702559Y431594D01*
X701923Y431004D01*
X701273Y430429D01*
X700609Y429870D01*
X699932Y429328D01*
X699241Y428803D01*
X698538Y428294D01*
X697822Y427803D01*
X697095Y427330D01*
X696356Y426875D01*
X695606Y426438D01*
X694846Y426020D01*
X694076Y425620D01*
X693296Y425239D01*
X692507Y424878D01*
X691710Y424536D01*
X690904Y424214D01*
X690091Y423912D01*
X689270Y423629D01*
X688443Y423367D01*
X687610Y423126D01*
X686771Y422905D01*
X685926Y422704D01*
X685077Y422524D01*
X684224Y422366D01*
X683368Y422228D01*
X682508Y422111D01*
X681645Y422015D01*
X680781Y421941D01*
X679915Y421888D01*
X679048Y421856D01*
X678180Y421845D01*
X677312Y421856D01*
X676445Y421888D01*
X675579Y421941D01*
X674715Y422015D01*
X673852Y422111D01*
X672992Y422228D01*
X672136Y422366D01*
X671283Y422524D01*
X670434Y422704D01*
X669589Y422905D01*
X668750Y423126D01*
X667917Y423367D01*
X667090Y423629D01*
X666269Y423912D01*
X665456Y424214D01*
X664650Y424536D01*
X663853Y424878D01*
X663064Y425239D01*
X662284Y425620D01*
X661514Y426020D01*
X660754Y426438D01*
X660004Y426875D01*
X659265Y427330D01*
X658538Y427803D01*
X657822Y428294D01*
X657119Y428803D01*
X656428Y429328D01*
X655751Y429870D01*
X655087Y430429D01*
X654437Y431004D01*
X653801Y431594D01*
X653180Y432200D01*
X652574Y432821D01*
X651984Y433457D01*
X651409Y434107D01*
X650850Y434771D01*
X650308Y435448D01*
X649783Y436139D01*
X649274Y436842D01*
X648783Y437558D01*
X648310Y438285D01*
X647855Y439024D01*
X647418Y439774D01*
X647000Y440534D01*
X646600Y441304D01*
X646219Y442084D01*
X645858Y442873D01*
X645516Y443670D01*
X645194Y444476D01*
X644892Y445289D01*
X644609Y446110D01*
X644347Y446937D01*
X644106Y447770D01*
X643885Y448609D01*
X643684Y449454D01*
X643504Y450303D01*
X643346Y451156D01*
X643208Y452012D01*
X643091Y452872D01*
X642995Y453735D01*
X642921Y454599D01*
X642868Y455465D01*
X642836Y456332D01*
X642825Y457200D01*
X658180Y477200D02*
X698180Y477200D01*
X698180Y437200D01*
X658180Y437200D01*
X658180Y477200D01*
X618180Y494700D02*
X618180Y507200D01*
X618180Y469700D02*
X618180Y444700D01*
X618180Y419700D02*
X618180Y407200D01*
X738180Y494700D02*
X738180Y507200D01*
X738180Y469700D02*
X738180Y444700D01*
X738180Y419700D02*
X738180Y407200D01*
D11*
X668521Y381706D02*
X668519Y381608D01*
X668513Y381511D01*
X668504Y381414D01*
X668490Y381317D01*
X668473Y381221D01*
X668452Y381126D01*
X668428Y381032D01*
X668399Y380938D01*
X668367Y380846D01*
X668332Y380755D01*
X668293Y380666D01*
X668250Y380578D01*
X668204Y380492D01*
X668155Y380408D01*
X668102Y380326D01*
X668047Y380246D01*
X667988Y380168D01*
X667926Y380093D01*
X667861Y380020D01*
X667793Y379950D01*
X667723Y379882D01*
X667650Y379817D01*
X667575Y379755D01*
X667497Y379696D01*
X667417Y379641D01*
X667335Y379588D01*
X667251Y379539D01*
X667165Y379493D01*
X667077Y379450D01*
X666988Y379411D01*
X666897Y379376D01*
X666805Y379344D01*
X666711Y379315D01*
X666617Y379291D01*
X666522Y379270D01*
X666426Y379253D01*
X666329Y379239D01*
X666232Y379230D01*
X666134Y379224D01*
X666037Y379222D01*
X665894Y379224D01*
X665751Y379230D01*
X665609Y379239D01*
X665467Y379253D01*
X665325Y379271D01*
X665184Y379292D01*
X665043Y379317D01*
X664903Y379346D01*
X664764Y379379D01*
X664626Y379415D01*
X664489Y379456D01*
X664353Y379500D01*
X664218Y379547D01*
X664085Y379599D01*
X663953Y379654D01*
X663823Y379712D01*
X663694Y379774D01*
X663567Y379840D01*
X663442Y379909D01*
X663319Y379981D01*
X663198Y380057D01*
X663079Y380135D01*
X662962Y380218D01*
X662847Y380303D01*
X662735Y380391D01*
X662625Y380483D01*
X662518Y380577D01*
X662413Y380674D01*
X662311Y380774D01*
X662622Y387914D02*
X662624Y388012D01*
X662630Y388109D01*
X662639Y388206D01*
X662653Y388303D01*
X662670Y388399D01*
X662691Y388494D01*
X662715Y388588D01*
X662744Y388682D01*
X662776Y388774D01*
X662811Y388865D01*
X662850Y388954D01*
X662893Y389042D01*
X662939Y389128D01*
X662988Y389212D01*
X663041Y389294D01*
X663096Y389374D01*
X663155Y389452D01*
X663217Y389527D01*
X663282Y389600D01*
X663350Y389670D01*
X663420Y389738D01*
X663493Y389803D01*
X663568Y389865D01*
X663646Y389924D01*
X663726Y389979D01*
X663808Y390032D01*
X663892Y390081D01*
X663978Y390127D01*
X664066Y390170D01*
X664155Y390209D01*
X664246Y390244D01*
X664338Y390276D01*
X664432Y390305D01*
X664526Y390329D01*
X664621Y390350D01*
X664717Y390367D01*
X664814Y390381D01*
X664911Y390390D01*
X665008Y390396D01*
X665106Y390398D01*
X665236Y390396D01*
X665366Y390391D01*
X665496Y390382D01*
X665626Y390369D01*
X665755Y390353D01*
X665884Y390333D01*
X666012Y390309D01*
X666140Y390282D01*
X666266Y390251D01*
X666392Y390217D01*
X666517Y390179D01*
X666640Y390138D01*
X666763Y390093D01*
X666884Y390045D01*
X667004Y389994D01*
X667122Y389939D01*
X667238Y389881D01*
X667353Y389820D01*
X667467Y389755D01*
X667578Y389688D01*
X667687Y389617D01*
X667795Y389543D01*
X667900Y389467D01*
X663865Y385741D02*
X663782Y385792D01*
X663701Y385846D01*
X663623Y385903D01*
X663547Y385963D01*
X663473Y386026D01*
X663402Y386092D01*
X663333Y386160D01*
X663267Y386231D01*
X663203Y386304D01*
X663143Y386380D01*
X663086Y386458D01*
X663031Y386539D01*
X662980Y386621D01*
X662932Y386705D01*
X662887Y386791D01*
X662845Y386879D01*
X662807Y386968D01*
X662773Y387058D01*
X662741Y387150D01*
X662714Y387243D01*
X662690Y387337D01*
X662669Y387432D01*
X662653Y387528D01*
X662640Y387624D01*
X662630Y387720D01*
X662625Y387817D01*
X662623Y387914D01*
X667279Y383879D02*
X667362Y383828D01*
X667443Y383774D01*
X667521Y383717D01*
X667597Y383657D01*
X667671Y383594D01*
X667742Y383528D01*
X667811Y383460D01*
X667877Y383389D01*
X667941Y383316D01*
X668001Y383240D01*
X668058Y383162D01*
X668113Y383081D01*
X668164Y382999D01*
X668212Y382915D01*
X668257Y382829D01*
X668299Y382741D01*
X668337Y382652D01*
X668371Y382562D01*
X668403Y382470D01*
X668430Y382377D01*
X668454Y382283D01*
X668475Y382188D01*
X668491Y382092D01*
X668504Y381996D01*
X668514Y381900D01*
X668519Y381803D01*
X668521Y381706D01*
X667279Y383879D02*
X663864Y385741D01*
X673022Y390398D02*
X675506Y379222D01*
X677990Y386673D01*
X680473Y379222D01*
X682957Y390398D01*
X691254Y390398D02*
X691358Y390396D01*
X691463Y390390D01*
X691567Y390380D01*
X691670Y390367D01*
X691773Y390349D01*
X691876Y390328D01*
X691977Y390303D01*
X692078Y390274D01*
X692177Y390241D01*
X692275Y390205D01*
X692371Y390165D01*
X692466Y390121D01*
X692560Y390074D01*
X692651Y390024D01*
X692740Y389970D01*
X692828Y389913D01*
X692913Y389852D01*
X692996Y389788D01*
X693076Y389722D01*
X693154Y389652D01*
X693230Y389580D01*
X693302Y389504D01*
X693372Y389426D01*
X693438Y389346D01*
X693502Y389263D01*
X693563Y389178D01*
X693620Y389090D01*
X693674Y389001D01*
X693724Y388910D01*
X693771Y388816D01*
X693815Y388721D01*
X693855Y388625D01*
X693891Y388527D01*
X693924Y388428D01*
X693953Y388327D01*
X693978Y388226D01*
X693999Y388123D01*
X694017Y388020D01*
X694030Y387917D01*
X694040Y387813D01*
X694046Y387708D01*
X694048Y387604D01*
X691254Y390399D02*
X691135Y390397D01*
X691017Y390391D01*
X690898Y390381D01*
X690780Y390368D01*
X690663Y390350D01*
X690546Y390328D01*
X690430Y390303D01*
X690315Y390274D01*
X690200Y390241D01*
X690087Y390204D01*
X689976Y390164D01*
X689865Y390120D01*
X689757Y390072D01*
X689650Y390021D01*
X689544Y389966D01*
X689441Y389907D01*
X689339Y389846D01*
X689240Y389781D01*
X689142Y389712D01*
X689048Y389641D01*
X688955Y389566D01*
X688865Y389489D01*
X688778Y389408D01*
X688693Y389325D01*
X688611Y389239D01*
X688532Y389150D01*
X688456Y389059D01*
X688383Y388965D01*
X688314Y388869D01*
X688247Y388770D01*
X688184Y388670D01*
X688124Y388567D01*
X688067Y388463D01*
X688015Y388356D01*
X687965Y388248D01*
X687919Y388139D01*
X687877Y388027D01*
X687839Y387915D01*
X693117Y385431D02*
X693192Y385505D01*
X693264Y385582D01*
X693334Y385661D01*
X693401Y385743D01*
X693465Y385827D01*
X693526Y385913D01*
X693584Y386001D01*
X693639Y386092D01*
X693691Y386184D01*
X693739Y386278D01*
X693784Y386373D01*
X693826Y386471D01*
X693864Y386569D01*
X693899Y386669D01*
X693930Y386770D01*
X693957Y386872D01*
X693981Y386975D01*
X694002Y387078D01*
X694018Y387183D01*
X694031Y387288D01*
X694041Y387393D01*
X694046Y387498D01*
X694048Y387604D01*
X693117Y385431D02*
X687839Y379222D01*
X694048Y379222D01*
D13*
X929640Y406400D03*
D11*
X918972Y400558D02*
X918972Y389382D01*
X918972Y400558D02*
X922076Y400558D01*
X922187Y400556D01*
X922297Y400550D01*
X922408Y400540D01*
X922518Y400526D01*
X922627Y400509D01*
X922736Y400487D01*
X922844Y400462D01*
X922950Y400432D01*
X923056Y400399D01*
X923161Y400362D01*
X923264Y400322D01*
X923365Y400277D01*
X923465Y400230D01*
X923564Y400178D01*
X923660Y400123D01*
X923754Y400065D01*
X923846Y400004D01*
X923936Y399939D01*
X924024Y399871D01*
X924109Y399800D01*
X924191Y399726D01*
X924271Y399649D01*
X924348Y399569D01*
X924422Y399487D01*
X924493Y399402D01*
X924561Y399314D01*
X924626Y399224D01*
X924687Y399132D01*
X924745Y399038D01*
X924800Y398942D01*
X924852Y398843D01*
X924899Y398743D01*
X924944Y398642D01*
X924984Y398539D01*
X925021Y398434D01*
X925054Y398328D01*
X925084Y398222D01*
X925109Y398114D01*
X925131Y398005D01*
X925148Y397896D01*
X925162Y397786D01*
X925172Y397675D01*
X925178Y397565D01*
X925180Y397454D01*
X925178Y397343D01*
X925172Y397233D01*
X925162Y397122D01*
X925148Y397012D01*
X925131Y396903D01*
X925109Y396794D01*
X925084Y396686D01*
X925054Y396580D01*
X925021Y396474D01*
X924984Y396369D01*
X924944Y396266D01*
X924899Y396165D01*
X924852Y396065D01*
X924800Y395966D01*
X924745Y395870D01*
X924687Y395776D01*
X924626Y395684D01*
X924561Y395594D01*
X924493Y395506D01*
X924422Y395421D01*
X924348Y395339D01*
X924271Y395259D01*
X924191Y395182D01*
X924109Y395108D01*
X924024Y395037D01*
X923936Y394969D01*
X923846Y394904D01*
X923754Y394843D01*
X923660Y394785D01*
X923564Y394730D01*
X923465Y394678D01*
X923365Y394631D01*
X923264Y394586D01*
X923161Y394546D01*
X923056Y394509D01*
X922950Y394476D01*
X922844Y394446D01*
X922736Y394421D01*
X922627Y394399D01*
X922518Y394382D01*
X922408Y394368D01*
X922297Y394358D01*
X922187Y394352D01*
X922076Y394350D01*
X922076Y394349D02*
X918972Y394349D01*
X922697Y394349D02*
X925181Y389382D01*
X930310Y391866D02*
X932794Y400558D01*
X930310Y391866D02*
X936519Y391866D01*
X934656Y394349D02*
X934656Y389382D01*
D14*
X910900Y407200D02*
X910897Y406958D01*
X910888Y406717D01*
X910874Y406476D01*
X910853Y406235D01*
X910827Y405995D01*
X910795Y405755D01*
X910757Y405516D01*
X910714Y405279D01*
X910664Y405042D01*
X910609Y404807D01*
X910549Y404573D01*
X910482Y404341D01*
X910411Y404110D01*
X910333Y403881D01*
X910250Y403654D01*
X910162Y403429D01*
X910068Y403206D01*
X909969Y402986D01*
X909864Y402768D01*
X909755Y402553D01*
X909640Y402340D01*
X909520Y402130D01*
X909395Y401924D01*
X909265Y401720D01*
X909130Y401519D01*
X908990Y401322D01*
X908846Y401128D01*
X908697Y400938D01*
X908543Y400752D01*
X908385Y400569D01*
X908223Y400390D01*
X908056Y400215D01*
X907885Y400044D01*
X907710Y399877D01*
X907531Y399715D01*
X907348Y399557D01*
X907162Y399403D01*
X906972Y399254D01*
X906778Y399110D01*
X906581Y398970D01*
X906380Y398835D01*
X906176Y398705D01*
X905970Y398580D01*
X905760Y398460D01*
X905547Y398345D01*
X905332Y398236D01*
X905114Y398131D01*
X904894Y398032D01*
X904671Y397938D01*
X904446Y397850D01*
X904219Y397767D01*
X903990Y397689D01*
X903759Y397618D01*
X903527Y397551D01*
X903293Y397491D01*
X903058Y397436D01*
X902821Y397386D01*
X902584Y397343D01*
X902345Y397305D01*
X902105Y397273D01*
X901865Y397247D01*
X901624Y397226D01*
X901383Y397212D01*
X901142Y397203D01*
X900900Y397200D01*
X800900Y397200D01*
X800658Y397203D01*
X800417Y397212D01*
X800176Y397226D01*
X799935Y397247D01*
X799695Y397273D01*
X799455Y397305D01*
X799216Y397343D01*
X798979Y397386D01*
X798742Y397436D01*
X798507Y397491D01*
X798273Y397551D01*
X798041Y397618D01*
X797810Y397689D01*
X797581Y397767D01*
X797354Y397850D01*
X797129Y397938D01*
X796906Y398032D01*
X796686Y398131D01*
X796468Y398236D01*
X796253Y398345D01*
X796040Y398460D01*
X795830Y398580D01*
X795624Y398705D01*
X795420Y398835D01*
X795219Y398970D01*
X795022Y399110D01*
X794828Y399254D01*
X794638Y399403D01*
X794452Y399557D01*
X794269Y399715D01*
X794090Y399877D01*
X793915Y400044D01*
X793744Y400215D01*
X793577Y400390D01*
X793415Y400569D01*
X793257Y400752D01*
X793103Y400938D01*
X792954Y401128D01*
X792810Y401322D01*
X792670Y401519D01*
X792535Y401720D01*
X792405Y401924D01*
X792280Y402130D01*
X792160Y402340D01*
X792045Y402553D01*
X791936Y402768D01*
X791831Y402986D01*
X791732Y403206D01*
X791638Y403429D01*
X791550Y403654D01*
X791467Y403881D01*
X791389Y404110D01*
X791318Y404341D01*
X791251Y404573D01*
X791191Y404807D01*
X791136Y405042D01*
X791086Y405279D01*
X791043Y405516D01*
X791005Y405755D01*
X790973Y405995D01*
X790947Y406235D01*
X790926Y406476D01*
X790912Y406717D01*
X790903Y406958D01*
X790900Y407200D01*
X790900Y507200D02*
X790903Y507442D01*
X790912Y507683D01*
X790926Y507924D01*
X790947Y508165D01*
X790973Y508405D01*
X791005Y508645D01*
X791043Y508884D01*
X791086Y509121D01*
X791136Y509358D01*
X791191Y509593D01*
X791251Y509827D01*
X791318Y510059D01*
X791389Y510290D01*
X791467Y510519D01*
X791550Y510746D01*
X791638Y510971D01*
X791732Y511194D01*
X791831Y511414D01*
X791936Y511632D01*
X792045Y511847D01*
X792160Y512060D01*
X792280Y512270D01*
X792405Y512476D01*
X792535Y512680D01*
X792670Y512881D01*
X792810Y513078D01*
X792954Y513272D01*
X793103Y513462D01*
X793257Y513648D01*
X793415Y513831D01*
X793577Y514010D01*
X793744Y514185D01*
X793915Y514356D01*
X794090Y514523D01*
X794269Y514685D01*
X794452Y514843D01*
X794638Y514997D01*
X794828Y515146D01*
X795022Y515290D01*
X795219Y515430D01*
X795420Y515565D01*
X795624Y515695D01*
X795830Y515820D01*
X796040Y515940D01*
X796253Y516055D01*
X796468Y516164D01*
X796686Y516269D01*
X796906Y516368D01*
X797129Y516462D01*
X797354Y516550D01*
X797581Y516633D01*
X797810Y516711D01*
X798041Y516782D01*
X798273Y516849D01*
X798507Y516909D01*
X798742Y516964D01*
X798979Y517014D01*
X799216Y517057D01*
X799455Y517095D01*
X799695Y517127D01*
X799935Y517153D01*
X800176Y517174D01*
X800417Y517188D01*
X800658Y517197D01*
X800900Y517200D01*
X900900Y517200D01*
X901142Y517197D01*
X901383Y517188D01*
X901624Y517174D01*
X901865Y517153D01*
X902105Y517127D01*
X902345Y517095D01*
X902584Y517057D01*
X902821Y517014D01*
X903058Y516964D01*
X903293Y516909D01*
X903527Y516849D01*
X903759Y516782D01*
X903990Y516711D01*
X904219Y516633D01*
X904446Y516550D01*
X904671Y516462D01*
X904894Y516368D01*
X905114Y516269D01*
X905332Y516164D01*
X905547Y516055D01*
X905760Y515940D01*
X905970Y515820D01*
X906176Y515695D01*
X906380Y515565D01*
X906581Y515430D01*
X906778Y515290D01*
X906972Y515146D01*
X907162Y514997D01*
X907348Y514843D01*
X907531Y514685D01*
X907710Y514523D01*
X907885Y514356D01*
X908056Y514185D01*
X908223Y514010D01*
X908385Y513831D01*
X908543Y513648D01*
X908697Y513462D01*
X908846Y513272D01*
X908990Y513078D01*
X909130Y512881D01*
X909265Y512680D01*
X909395Y512476D01*
X909520Y512270D01*
X909640Y512060D01*
X909755Y511847D01*
X909864Y511632D01*
X909969Y511414D01*
X910068Y511194D01*
X910162Y510971D01*
X910250Y510746D01*
X910333Y510519D01*
X910411Y510290D01*
X910482Y510059D01*
X910549Y509827D01*
X910609Y509593D01*
X910664Y509358D01*
X910714Y509121D01*
X910757Y508884D01*
X910795Y508645D01*
X910827Y508405D01*
X910853Y508165D01*
X910874Y507924D01*
X910888Y507683D01*
X910897Y507442D01*
X910900Y507200D01*
X815545Y457200D02*
X815556Y458068D01*
X815588Y458935D01*
X815641Y459801D01*
X815715Y460665D01*
X815811Y461528D01*
X815928Y462388D01*
X816066Y463244D01*
X816224Y464097D01*
X816404Y464946D01*
X816605Y465791D01*
X816826Y466630D01*
X817067Y467463D01*
X817329Y468290D01*
X817612Y469111D01*
X817914Y469924D01*
X818236Y470730D01*
X818578Y471527D01*
X818939Y472316D01*
X819320Y473096D01*
X819720Y473866D01*
X820138Y474626D01*
X820575Y475376D01*
X821030Y476115D01*
X821503Y476842D01*
X821994Y477558D01*
X822503Y478261D01*
X823028Y478952D01*
X823570Y479629D01*
X824129Y480293D01*
X824704Y480943D01*
X825294Y481579D01*
X825900Y482200D01*
X826521Y482806D01*
X827157Y483396D01*
X827807Y483971D01*
X828471Y484530D01*
X829148Y485072D01*
X829839Y485597D01*
X830542Y486106D01*
X831258Y486597D01*
X831985Y487070D01*
X832724Y487525D01*
X833474Y487962D01*
X834234Y488380D01*
X835004Y488780D01*
X835784Y489161D01*
X836573Y489522D01*
X837370Y489864D01*
X838176Y490186D01*
X838989Y490488D01*
X839810Y490771D01*
X840637Y491033D01*
X841470Y491274D01*
X842309Y491495D01*
X843154Y491696D01*
X844003Y491876D01*
X844856Y492034D01*
X845712Y492172D01*
X846572Y492289D01*
X847435Y492385D01*
X848299Y492459D01*
X849165Y492512D01*
X850032Y492544D01*
X850900Y492555D01*
X851768Y492544D01*
X852635Y492512D01*
X853501Y492459D01*
X854365Y492385D01*
X855228Y492289D01*
X856088Y492172D01*
X856944Y492034D01*
X857797Y491876D01*
X858646Y491696D01*
X859491Y491495D01*
X860330Y491274D01*
X861163Y491033D01*
X861990Y490771D01*
X862811Y490488D01*
X863624Y490186D01*
X864430Y489864D01*
X865227Y489522D01*
X866016Y489161D01*
X866796Y488780D01*
X867566Y488380D01*
X868326Y487962D01*
X869076Y487525D01*
X869815Y487070D01*
X870542Y486597D01*
X871258Y486106D01*
X871961Y485597D01*
X872652Y485072D01*
X873329Y484530D01*
X873993Y483971D01*
X874643Y483396D01*
X875279Y482806D01*
X875900Y482200D01*
X876506Y481579D01*
X877096Y480943D01*
X877671Y480293D01*
X878230Y479629D01*
X878772Y478952D01*
X879297Y478261D01*
X879806Y477558D01*
X880297Y476842D01*
X880770Y476115D01*
X881225Y475376D01*
X881662Y474626D01*
X882080Y473866D01*
X882480Y473096D01*
X882861Y472316D01*
X883222Y471527D01*
X883564Y470730D01*
X883886Y469924D01*
X884188Y469111D01*
X884471Y468290D01*
X884733Y467463D01*
X884974Y466630D01*
X885195Y465791D01*
X885396Y464946D01*
X885576Y464097D01*
X885734Y463244D01*
X885872Y462388D01*
X885989Y461528D01*
X886085Y460665D01*
X886159Y459801D01*
X886212Y458935D01*
X886244Y458068D01*
X886255Y457200D01*
X886244Y456332D01*
X886212Y455465D01*
X886159Y454599D01*
X886085Y453735D01*
X885989Y452872D01*
X885872Y452012D01*
X885734Y451156D01*
X885576Y450303D01*
X885396Y449454D01*
X885195Y448609D01*
X884974Y447770D01*
X884733Y446937D01*
X884471Y446110D01*
X884188Y445289D01*
X883886Y444476D01*
X883564Y443670D01*
X883222Y442873D01*
X882861Y442084D01*
X882480Y441304D01*
X882080Y440534D01*
X881662Y439774D01*
X881225Y439024D01*
X880770Y438285D01*
X880297Y437558D01*
X879806Y436842D01*
X879297Y436139D01*
X878772Y435448D01*
X878230Y434771D01*
X877671Y434107D01*
X877096Y433457D01*
X876506Y432821D01*
X875900Y432200D01*
X875279Y431594D01*
X874643Y431004D01*
X873993Y430429D01*
X873329Y429870D01*
X872652Y429328D01*
X871961Y428803D01*
X871258Y428294D01*
X870542Y427803D01*
X869815Y427330D01*
X869076Y426875D01*
X868326Y426438D01*
X867566Y426020D01*
X866796Y425620D01*
X866016Y425239D01*
X865227Y424878D01*
X864430Y424536D01*
X863624Y424214D01*
X862811Y423912D01*
X861990Y423629D01*
X861163Y423367D01*
X860330Y423126D01*
X859491Y422905D01*
X858646Y422704D01*
X857797Y422524D01*
X856944Y422366D01*
X856088Y422228D01*
X855228Y422111D01*
X854365Y422015D01*
X853501Y421941D01*
X852635Y421888D01*
X851768Y421856D01*
X850900Y421845D01*
X850032Y421856D01*
X849165Y421888D01*
X848299Y421941D01*
X847435Y422015D01*
X846572Y422111D01*
X845712Y422228D01*
X844856Y422366D01*
X844003Y422524D01*
X843154Y422704D01*
X842309Y422905D01*
X841470Y423126D01*
X840637Y423367D01*
X839810Y423629D01*
X838989Y423912D01*
X838176Y424214D01*
X837370Y424536D01*
X836573Y424878D01*
X835784Y425239D01*
X835004Y425620D01*
X834234Y426020D01*
X833474Y426438D01*
X832724Y426875D01*
X831985Y427330D01*
X831258Y427803D01*
X830542Y428294D01*
X829839Y428803D01*
X829148Y429328D01*
X828471Y429870D01*
X827807Y430429D01*
X827157Y431004D01*
X826521Y431594D01*
X825900Y432200D01*
X825294Y432821D01*
X824704Y433457D01*
X824129Y434107D01*
X823570Y434771D01*
X823028Y435448D01*
X822503Y436139D01*
X821994Y436842D01*
X821503Y437558D01*
X821030Y438285D01*
X820575Y439024D01*
X820138Y439774D01*
X819720Y440534D01*
X819320Y441304D01*
X818939Y442084D01*
X818578Y442873D01*
X818236Y443670D01*
X817914Y444476D01*
X817612Y445289D01*
X817329Y446110D01*
X817067Y446937D01*
X816826Y447770D01*
X816605Y448609D01*
X816404Y449454D01*
X816224Y450303D01*
X816066Y451156D01*
X815928Y452012D01*
X815811Y452872D01*
X815715Y453735D01*
X815641Y454599D01*
X815588Y455465D01*
X815556Y456332D01*
X815545Y457200D01*
X830900Y477200D02*
X870900Y477200D01*
X870900Y437200D01*
X830900Y437200D01*
X830900Y477200D01*
X790900Y494700D02*
X790900Y507200D01*
X790900Y469700D02*
X790900Y444700D01*
X790900Y419700D02*
X790900Y407200D01*
X910900Y494700D02*
X910900Y507200D01*
X910900Y469700D02*
X910900Y444700D01*
X910900Y419700D02*
X910900Y407200D01*
D11*
X841241Y381706D02*
X841239Y381608D01*
X841233Y381511D01*
X841224Y381414D01*
X841210Y381317D01*
X841193Y381221D01*
X841172Y381126D01*
X841148Y381032D01*
X841119Y380938D01*
X841087Y380846D01*
X841052Y380755D01*
X841013Y380666D01*
X840970Y380578D01*
X840924Y380492D01*
X840875Y380408D01*
X840822Y380326D01*
X840767Y380246D01*
X840708Y380168D01*
X840646Y380093D01*
X840581Y380020D01*
X840513Y379950D01*
X840443Y379882D01*
X840370Y379817D01*
X840295Y379755D01*
X840217Y379696D01*
X840137Y379641D01*
X840055Y379588D01*
X839971Y379539D01*
X839885Y379493D01*
X839797Y379450D01*
X839708Y379411D01*
X839617Y379376D01*
X839525Y379344D01*
X839431Y379315D01*
X839337Y379291D01*
X839242Y379270D01*
X839146Y379253D01*
X839049Y379239D01*
X838952Y379230D01*
X838854Y379224D01*
X838757Y379222D01*
X838614Y379224D01*
X838471Y379230D01*
X838329Y379239D01*
X838187Y379253D01*
X838045Y379271D01*
X837904Y379292D01*
X837763Y379317D01*
X837623Y379346D01*
X837484Y379379D01*
X837346Y379415D01*
X837209Y379456D01*
X837073Y379500D01*
X836938Y379547D01*
X836805Y379599D01*
X836673Y379654D01*
X836543Y379712D01*
X836414Y379774D01*
X836287Y379840D01*
X836162Y379909D01*
X836039Y379981D01*
X835918Y380057D01*
X835799Y380135D01*
X835682Y380218D01*
X835567Y380303D01*
X835455Y380391D01*
X835345Y380483D01*
X835238Y380577D01*
X835133Y380674D01*
X835031Y380774D01*
X835342Y387914D02*
X835344Y388012D01*
X835350Y388109D01*
X835359Y388206D01*
X835373Y388303D01*
X835390Y388399D01*
X835411Y388494D01*
X835435Y388588D01*
X835464Y388682D01*
X835496Y388774D01*
X835531Y388865D01*
X835570Y388954D01*
X835613Y389042D01*
X835659Y389128D01*
X835708Y389212D01*
X835761Y389294D01*
X835816Y389374D01*
X835875Y389452D01*
X835937Y389527D01*
X836002Y389600D01*
X836070Y389670D01*
X836140Y389738D01*
X836213Y389803D01*
X836288Y389865D01*
X836366Y389924D01*
X836446Y389979D01*
X836528Y390032D01*
X836612Y390081D01*
X836698Y390127D01*
X836786Y390170D01*
X836875Y390209D01*
X836966Y390244D01*
X837058Y390276D01*
X837152Y390305D01*
X837246Y390329D01*
X837341Y390350D01*
X837437Y390367D01*
X837534Y390381D01*
X837631Y390390D01*
X837728Y390396D01*
X837826Y390398D01*
X837956Y390396D01*
X838086Y390391D01*
X838216Y390382D01*
X838346Y390369D01*
X838475Y390353D01*
X838604Y390333D01*
X838732Y390309D01*
X838860Y390282D01*
X838986Y390251D01*
X839112Y390217D01*
X839237Y390179D01*
X839360Y390138D01*
X839483Y390093D01*
X839604Y390045D01*
X839724Y389994D01*
X839842Y389939D01*
X839958Y389881D01*
X840073Y389820D01*
X840187Y389755D01*
X840298Y389688D01*
X840407Y389617D01*
X840515Y389543D01*
X840620Y389467D01*
X836585Y385741D02*
X836502Y385792D01*
X836421Y385846D01*
X836343Y385903D01*
X836267Y385963D01*
X836193Y386026D01*
X836122Y386092D01*
X836053Y386160D01*
X835987Y386231D01*
X835923Y386304D01*
X835863Y386380D01*
X835806Y386458D01*
X835751Y386539D01*
X835700Y386621D01*
X835652Y386705D01*
X835607Y386791D01*
X835565Y386879D01*
X835527Y386968D01*
X835493Y387058D01*
X835461Y387150D01*
X835434Y387243D01*
X835410Y387337D01*
X835389Y387432D01*
X835373Y387528D01*
X835360Y387624D01*
X835350Y387720D01*
X835345Y387817D01*
X835343Y387914D01*
X839999Y383879D02*
X840082Y383828D01*
X840163Y383774D01*
X840241Y383717D01*
X840317Y383657D01*
X840391Y383594D01*
X840462Y383528D01*
X840531Y383460D01*
X840597Y383389D01*
X840661Y383316D01*
X840721Y383240D01*
X840778Y383162D01*
X840833Y383081D01*
X840884Y382999D01*
X840932Y382915D01*
X840977Y382829D01*
X841019Y382741D01*
X841057Y382652D01*
X841091Y382562D01*
X841123Y382470D01*
X841150Y382377D01*
X841174Y382283D01*
X841195Y382188D01*
X841211Y382092D01*
X841224Y381996D01*
X841234Y381900D01*
X841239Y381803D01*
X841241Y381706D01*
X839999Y383879D02*
X836584Y385741D01*
X845742Y390398D02*
X848226Y379222D01*
X850710Y386673D01*
X853193Y379222D01*
X855677Y390398D01*
X860559Y379222D02*
X863664Y379222D01*
X863775Y379224D01*
X863885Y379230D01*
X863996Y379240D01*
X864106Y379254D01*
X864215Y379271D01*
X864324Y379293D01*
X864432Y379318D01*
X864538Y379348D01*
X864644Y379381D01*
X864749Y379418D01*
X864852Y379458D01*
X864953Y379503D01*
X865053Y379550D01*
X865152Y379602D01*
X865248Y379657D01*
X865342Y379715D01*
X865434Y379776D01*
X865524Y379841D01*
X865612Y379909D01*
X865697Y379980D01*
X865779Y380054D01*
X865859Y380131D01*
X865936Y380211D01*
X866010Y380293D01*
X866081Y380378D01*
X866149Y380466D01*
X866214Y380556D01*
X866275Y380648D01*
X866333Y380742D01*
X866388Y380838D01*
X866440Y380937D01*
X866487Y381037D01*
X866532Y381138D01*
X866572Y381241D01*
X866609Y381346D01*
X866642Y381452D01*
X866672Y381558D01*
X866697Y381666D01*
X866719Y381775D01*
X866736Y381884D01*
X866750Y381994D01*
X866760Y382105D01*
X866766Y382215D01*
X866768Y382326D01*
X866766Y382437D01*
X866760Y382547D01*
X866750Y382658D01*
X866736Y382768D01*
X866719Y382877D01*
X866697Y382986D01*
X866672Y383094D01*
X866642Y383200D01*
X866609Y383306D01*
X866572Y383411D01*
X866532Y383514D01*
X866487Y383615D01*
X866440Y383715D01*
X866388Y383814D01*
X866333Y383910D01*
X866275Y384004D01*
X866214Y384096D01*
X866149Y384186D01*
X866081Y384274D01*
X866010Y384359D01*
X865936Y384441D01*
X865859Y384521D01*
X865779Y384598D01*
X865697Y384672D01*
X865612Y384743D01*
X865524Y384811D01*
X865434Y384876D01*
X865342Y384937D01*
X865248Y384995D01*
X865152Y385050D01*
X865053Y385102D01*
X864953Y385149D01*
X864852Y385194D01*
X864749Y385234D01*
X864644Y385271D01*
X864538Y385304D01*
X864432Y385334D01*
X864324Y385359D01*
X864215Y385381D01*
X864106Y385398D01*
X863996Y385412D01*
X863885Y385422D01*
X863775Y385428D01*
X863664Y385430D01*
X864284Y390398D02*
X860559Y390398D01*
X864284Y390398D02*
X864383Y390396D01*
X864481Y390390D01*
X864580Y390380D01*
X864677Y390367D01*
X864775Y390349D01*
X864871Y390328D01*
X864967Y390302D01*
X865061Y390273D01*
X865154Y390241D01*
X865246Y390204D01*
X865336Y390164D01*
X865425Y390120D01*
X865512Y390073D01*
X865597Y390023D01*
X865679Y389969D01*
X865760Y389912D01*
X865838Y389852D01*
X865914Y389788D01*
X865987Y389722D01*
X866058Y389653D01*
X866126Y389581D01*
X866190Y389506D01*
X866252Y389429D01*
X866311Y389350D01*
X866366Y389268D01*
X866419Y389184D01*
X866467Y389099D01*
X866513Y389011D01*
X866555Y388921D01*
X866593Y388830D01*
X866627Y388738D01*
X866658Y388644D01*
X866685Y388549D01*
X866709Y388453D01*
X866728Y388356D01*
X866744Y388259D01*
X866756Y388161D01*
X866764Y388062D01*
X866768Y387963D01*
X866768Y387865D01*
X866764Y387766D01*
X866756Y387667D01*
X866744Y387569D01*
X866728Y387472D01*
X866709Y387375D01*
X866685Y387279D01*
X866658Y387184D01*
X866627Y387090D01*
X866593Y386998D01*
X866555Y386907D01*
X866513Y386817D01*
X866467Y386729D01*
X866419Y386644D01*
X866366Y386560D01*
X866311Y386478D01*
X866252Y386399D01*
X866190Y386322D01*
X866126Y386247D01*
X866058Y386175D01*
X865987Y386106D01*
X865914Y386040D01*
X865838Y385976D01*
X865760Y385916D01*
X865679Y385859D01*
X865597Y385805D01*
X865512Y385755D01*
X865425Y385708D01*
X865336Y385664D01*
X865246Y385624D01*
X865154Y385587D01*
X865061Y385555D01*
X864967Y385526D01*
X864871Y385500D01*
X864775Y385479D01*
X864677Y385461D01*
X864580Y385448D01*
X864481Y385438D01*
X864383Y385432D01*
X864284Y385430D01*
X864284Y385431D02*
X861801Y385431D01*
M02*
